<svg width="115" height="129" viewBox="0 0 115 129" fill="none" xmlns="http://www.w3.org/2000/svg">
<g clip-path="url(#clip0_795_17839)">
<path d="M65.1944 99.3967C92.7014 99.3967 115 77.146 115 49.6983C115 22.2507 92.7014 0 65.1944 0C37.6875 0 15.3887 22.2507 15.3887 49.6983C15.3887 77.146 37.6875 99.3967 65.1944 99.3967Z" fill="#F2F2F2"/>
<path d="M97.7412 22.2265H6.50398C6.30834 22.2223 6.15312 22.0607 6.15731 21.8655C6.16137 21.6761 6.31423 21.5236 6.50398 21.5195H97.7412C97.9369 21.5237 98.0921 21.6853 98.0879 21.8806C98.0838 22.0699 97.931 22.2224 97.7412 22.2265Z" fill="#CACACA"/>
<path d="M66.6478 34.1367H41.4263C39.5318 34.1367 37.9961 35.6691 37.9961 37.5595V37.5595C37.9961 39.4498 39.5318 40.9823 41.4263 40.9823H66.6478C68.5422 40.9823 70.0779 39.4498 70.0779 37.5595C70.0779 35.6691 68.5422 34.1367 66.6478 34.1367Z" fill="white"/>
<path d="M25.1333 47.8281H82.9414C84.8358 47.8281 86.3715 49.3606 86.3715 51.2509C86.3715 53.1412 84.8358 54.6737 82.9414 54.6737H25.1333C23.2389 54.6737 21.7031 53.1412 21.7031 51.2509C21.7031 49.3606 23.2389 47.8281 25.1333 47.8281Z" fill="white"/>
<path d="M25.1333 61.5195H82.9414C84.8358 61.5195 86.3715 63.052 86.3715 64.9423C86.3715 66.8326 84.8358 68.3651 82.9414 68.3651H25.1333C23.2389 68.3651 21.7031 66.8326 21.7031 64.9423C21.7031 63.052 23.2389 61.5195 25.1333 61.5195Z" fill="white"/>
<path d="M17.9699 128.698L17.8338 128.685C13.2178 128.21 9.04499 125.733 6.4239 121.911C5.70595 120.847 5.12522 119.696 4.6954 118.487L4.65409 118.371L4.7764 118.361C6.23664 118.244 7.73676 117.997 8.40317 117.879L4.106 116.426L4.07943 116.299C3.82467 115.105 4.32378 113.876 5.33997 113.196C6.35891 112.482 7.71012 112.46 8.75265 113.138C9.22051 113.436 9.70987 113.731 10.1831 114.017C11.8093 114.999 13.4908 116.014 14.7515 117.402C16.6633 119.55 17.5012 122.445 17.032 125.279L17.9699 128.698Z" fill="#F2F2F2"/>
<path d="M33.5895 126.566L35.7072 126.566L36.7149 118.414L33.5889 118.414L33.5895 126.566Z" fill="#A0616A"/>
<path d="M33.5148 128.77L40.0276 128.77V128.688C40.0275 127.291 38.8926 126.158 37.4926 126.158L36.3028 125.258L34.0832 126.159L33.5146 126.159L33.5148 128.77Z" fill="#2F2E41"/>
<path d="M16.6162 120.712L18.3102 121.98L24.0188 116.063L21.5184 114.191L16.6162 120.712Z" fill="#A0616A"/>
<path d="M15.2305 122.433L20.4403 126.333L20.4897 126.267C21.3298 125.15 21.1031 123.564 19.9832 122.726L19.5732 121.293L17.2559 120.684L16.8012 120.344L15.2305 122.433Z" fill="#2F2E41"/>
<path d="M23.6563 88.3142C23.6563 88.3142 23.7732 91.4965 23.9207 94.0486C23.9449 94.4671 22.9622 94.9218 22.9876 95.3771C23.0045 95.6792 23.1892 95.9729 23.2064 96.2879C23.2245 96.6203 22.9695 96.9145 22.9876 97.2583C23.0054 97.5942 23.2963 97.9794 23.3138 98.3232C23.5027 102.023 24.1873 106.452 23.5018 107.69C23.1639 108.301 18.8574 116.754 18.8574 116.754C18.8574 116.754 21.2569 120.346 21.9424 119.149C22.8479 117.568 29.8263 110.17 29.8263 108.758C29.8263 107.347 31.4407 96.7726 31.4407 96.7726L32.5664 103.03L33.0826 104.27L32.9204 104.998L33.254 105.98L33.272 106.952L33.5968 108.758C33.5968 108.758 32.6199 122.822 33.17 123.214C33.7219 123.607 36.3939 124.313 36.7092 123.607C37.0228 122.901 39.0643 108.929 39.0643 108.929C39.0643 108.929 39.3934 102.526 39.7499 96.5742C39.7704 96.2288 40.0138 95.8115 40.0327 95.4712C40.055 95.0761 39.9007 94.5631 39.9213 94.18C39.9436 93.7405 40.1389 93.4309 40.1578 93.0102C40.3035 89.7592 39.4857 85.8002 39.2252 85.4103C38.4385 84.2337 37.7307 83.2931 37.7307 83.2931C37.7307 83.2931 27.1351 79.8193 24.3037 83.3491L23.6563 88.3142Z" fill="#2F2E41"/>
<path d="M34.2246 55.5883L30.0243 54.75L28.0641 57.4045C24.4066 60.993 24.3515 64.1602 25.0045 69.2369V76.3621L24.5319 81.1386C24.5319 81.1386 22.859 84.6302 24.5844 85.4432C26.3099 86.2561 37.6435 86.1868 38.7255 85.8623C39.8076 85.5378 38.8697 85.1394 38.5855 83.627C38.0518 80.7861 38.4088 82.1564 38.4455 81.2519C38.9722 68.2768 37.7455 62.95 37.6209 61.5499L35.4848 57.6839L34.2246 55.5883Z" fill="#25652C"/>
<path d="M56.363 66.0516C55.9253 66.8793 54.898 67.1962 54.0685 66.7593C53.9801 66.7128 53.896 66.6585 53.8171 66.5971L44.7461 72.3444L44.7722 69.2152L53.584 64.1127C54.2117 63.4105 55.291 63.3489 55.9947 63.9752C56.5836 64.4993 56.7358 65.3577 56.363 66.0516Z" fill="#A0616A"/>
<path d="M30.908 59.2136L29.8753 59.1044C28.9211 59.0057 27.9848 59.4135 27.4086 60.1788C27.1879 60.4691 27.0294 60.8015 26.9429 61.1555L26.9423 61.1583C26.6833 62.2238 27.0896 63.3403 27.9733 63.9917L31.5402 66.6158C34.0433 69.9908 38.7476 72.2299 44.2658 74.049L52.8432 68.7335L49.8093 65.067L43.9261 68.2133L35.181 61.4583L35.176 61.4542L31.8476 59.3144L30.908 59.2136Z" fill="#25652C"/>
<path d="M32.8054 53.5291C35.5106 53.5291 37.7036 51.3409 37.7036 48.6415C37.7036 45.9422 35.5106 43.7539 32.8054 43.7539C30.1002 43.7539 27.9072 45.9422 27.9072 48.6415C27.9072 51.3409 30.1002 53.5291 32.8054 53.5291Z" fill="#A0616A"/>
<path d="M32.918 53.5313C32.8785 53.5326 32.8389 53.5334 32.7994 53.5345C32.7825 53.5783 32.7642 53.6217 32.7432 53.6643L32.918 53.5313Z" fill="#2F2E41"/>
<path d="M34.2627 48.7773C34.2704 48.8255 34.2821 48.8729 34.2978 48.9191C34.2913 48.8707 34.2796 48.8232 34.2627 48.7773Z" fill="#2F2E41"/>
<path d="M37.7662 43.9649C37.5646 44.5896 37.3847 43.7972 36.7214 43.9397C35.9236 44.1112 34.9951 44.0523 34.3418 43.5643C33.3682 42.8516 32.1066 42.6597 30.9645 43.0507C29.8465 43.4453 27.9735 43.7236 27.6822 44.8707C27.581 45.2694 27.5408 45.7021 27.2953 46.0326C27.0807 46.3215 26.742 46.4862 26.4588 46.7086C25.5024 47.4594 26.2334 49.5926 26.686 50.7198C27.1387 51.8469 28.177 52.668 29.3185 53.0886C30.423 53.4955 31.6218 53.5673 32.8001 53.5353C33.005 53.005 32.9165 52.3924 32.7474 51.8426C32.5643 51.2474 32.2933 50.6729 32.2168 50.055C32.1403 49.4371 32.3083 48.7352 32.8275 48.39C33.3047 48.0726 34.0814 48.2659 34.263 48.779C34.157 48.1376 34.8082 47.5168 35.4797 47.4077C36.2006 47.2905 36.9215 47.5502 37.6403 47.6794C38.3592 47.8087 38.104 44.7889 37.7662 43.9649Z" fill="#2F2E41"/>
<path d="M65.1598 56.7287C65.6164 51.2234 61.514 46.3911 55.9968 45.9355C50.4796 45.4798 45.6369 49.5734 45.1803 55.0787C44.7237 60.584 48.8261 65.4162 54.3433 65.8719C59.8605 66.3275 64.7032 62.2339 65.1598 56.7287Z" fill="#F99D27"/>
<path d="M57.8032 51.737L55.1701 54.3644L52.537 51.737C52.1108 51.3116 51.4197 51.3116 50.9935 51.737C50.5673 52.1623 50.5673 52.8518 50.9935 53.2772L53.6266 55.9046L50.9935 58.532C50.5677 58.9577 50.5683 59.6473 50.995 60.0722C51.421 60.4966 52.111 60.4966 52.537 60.0722L55.1701 57.4448L57.8032 60.0722C58.2299 60.4971 58.9209 60.4965 59.3468 60.0708C59.772 59.6456 59.772 58.9572 59.3468 58.532L56.7137 55.9046L59.3468 53.2772C59.773 52.8518 59.773 52.1623 59.3468 51.737C58.9205 51.3116 58.2295 51.3116 57.8032 51.737Z" fill="white"/>
<path d="M51.2199 47.4978C51.5154 48.386 51.0334 49.345 50.1432 49.6399C50.0483 49.6713 49.9508 49.6943 49.8519 49.7086L47.7282 60.219L45.4834 58.0339L47.8938 48.1564C47.8205 47.2184 48.5233 46.3986 49.4634 46.3255C50.25 46.2643 50.9762 46.749 51.2199 47.4978Z" fill="#A0616A"/>
<path d="M28.653 61.0888L27.8591 61.7568C27.127 62.3755 26.7738 63.332 26.9283 64.2768C26.9854 64.6366 27.1161 64.9809 27.3122 65.2882L27.3139 65.2906C27.905 66.2148 28.9938 66.6952 30.0767 66.5098L34.4436 65.7582C38.6172 66.2923 43.4933 64.4551 48.6291 61.7411L50.7232 51.885L45.9715 51.5312L44.1737 57.9456L33.2344 59.566L33.228 59.5668L29.3763 60.482L28.653 61.0888Z" fill="#25652C"/>
<path d="M53.519 128.939L0.232722 128.999C0.103778 128.998 -0.000416411 128.894 1.25127e-06 128.765C0.000414992 128.637 0.104364 128.533 0.232722 128.533L53.519 128.473C53.6479 128.473 53.7521 128.578 53.7517 128.706C53.7513 128.834 53.6473 128.938 53.519 128.939Z" fill="#CACACA"/>
<path d="M11.1328 17.7463C12.0486 17.7463 12.791 16.989 12.791 16.0548C12.791 15.1206 12.0486 14.3633 11.1328 14.3633C10.217 14.3633 9.47461 15.1206 9.47461 16.0548C9.47461 16.989 10.217 17.7463 11.1328 17.7463Z" fill="#25652C"/>
<path d="M16.8613 17.7463C17.7772 17.7463 18.5196 16.989 18.5196 16.0548C18.5196 15.1206 17.7772 14.3633 16.8613 14.3633C15.9455 14.3633 15.2031 15.1206 15.2031 16.0548C15.2031 16.989 15.9455 17.7463 16.8613 17.7463Z" fill="#25652C"/>
<path d="M22.5899 17.7463C23.5057 17.7463 24.2481 16.989 24.2481 16.0548C24.2481 15.1206 23.5057 14.3633 22.5899 14.3633C21.6741 14.3633 20.9316 15.1206 20.9316 16.0548C20.9316 16.989 21.6741 17.7463 22.5899 17.7463Z" fill="#25652C"/>
<path d="M29.1216 17.3925C29.0707 17.3925 29.0198 17.3728 28.9815 17.3336L27.8626 16.1923C27.788 16.1163 27.788 15.9948 27.8626 15.9187L28.9815 14.7775C29.0574 14.7003 29.1817 14.6991 29.2587 14.7744C29.3362 14.85 29.3375 14.9739 29.2618 15.0511L28.2771 16.0555L29.2618 17.06C29.3375 17.1372 29.3362 17.2611 29.2587 17.3367C29.2206 17.374 29.1711 17.3925 29.1216 17.3925Z" fill="#25652C"/>
<path d="M31.0018 17.3926C30.9523 17.3926 30.9028 17.3741 30.8647 17.3368C30.7872 17.2613 30.7859 17.1374 30.8616 17.0602L31.8462 16.0557L30.8616 15.0513C30.7859 14.9741 30.7872 14.8502 30.8647 14.7746C30.9419 14.6989 31.0662 14.7004 31.1419 14.7776L32.2607 15.9189C32.3353 15.9949 32.3353 16.1164 32.2607 16.1925L31.1419 17.3338C31.1035 17.373 31.0527 17.3926 31.0018 17.3926Z" fill="#25652C"/>
<path d="M89.5353 14.5586H87.4548C87.2176 14.5586 87.0254 14.7503 87.0254 14.9871V17.065C87.0254 17.3018 87.2176 17.4935 87.4548 17.4935H89.5353C89.7726 17.4935 89.9667 17.3018 89.9667 17.065V14.9871C89.9667 14.7503 89.7726 14.5586 89.5353 14.5586Z" fill="#25652C"/>
<path d="M84.4367 14.5586H82.3562C82.1189 14.5586 81.9268 14.7503 81.9268 14.9871V17.065C81.9268 17.3018 82.1189 17.4935 82.3562 17.4935H84.4367C84.6739 17.4935 84.868 17.3018 84.868 17.065V14.9871C84.868 14.7503 84.6739 14.5586 84.4367 14.5586Z" fill="#25652C"/>
<path d="M94.339 14.6562H92.2585C92.0213 14.6562 91.8291 14.848 91.8291 15.0848V17.1627C91.8291 17.3994 92.0213 17.5912 92.2585 17.5912H94.339C94.5763 17.5912 94.7704 17.3994 94.7704 17.1627V15.0848C94.7704 14.848 94.5763 14.6562 94.339 14.6562Z" fill="#25652C"/>
<path d="M62.9807 15.4492H46.3507C46.0605 15.4492 45.8271 15.684 45.8271 15.9716C45.8271 16.2593 46.0605 16.4941 46.3507 16.4941H62.9807C63.269 16.4941 63.5043 16.2593 63.5043 15.9716C63.5043 15.684 63.269 15.4492 62.9807 15.4492Z" fill="#25652C"/>
</g>
<defs>
<clipPath id="clip0_795_17839">
<rect width="115" height="129" fill="white"/>
</clipPath>
</defs>
</svg>
