<svg width="230" height="129" viewBox="0 0 230 129" fill="none" xmlns="http://www.w3.org/2000/svg">
<g clip-path="url(#clip0_280_9759)">
<path d="M48.4036 128.509H13.2652C13.2652 128.509 12.5529 118.041 16.767 117.922C20.9811 117.803 20.5063 122.561 25.789 116.018C31.0718 109.475 37.4819 109.832 38.3129 113.699C39.1439 117.565 36.7104 120.658 41.162 119.706C45.6135 118.754 52.0241 121.252 48.4036 128.509Z" fill="#E6E6E6"/>
<path d="M30.2413 128.512L30.1226 128.507C30.3992 121.615 31.8395 117.187 32.9994 114.685C34.2584 111.97 35.4718 110.87 35.484 110.859L35.563 110.948C35.551 110.959 34.3519 112.047 33.1028 114.745C31.9495 117.235 30.5169 121.646 30.2413 128.512Z" fill="white"/>
<path d="M42.9587 128.524L42.8447 128.491C43.7284 125.57 45.3214 122.914 47.4809 120.762L47.5607 120.85C45.4171 122.987 43.836 125.624 42.9587 128.524Z" fill="white"/>
<path d="M18.8 128.517L18.6823 128.501C19.0655 125.917 18.6601 123.277 17.5195 120.928C17.0519 119.943 16.4329 119.037 15.6851 118.244L15.7673 118.158C16.5252 118.961 17.1527 119.877 17.6269 120.875C18.7778 123.246 19.1868 125.909 18.8 128.517Z" fill="white"/>
<path d="M53.1725 128.667H9.47571L9.46571 128.519C9.44072 128.15 8.88315 119.446 11.6975 116.34C11.9767 116.012 12.3214 115.746 12.7093 115.56C13.0972 115.373 13.5199 115.27 13.95 115.257C15.7844 115.205 16.9372 115.893 17.8672 116.446C19.6199 117.488 20.7775 118.176 24.9873 112.962C29.5476 107.314 34.4682 106.098 37.2968 106.774C39.1244 107.211 40.384 108.445 40.7526 110.16C41.1025 111.784 40.9905 113.31 40.9011 114.537C40.8053 115.849 40.7299 116.885 41.2677 117.355C41.7176 117.747 42.6125 117.782 44.087 117.467C47.086 116.826 51.2716 117.374 53.3722 120.094C54.5023 121.558 55.3928 124.217 53.2165 128.579L53.1725 128.667ZM9.77386 128.349H52.9758C54.5975 125.052 54.6483 122.266 53.121 120.289C51.1939 117.794 47.151 117.137 44.1532 117.778C42.551 118.121 41.5966 118.064 41.059 117.595C40.4015 117.021 40.4822 115.914 40.5842 114.514C40.6721 113.308 40.7814 111.808 40.442 110.228C40.1001 108.637 38.9267 107.492 37.2228 107.085C34.4844 106.43 29.7003 107.63 25.234 113.163C20.8519 118.591 19.5316 117.806 17.705 116.719C16.7635 116.16 15.6949 115.525 13.9587 115.575C13.5715 115.587 13.1912 115.681 12.8422 115.849C12.4932 116.018 12.1833 116.258 11.9324 116.554C9.40373 119.345 9.71213 127.172 9.77411 128.349H9.77386Z" fill="#2F2E41"/>
<path d="M195.95 128.844H152.91L152.902 128.602L150.847 69.7031H198.013L195.95 128.844ZM153.393 128.343H195.467L197.496 70.204H151.364L153.393 128.343Z" fill="#3F3D56"/>
<path d="M227.175 128.5H0V129.001H227.175V128.5Z" fill="#3F3D56"/>
<path d="M99.2262 125.082H95.5864L93.854 111.014H99.2272L99.2262 125.082Z" fill="#FEB8B8"/>
<path d="M88.5674 128.468H100.006V124.039H92.9257C91.7698 124.039 90.6612 124.499 89.8439 125.318C89.0266 126.137 88.5674 127.248 88.5674 128.407V128.468Z" fill="#2F2E41"/>
<path d="M97.9473 103.282L100.458 105.922L111.817 97.4758L108.112 93.5781L97.9473 103.282Z" fill="#FEB8B8"/>
<path d="M103.044 107.133L98.1587 101.996L94.959 105.052L102.852 113.351L102.896 113.309C103.311 112.913 103.643 112.44 103.875 111.915C104.107 111.39 104.233 110.825 104.247 110.252C104.26 109.678 104.161 109.108 103.955 108.573C103.749 108.038 103.439 107.549 103.044 107.133Z" fill="#2F2E41"/>
<path d="M72.613 64.7388C72.3826 64.3675 72.2363 63.95 72.1843 63.5158C72.1324 63.0817 72.176 62.6414 72.3122 62.2259C72.4483 61.8105 72.6737 61.43 72.9724 61.1113C73.2712 60.7925 73.636 60.5433 74.0412 60.3811L88.3313 23.8848L93.9014 27.2269L78.0272 62.2389C78.254 62.9394 78.2165 63.6989 77.9219 64.3735C77.6272 65.0481 77.0957 65.591 76.4283 65.8992C75.7609 66.2073 75.0038 66.2594 74.3006 66.0456C73.5974 65.8317 72.9969 65.3668 72.613 64.7388Z" fill="#FEB8B8"/>
<path d="M126.853 67.354C126.418 67.3228 125.995 67.1963 125.613 66.9834C125.232 66.7705 124.902 66.4764 124.646 66.1218C124.391 65.7672 124.216 65.3607 124.134 64.9311C124.052 64.5014 124.065 64.0589 124.172 63.6349L103.091 30.6092L109.062 28.0547L128.014 61.4946C128.714 61.7213 129.307 62.1977 129.679 62.8333C130.052 63.4689 130.178 64.2194 130.035 64.9424C129.892 65.6654 129.489 66.3105 128.902 66.7553C128.316 67.2 127.586 67.4134 126.853 67.355V67.354Z" fill="#FEB8B8"/>
<path d="M88.4722 61.0835L92.2037 116.66L101.121 115.872L102.957 74.8686L107.94 92.4783L118.694 93.2667L114.438 58.4551L88.4722 61.0835Z" fill="#2F2E41"/>
<path d="M109.514 89.8516L107.939 92.48L96.9248 100.102L104.793 104.307C104.793 104.307 120.005 95.8968 118.694 93.2684L109.514 89.8516Z" fill="#2F2E41"/>
<path d="M80.6631 38.5986L83.7673 29.8331C84.4579 27.8828 85.5277 26.089 86.9147 24.5557C88.3017 23.0224 89.9783 21.78 91.8476 20.9003C96.0492 19.3492 100.619 19.0985 104.964 20.1808L106.094 20.4618C109.106 21.1934 111.929 22.5594 114.373 24.4689C116.286 25.9801 118.007 27.8934 118.16 29.9516C118.161 29.956 118.162 29.9602 118.164 29.9644C118.694 32.2915 118.956 44.3816 118.956 44.3816H114.282L115.022 60.6772L114.962 60.5593C114.962 60.5593 88.0069 65.6711 88.0069 63.0427V46.2209L87.4543 40.1301L80.6631 38.5986Z" fill="#25652C"/>
<path d="M105.823 17.9026C109.948 17.9026 113.293 14.5513 113.293 10.4171C113.293 6.28301 109.948 2.93164 105.823 2.93164C101.697 2.93164 98.353 6.28301 98.353 10.4171C98.353 14.5513 101.697 17.9026 105.823 17.9026Z" fill="#FEB8B8"/>
<path d="M106.942 7.05964L112.742 7.29255C113.472 7.2903 114.268 7.2645 114.824 6.79166C115.661 6.07815 115.521 4.73177 115.073 3.72599C113.823 0.92553 111.036 -0.077744 107.975 0.00465184C104.914 0.0870477 101.707 1.12664 100.059 3.71121C98.4107 6.29579 97.9654 9.55957 98.5862 12.5629C99.3039 11.0357 100.409 9.72394 101.79 8.75845C103.172 7.79296 104.782 7.20755 106.461 7.06064L106.942 7.05964Z" fill="#2F2E41"/>
<path d="M141.384 80.2776L120.391 65.5333C120.195 65.3958 120.063 65.1864 120.021 64.951C119.98 64.7156 120.034 64.4734 120.17 64.2774L136.647 40.7175C136.785 40.522 136.994 40.389 137.229 40.3476C137.463 40.3062 137.705 40.3598 137.901 40.4966L158.894 55.2409C159.089 55.3785 159.222 55.5879 159.263 55.8233C159.305 56.0587 159.251 56.3009 159.115 56.4968L142.638 80.0561C142.501 80.2518 142.292 80.385 142.057 80.4265C141.821 80.468 141.58 80.4145 141.384 80.2776Z" fill="#F99D27"/>
<path d="M146.105 64.2792L133.787 55.6275C133.644 55.5274 133.523 55.4002 133.429 55.2532C133.336 55.1061 133.272 54.942 133.242 54.7703C133.212 54.5987 133.216 54.4227 133.254 54.2525C133.291 54.0823 133.362 53.9213 133.462 53.7785C133.562 53.6357 133.689 53.5141 133.836 53.4205C133.982 53.3269 134.146 53.2632 134.317 53.233C134.489 53.2028 134.664 53.2067 134.834 53.2445C135.004 53.2823 135.165 53.3532 135.307 53.4533L147.626 62.105C147.914 62.3071 148.109 62.6154 148.17 62.9622C148.231 63.3089 148.152 63.6657 147.95 63.954C147.749 64.2423 147.441 64.4386 147.095 64.4996C146.749 64.5605 146.393 64.4813 146.105 64.2792Z" fill="white"/>
<path d="M143.278 68.3209L130.959 59.6692C130.817 59.5692 130.695 59.442 130.602 59.2949C130.508 59.1478 130.444 58.9837 130.414 58.8119C130.384 58.6402 130.388 58.4641 130.426 58.2938C130.463 58.1235 130.534 57.9624 130.634 57.8195C130.734 57.6767 130.861 57.555 131.008 57.4613C131.155 57.3677 131.318 57.304 131.49 57.2739C131.661 57.2437 131.837 57.2477 132.007 57.2857C132.177 57.3236 132.338 57.3947 132.48 57.495L144.799 66.1467C145.086 66.3489 145.281 66.6572 145.342 67.0037C145.403 67.3503 145.324 67.7069 145.122 67.995C144.921 68.2832 144.613 68.4794 144.267 68.5405C143.922 68.6016 143.566 68.5226 143.278 68.3209Z" fill="white"/>
<path d="M140.421 72.4081L128.102 63.7564C127.96 63.6564 127.838 63.5292 127.745 63.3821C127.651 63.235 127.588 63.071 127.558 62.8993C127.527 62.7276 127.531 62.5516 127.569 62.3814C127.607 62.2112 127.678 62.0502 127.777 61.9074C127.877 61.7646 128.004 61.643 128.151 61.5494C128.298 61.4558 128.462 61.3921 128.633 61.3619C128.804 61.3317 128.98 61.3356 129.15 61.3734C129.319 61.4112 129.48 61.4822 129.623 61.5822L141.941 70.2339C142.229 70.436 142.425 70.7443 142.486 71.0911C142.546 71.4378 142.467 71.7946 142.266 72.0829C142.064 72.3712 141.756 72.5675 141.41 72.6285C141.064 72.6895 140.708 72.6102 140.421 72.4081Z" fill="white"/>
<path d="M146.071 56.282L141.299 52.9309C141.157 52.8309 141.035 52.7037 140.941 52.5566C140.848 52.4096 140.784 52.2454 140.754 52.0737C140.724 51.9019 140.728 51.7258 140.765 51.5555C140.803 51.3852 140.874 51.2241 140.974 51.0812C141.074 50.9384 141.201 50.8167 141.348 50.7231C141.494 50.6294 141.658 50.5657 141.83 50.5356C142.001 50.5055 142.177 50.5095 142.347 50.5474C142.517 50.5853 142.677 50.6565 142.82 50.7567L147.591 54.1078C147.879 54.3098 148.075 54.6181 148.136 54.9649C148.196 55.3117 148.117 55.6684 147.916 55.9568C147.714 56.2451 147.406 56.4413 147.06 56.5023C146.714 56.5633 146.358 56.484 146.071 56.282Z" fill="white"/>
</g>
<defs>
<clipPath id="clip0_280_9759">
<rect width="230" height="129" fill="white"/>
</clipPath>
</defs>
</svg>
