<svg width="217" height="216" viewBox="0 0 217 216" fill="none" xmlns="http://www.w3.org/2000/svg">
<g clip-path="url(#clip0_31_1673)">
<path d="M61.6789 194.576L64.9572 190.424L58.3538 162.748L65.2737 153.984C66.1914 152.822 66.6097 151.343 66.4368 149.872C66.2639 148.401 65.5138 147.059 64.3516 146.142C63.1894 145.224 61.7103 144.806 60.2397 144.979C58.769 145.152 57.4273 145.902 56.5096 147.064L49.4081 156.058L20.9551 156.055L17.8601 159.974L40.2496 167.657L32.2899 177.738L22.2569 176.93L18.7969 181.312L33.212 185.58L40.7072 198.612L44.1671 194.23L41.054 184.658L49.159 174.393L61.6789 194.576Z" fill="white"/>
</g>
<path d="M44 158C53.6267 158 66.8362 155.504 77.8924 149.675C89.9137 143.338 91.3371 133.759 93.6036 129.651C96.8 123.857 94.0695 110.463 90.3102 100.36C89.5425 98.2974 88.3514 97.5098 87.2929 96.8716C85.1885 95.603 81.421 95.6 76.7569 96.692C71.5124 97.9199 69.9395 103.466 69.4871 106.761C68.827 111.569 69.9305 115.445 71.4324 117.331C74.8499 121.623 80.7514 124.266 92.1967 126.479C111.511 130.212 119.059 123.983 126.306 118.943C130.379 116.111 135.345 108.26 141.818 98.0393C151.271 83.116 150.762 75.7644 153.766 60.0651C155.89 48.9636 153.187 41.7185 150.78 39.8324C146.42 36.4151 141.443 35.4124 134.051 35.7149C130.672 35.8532 129.057 39.4967 127.7 41.6902C125.572 45.1281 127.835 49.2633 129.337 51.1495C132.979 55.7228 140.176 56.1935 146.215 57.6211C152.122 59.0174 164.84 58.7273 175.765 54.9644C179.656 53.6241 181.813 50.5396 185.713 47.5662C193.16 41.8879 201.085 29.8058 207.567 18.4651C210.169 13.3644 211.073 10.84 212.277 7.85236C212.883 6.42473 213.48 5.17673 215 2" stroke="white" stroke-width="2" stroke-linecap="square" stroke-dasharray="4 4"/>
<defs>
<clipPath id="clip0_31_1673">
<rect width="67" height="67" fill="white" transform="translate(41.5195 121) rotate(38.2938)"/>
</clipPath>
</defs>
</svg>
