<svg width="334" height="244" viewBox="0 0 334 244" fill="none" xmlns="http://www.w3.org/2000/svg">
<g clip-path="url(#clip0_313_4174)">
<path d="M242.132 106.541C241.704 108.787 241.191 111.01 240.593 113.21C240.528 113.465 240.456 113.717 240.383 113.973H232.067C231.358 113.973 230.679 114.255 230.178 114.755C229.677 115.256 229.395 115.934 229.395 116.642V140.329C229.143 140.798 228.887 141.263 228.631 141.728C227.311 144.131 225.937 146.506 224.532 148.851C201.628 186.966 169.684 218.86 131.519 241.72L133.779 236.625C132.95 236.568 132.118 236.511 131.29 236.454C113.256 235.222 95.1597 233.857 77.5487 229.808C59.1247 225.571 41.1016 218.223 26.6624 206.04C12.2193 193.854 1.63148 176.451 0.161951 157.621C-0.328058 151.15 0.327045 144.643 2.09722 138.399C5.48263 126.38 12.8798 115.566 23.5518 109.168C40.3154 99.1205 62.1822 101.168 79.8541 109.526C97.5223 117.881 111.904 131.711 125.947 145.301C111.769 121.013 92.0289 100.428 68.3463 85.2369C60.4988 80.2188 52.1705 75.7498 45.4987 69.2484C38.8305 62.7509 33.9106 53.6413 35.0901 44.4098C36.4297 33.9389 45.0139 25.9924 53.6132 19.8647C57.0484 17.4167 60.5943 15.0945 64.2509 12.9591C74.5677 6.91916 85.7283 2.36248 97.5147 0.673267C113.481 -1.61842 130.725 1.85915 142.966 12.3529C156.756 24.1774 162.413 43.2468 161.875 61.4887C170.371 49.1495 183.474 39.7044 198.272 39.304C213.635 38.8922 228.238 48.5889 235.933 61.8815C243.624 75.1702 245.006 91.4599 242.132 106.541Z" fill="#2F8A39"/>
<path d="M144.932 157.787C153.93 156.995 162.242 156.07 170.962 153.605C179.414 151.216 187.546 147.216 193.563 140.686C200.035 133.661 203.528 124.539 205.993 115.458C207.367 110.395 208.496 105.261 209.561 100.125C210.717 94.5529 211.744 88.9561 212.643 83.3346C214.431 72.145 215.707 60.8895 216.472 49.568C216.564 48.1938 216.649 46.819 216.726 45.4438C216.774 44.5955 215.453 44.5982 215.406 45.4438C214.777 56.6035 213.647 67.7197 212.014 78.7924C210.403 89.6713 208.342 100.503 205.727 111.187C203.512 120.238 200.643 129.43 194.961 136.965C189.633 144.03 181.937 148.647 173.628 151.408C165.173 154.217 156.257 155.338 147.422 156.172C146.338 156.275 146.017 156.372 144.932 156.467C144.092 156.541 144.084 157.861 144.932 157.787Z" fill="white"/>
<path d="M2.85958 139.373C14.2123 140.002 25.4496 141.981 36.3337 145.266C47.2225 148.545 57.6863 153.095 67.5084 158.822C76.999 164.361 85.8094 170.988 93.7607 178.569C101.478 185.931 108.355 194.123 114.268 202.997C120.207 211.892 125.129 221.425 128.942 231.417C129.407 232.64 129.855 233.869 130.286 235.104C130.564 235.901 131.84 235.558 131.559 234.754C127.992 224.551 123.29 214.781 117.54 205.626C111.792 196.471 105.046 187.981 97.4253 180.31C89.6826 172.521 81.0656 165.651 71.7453 159.837C52.1759 147.659 29.994 140.292 7.02127 138.34C5.63551 138.224 4.24829 138.129 2.85959 138.054C2.01034 138.007 2.01294 139.327 2.85958 139.373Z" fill="white"/>
<path d="M64.6075 14.5061C71.8663 16.8124 78.7466 20.1713 85.0282 24.4752C91.447 28.9031 97.3011 34.0968 102.461 39.9413C107.898 46.0895 112.732 52.7448 116.896 59.8157C121.313 67.2816 125.15 75.075 128.373 83.1274C131.692 91.3944 134.484 99.8632 136.731 108.483C139.016 117.205 140.8 126.05 142.076 134.974C143.345 143.805 144.113 152.7 144.377 161.617C144.642 170.143 144.39 178.678 143.621 187.174C142.918 195.1 141.634 202.964 139.78 210.703C138.133 217.692 135.813 224.506 132.851 231.049C132.165 232.533 131.437 233.998 130.667 235.441C130.267 236.191 131.407 236.858 131.807 236.107C135.08 229.858 137.694 223.286 139.606 216.497C141.752 208.939 143.307 201.226 144.257 193.428C145.311 184.967 145.825 176.448 145.794 167.922C145.775 158.965 145.241 150.016 144.196 141.12C143.149 132.113 141.596 123.172 139.543 114.34C137.495 105.493 134.897 96.7824 131.764 88.2585C128.744 80.0068 125.129 71.9851 120.946 64.2567C116.962 56.8818 112.32 49.8816 107.075 43.3413C102.094 37.1141 96.408 31.4844 90.1297 26.565C84.0759 21.8357 77.3861 17.9807 70.2572 15.1133C68.5151 14.4205 66.7489 13.7941 64.9586 13.2339C64.146 12.9785 63.7983 14.2518 64.6075 14.5061Z" fill="white"/>
<path d="M142.943 244C195.116 244 237.41 242.293 237.41 240.187C237.41 238.081 195.116 236.374 142.943 236.374C90.77 236.374 48.4756 238.081 48.4756 240.187C48.4756 242.293 90.77 244 142.943 244Z" fill="#2F8A39"/>
<path d="M226.406 120.756C226.359 120.962 226.328 121.171 226.314 121.381L209.918 130.831L205.933 128.539L201.684 134.095L210.21 140.166L228.915 125.424C229.678 125.706 230.509 125.749 231.297 125.548C232.086 125.347 232.794 124.911 233.328 124.297C233.862 123.684 234.196 122.923 234.287 122.116C234.378 121.308 234.22 120.492 233.835 119.776C233.45 119.06 232.856 118.478 232.132 118.108C231.408 117.738 230.588 117.596 229.782 117.702C228.975 117.809 228.22 118.158 227.617 118.703C227.014 119.249 226.591 119.965 226.406 120.756Z" fill="#FFB8B8"/>
<path d="M189.064 126.554L201.974 135.746L207.748 128.514L195.199 118.454C194.659 118.021 194.036 117.703 193.369 117.519C192.701 117.335 192.003 117.289 191.318 117.384C190.632 117.479 189.973 117.713 189.381 118.071C188.789 118.429 188.276 118.905 187.874 119.468C187.092 120.565 186.777 121.928 187 123.257C187.223 124.586 187.966 125.772 189.064 126.554Z" fill="#F99D27"/>
<path d="M162.415 231.44L166.941 232.625L173.67 215.746L166.99 213.997L162.415 231.44Z" fill="#FFB8B8"/>
<path d="M174.57 239.109L160.343 235.385L161.784 229.894L170.514 232.179C171.971 232.561 173.218 233.505 173.978 234.805C174.739 236.105 174.952 237.653 174.57 239.109Z" fill="#2F2E41"/>
<path d="M202.653 234.66L207.259 233.838L206.278 215.696L199.479 216.91L202.653 234.66Z" fill="#FFB8B8"/>
<path d="M216.908 236.525L202.43 239.109L201.431 233.521L210.315 231.935C211.05 231.804 211.803 231.819 212.532 231.979C213.26 232.139 213.951 232.44 214.563 232.866C215.175 233.293 215.697 233.835 216.1 234.463C216.502 235.091 216.777 235.792 216.908 236.525Z" fill="#2F2E41"/>
<path d="M193.582 101.242C194.717 101.518 195.641 102.673 196.195 104.012C196.707 105.418 197.053 106.879 197.227 108.364C197.663 111.132 198.082 114.127 197.18 116.69C196.124 119.694 193.309 121.267 190.868 120.528C188.426 119.788 186.484 117.013 185.821 113.819C185.217 110.591 185.606 107.256 186.937 104.254C187.631 102.676 188.587 101.221 189.857 100.509C190.48 100.133 191.223 100.006 191.936 100.154C192.649 100.303 193.279 100.715 193.7 101.309" fill="#2F2E41"/>
<path d="M200.005 151.341L208.775 229.813L201.532 232.56L188.173 179.939L169.574 228.052L161.646 228.493C161.646 228.493 172.524 153.629 180.585 151.927L200.005 151.341Z" fill="#2F2E41"/>
<path d="M192.639 111.256C197.816 111.256 202.013 107.063 202.013 101.891C202.013 96.7184 197.816 92.5254 192.639 92.5254C187.461 92.5254 183.264 96.7184 183.264 101.891C183.264 107.063 187.461 111.256 192.639 111.256Z" fill="#FFB8B8"/>
<path d="M196.662 115.185L186.531 113.865C186.531 113.865 179.924 121.786 180.365 135.427C180.805 149.068 179.264 153.248 179.264 153.248L200.386 153.629C197.333 149.435 210.105 125.345 196.662 115.185Z" fill="#F99D27"/>
<path d="M202.104 155.536C201.893 155.538 201.682 155.556 201.474 155.59L188.514 141.807L189.835 137.407L183.448 134.547L179.484 144.228L198.13 159.045C198.03 159.852 198.178 160.669 198.554 161.39C198.93 162.11 199.517 162.699 200.237 163.078C200.957 163.457 201.775 163.609 202.582 163.512C203.39 163.415 204.149 163.075 204.759 162.537C205.368 161.999 205.799 161.288 205.995 160.499C206.19 159.71 206.14 158.88 205.852 158.12C205.564 157.36 205.051 156.706 204.381 156.244C203.712 155.783 202.917 155.536 202.104 155.536Z" fill="#FFB8B8"/>
<path d="M187.909 120.548L181.907 135.207L190.275 139.167L197.206 124.66C197.504 124.036 197.672 123.357 197.698 122.666C197.725 121.975 197.61 121.286 197.361 120.641C197.111 119.996 196.732 119.408 196.248 118.914C195.763 118.421 195.183 118.031 194.542 117.769C193.924 117.516 193.262 117.388 192.594 117.391C191.926 117.394 191.266 117.528 190.65 117.786C190.034 118.044 189.475 118.421 189.005 118.894C188.534 119.368 188.162 119.93 187.909 120.548Z" fill="#F99D27"/>
<path d="M190.186 110.405C191.655 109.559 191.812 107.517 191.612 105.834C191.413 104.152 191.079 102.276 192.069 100.901C193.251 99.259 195.624 99.2263 197.647 99.1727C199.671 99.1191 202.134 98.5273 202.659 96.5743C203.005 95.2839 202.264 93.8991 201.2 93.0891C200.137 92.2791 198.806 91.9209 197.513 91.5806C194.62 90.8192 191.633 90.0514 188.671 90.4699C185.737 90.8844 183.084 92.4362 181.287 94.7897C179.489 97.1432 178.692 100.109 179.067 103.046C179.546 106.802 180.242 108.442 179.785 110.098C178.935 113.183 175.269 115.165 175.196 118.364C175.139 120.866 177.352 122.796 179.51 124.067C181.222 125.075 183.07 125.93 185.043 126.166C187.016 126.402 189.14 125.95 190.61 124.614C192.506 122.891 192.975 120.012 192.431 117.51C191.888 115.007 190.493 112.785 189.114 110.627" fill="#2F2E41"/>
<path d="M367.565 113.21H232.067C231.156 113.211 230.283 113.573 229.639 114.217C228.995 114.86 228.633 115.732 228.631 116.642V203.581C228.633 204.491 228.995 205.363 229.639 206.006C230.283 206.649 231.156 207.011 232.067 207.013H367.565C368.476 207.011 369.348 206.649 369.992 206.006C370.636 205.363 370.999 204.491 371 203.581V116.642C370.999 115.732 370.636 114.86 369.992 114.217C369.348 113.573 368.476 113.211 367.565 113.21ZM370.237 203.581C370.236 204.289 369.954 204.967 369.453 205.467C368.952 205.968 368.273 206.249 367.565 206.25H232.067C231.358 206.249 230.679 205.968 230.178 205.467C229.677 204.967 229.396 204.289 229.395 203.581V116.642C229.396 115.934 229.677 115.256 230.178 114.755C230.679 114.255 231.358 113.973 232.067 113.973H367.565C368.273 113.973 368.952 114.255 369.453 114.755C369.954 115.256 370.236 115.934 370.237 116.642V203.581Z" fill="#F99D27"/>
<path d="M260.989 156.487H239.614C238.754 156.486 237.93 156.144 237.321 155.537C236.713 154.929 236.371 154.105 236.37 153.246V131.893C236.371 131.033 236.713 130.209 237.321 129.602C237.93 128.994 238.754 128.652 239.614 128.651H260.989C261.849 128.652 262.674 128.994 263.282 129.602C263.89 130.209 264.232 131.033 264.233 131.893V153.246C264.232 154.105 263.89 154.929 263.282 155.537C262.674 156.144 261.849 156.486 260.989 156.487Z" fill="#F99D27"/>
<path d="M360.508 179.179H239.132C238.474 179.179 237.843 178.918 237.378 178.453C236.912 177.988 236.651 177.358 236.651 176.7C236.651 176.043 236.912 175.412 237.378 174.948C237.843 174.483 238.474 174.222 239.132 174.222H360.508C361.166 174.222 361.797 174.483 362.262 174.948C362.727 175.412 362.989 176.043 362.989 176.7C362.989 177.358 362.727 177.988 362.262 178.453C361.797 178.918 361.166 179.179 360.508 179.179Z" fill="#64C46E"/>
<path d="M360.589 167.167H239.213C238.555 167.167 237.924 166.906 237.459 166.441C236.994 165.976 236.732 165.346 236.732 164.688C236.732 164.031 236.994 163.401 237.459 162.936C237.924 162.471 238.555 162.21 239.213 162.21H360.589C361.247 162.21 361.878 162.471 362.344 162.936C362.809 163.401 363.07 164.031 363.07 164.688C363.07 165.346 362.809 165.976 362.344 166.441C361.878 166.906 361.247 167.167 360.589 167.167Z" fill="#64C46E"/>
<path d="M300.665 150.768H282.726C282.068 150.768 281.437 150.506 280.971 150.042C280.506 149.577 280.245 148.946 280.245 148.289C280.245 147.632 280.506 147.001 280.971 146.536C281.437 146.072 282.068 145.811 282.726 145.811H300.665C301.323 145.811 301.954 146.072 302.419 146.536C302.884 147.001 303.146 147.632 303.146 148.289C303.146 148.946 302.884 149.577 302.419 150.042C301.954 150.506 301.323 150.768 300.665 150.768Z" fill="#64C46E"/>
<path d="M360.589 138.569H282.726C282.068 138.569 281.437 138.308 280.971 137.843C280.506 137.379 280.245 136.748 280.245 136.091C280.245 135.433 280.506 134.803 280.971 134.338C281.437 133.873 282.068 133.612 282.726 133.612H360.589C361.247 133.612 361.878 133.873 362.344 134.338C362.809 134.803 363.07 135.433 363.07 136.091C363.07 136.748 362.809 137.379 362.344 137.843C361.878 138.308 361.247 138.569 360.589 138.569Z" fill="#64C46E"/>
<path d="M297.611 191.381H239.132C238.474 191.381 237.843 191.12 237.378 190.655C236.912 190.19 236.651 189.56 236.651 188.902C236.651 188.245 236.912 187.615 237.378 187.15C237.843 186.685 238.474 186.424 239.132 186.424H297.611C298.269 186.424 298.9 186.685 299.366 187.15C299.831 187.615 300.092 188.245 300.092 188.902C300.092 189.56 299.831 190.19 299.366 190.655C298.9 191.12 298.269 191.381 297.611 191.381Z" fill="#64C46E"/>
</g>
<defs>
<clipPath id="clip0_313_4174">
<rect width="334" height="244" fill="white"/>
</clipPath>
</defs>
</svg>
