<svg width="1440" height="513" viewBox="0 0 1440 513" fill="none" xmlns="http://www.w3.org/2000/svg">
<path d="M1350 123.698C932.818 197.4 556.838 41.7731 2 53.6506V378H1350V123.698Z" fill="url(#paint0_linear_203_2489)"/>
<g clip-path="url(#clip0_203_2489)">
<path d="M204 116.368L178.24 98.496C187.924 96.708 194.334 94.832 194.334 94.832L172.666 76.792C179.922 75.062 184.668 73.322 184.668 73.322L166.422 54.276C171.622 52.488 175 50.734 175 50.734L145.998 13L117 50.734C117 50.734 120.378 52.488 125.576 54.276L107.334 73.322C107.334 73.322 112.078 75.062 119.332 76.79L97.666 94.832C97.666 94.832 104.076 96.708 113.758 98.496L88 116.368C88 116.368 108.106 121.28 132.466 122.786V133H159.534V122.786C183.892 121.28 204 116.368 204 116.368Z" fill="#24572A"/>
<path d="M222.438 98.7497L207.142 88.1383C212.892 87.0766 216.698 85.9628 216.698 85.9628L203.833 75.2515C208.141 74.2243 210.959 73.1912 210.959 73.1912L200.126 61.8826C203.213 60.821 205.219 59.7796 205.219 59.7796L187.999 37.375L170.781 59.7796C170.781 59.7796 172.787 60.821 175.873 61.8826L165.042 73.1912C165.042 73.1912 167.859 74.2243 172.166 75.2503L159.302 85.9628C159.302 85.9628 163.108 87.0766 168.856 88.1383L153.562 98.7497C153.562 98.7497 165.5 101.666 179.964 102.56V108.625H196.036V102.56C210.498 101.666 222.438 98.7497 222.438 98.7497Z" fill="#24572A"/>
</g>
<path d="M251.875 127.815L234.165 115.529C240.823 114.299 245.23 113.01 245.23 113.01L230.333 100.607C235.321 99.4176 238.584 98.2214 238.584 98.2214L226.04 85.1273C229.615 83.898 231.938 82.6921 231.938 82.6921L211.999 56.75L192.062 82.6921C192.062 82.6921 194.385 83.898 197.959 85.1273L185.417 98.2214C185.417 98.2214 188.679 99.4176 193.666 100.606L178.77 113.01C178.77 113.01 183.177 114.299 189.834 115.529L172.125 127.815C172.125 127.815 185.948 131.193 202.695 132.228V139.25H221.305V132.228C238.051 131.193 251.875 127.815 251.875 127.815Z" fill="#24572A"/>
<path d="M346 131.368L320.24 113.496C329.924 111.708 336.334 109.832 336.334 109.832L314.666 91.792C321.922 90.062 326.668 88.322 326.668 88.322L308.422 69.276C313.622 67.488 317 65.734 317 65.734L287.998 28L259 65.734C259 65.734 262.378 67.488 267.576 69.276L249.334 88.322C249.334 88.322 254.078 90.062 261.332 91.79L239.666 109.832C239.666 109.832 246.076 111.708 255.758 113.496L230 131.368C230 131.368 250.106 136.28 274.466 137.786V148H301.534V137.786C325.892 136.28 346 131.368 346 131.368Z" fill="#24572A"/>
<path d="M513 143.368L487.24 125.496C496.924 123.708 503.334 121.832 503.334 121.832L481.666 103.792C488.922 102.062 493.668 100.322 493.668 100.322L475.422 81.276C480.622 79.488 484 77.734 484 77.734L454.998 40L426 77.734C426 77.734 429.378 79.488 434.576 81.276L416.334 100.322C416.334 100.322 421.078 102.062 428.332 103.79L406.666 121.832C406.666 121.832 413.076 123.708 422.758 125.496L397 143.368C397 143.368 417.106 148.28 441.466 149.786V160H468.534V149.786C492.892 148.28 513 143.368 513 143.368Z" fill="#24572A"/>
<path d="M451.438 129.75L436.142 119.138C441.892 118.077 445.698 116.963 445.698 116.963L432.833 106.251C437.141 105.224 439.959 104.191 439.959 104.191L429.126 92.8826C432.213 91.821 434.219 90.7796 434.219 90.7796L416.999 68.375L399.781 90.7796C399.781 90.7796 401.787 91.821 404.873 92.8826L394.042 104.191C394.042 104.191 396.859 105.224 401.166 106.25L388.302 116.963C388.302 116.963 392.108 118.077 397.856 119.138L382.562 129.75C382.562 129.75 394.5 132.666 408.964 133.56V139.625H425.036V133.56C439.498 132.666 451.438 129.75 451.438 129.75Z" fill="#24572A"/>
<path d="M540.438 147.75L525.142 137.138C530.892 136.077 534.698 134.963 534.698 134.963L521.833 124.251C526.141 123.224 528.959 122.191 528.959 122.191L518.126 110.883C521.213 109.821 523.219 108.78 523.219 108.78L505.999 86.375L488.781 108.78C488.781 108.78 490.787 109.821 493.873 110.883L483.042 122.191C483.042 122.191 485.859 123.224 490.166 124.25L477.302 134.963C477.302 134.963 481.108 136.077 486.856 137.138L471.562 147.75C471.562 147.75 483.5 150.666 497.964 151.56V157.625H514.036V151.56C528.498 150.666 540.438 147.75 540.438 147.75Z" fill="#24572A"/>
<path d="M1017.46 168.875V155.918C1016.03 156.435 1014.51 156.708 1012.9 156.708C1005.29 156.708 999.208 150.625 999.208 143.021C999.208 139.158 1000.73 135.69 1003.35 133.196C1002.65 131.554 1002.25 129.729 1002.25 127.813C1002.25 120.208 1008.33 114.125 1015.94 114.125C1020.68 114.125 1024.88 116.558 1027.34 120.208H1028.1C1030.3 120.208 1032.48 120.641 1034.51 121.482C1036.54 122.322 1038.38 123.555 1039.93 125.108C1041.49 126.662 1042.72 128.506 1043.56 130.536C1044.4 132.565 1044.83 134.741 1044.83 136.938C1044.83 139.134 1044.4 141.31 1043.56 143.339C1042.72 145.369 1041.49 147.213 1039.93 148.767C1038.38 150.32 1036.54 151.553 1034.51 152.393C1032.48 153.234 1030.3 153.667 1028.1 153.667C1026.58 153.667 1025.06 153.454 1023.54 153.028V168.875H1017.46Z" fill="#287531"/>
<path d="M977.917 180.75V171.875C976.937 172.229 975.896 172.417 974.792 172.417C969.583 172.417 965.417 168.25 965.417 163.042C965.417 160.396 966.458 158.021 968.25 156.313C967.771 155.188 967.5 153.937 967.5 152.625C967.5 147.417 971.667 143.25 976.875 143.25C980.125 143.25 983 144.917 984.687 147.417H985.208C986.713 147.417 988.203 147.713 989.593 148.289C990.983 148.865 992.246 149.709 993.31 150.773C994.374 151.837 995.218 153.1 995.794 154.49C996.37 155.88 996.667 157.37 996.667 158.875C996.667 160.38 996.37 161.87 995.794 163.26C995.218 164.65 994.374 165.913 993.31 166.977C992.246 168.041 990.983 168.885 989.593 169.461C988.203 170.037 986.713 170.333 985.208 170.333C984.167 170.333 983.125 170.187 982.083 169.896V180.75H977.917Z" fill="#287531"/>
<path d="M901.042 193.625V187.413C900.356 187.66 899.627 187.792 898.854 187.792C895.208 187.792 892.292 184.875 892.292 181.229C892.292 179.377 893.021 177.715 894.275 176.519C893.939 175.731 893.75 174.856 893.75 173.938C893.75 170.292 896.667 167.375 900.312 167.375C902.587 167.375 904.6 168.542 905.781 170.292H906.146C907.199 170.292 908.242 170.499 909.215 170.902C910.188 171.305 911.072 171.896 911.817 172.641C912.562 173.386 913.153 174.27 913.556 175.243C913.959 176.216 914.167 177.259 914.167 178.313C914.167 179.366 913.959 180.409 913.556 181.382C913.153 182.355 912.562 183.239 911.817 183.984C911.072 184.729 910.188 185.32 909.215 185.723C908.242 186.126 907.199 186.333 906.146 186.333C905.417 186.333 904.687 186.231 903.958 186.027V193.625H901.042Z" fill="#287531"/>
<path d="M886.75 197.25V191.925C886.163 192.137 885.537 192.25 884.875 192.25C881.75 192.25 879.25 189.75 879.25 186.625C879.25 185.038 879.875 183.613 880.95 182.588C880.663 181.913 880.5 181.162 880.5 180.375C880.5 177.25 883 174.75 886.125 174.75C888.075 174.75 889.8 175.75 890.812 177.25H891.125C892.028 177.25 892.922 177.428 893.756 177.773C894.59 178.119 895.348 178.625 895.986 179.264C896.625 179.902 897.131 180.66 897.477 181.494C897.822 182.328 898 183.222 898 184.125C898 185.028 897.822 185.922 897.477 186.756C897.131 187.59 896.625 188.348 895.986 188.986C895.348 189.625 894.59 190.131 893.756 190.477C892.922 190.822 892.028 191 891.125 191C890.5 191 889.875 190.912 889.25 190.737V197.25H886.75Z" fill="#287430"/>
<path d="M496 197.185C794.96 284.947 1064.39 99.6313 1462 113.775V500H496V197.185Z" fill="url(#paint1_linear_203_2489)"/>
<path d="M1462 200.013C1010.16 290.723 602.938 99.1822 2 113.801V513H1462V200.013Z" fill="url(#paint2_linear_203_2489)"/>
<path d="M1422.46 212.875V199.918C1421.03 200.435 1419.51 200.708 1417.9 200.708C1410.29 200.708 1404.21 194.625 1404.21 187.021C1404.21 183.158 1405.73 179.69 1408.35 177.196C1407.65 175.554 1407.25 173.729 1407.25 171.813C1407.25 164.208 1413.33 158.125 1420.94 158.125C1425.68 158.125 1429.88 160.558 1432.34 164.208H1433.1C1435.3 164.208 1437.48 164.641 1439.51 165.482C1441.54 166.322 1443.38 167.555 1444.93 169.108C1446.49 170.662 1447.72 172.506 1448.56 174.536C1449.4 176.565 1449.83 178.741 1449.83 180.938C1449.83 183.134 1449.4 185.31 1448.56 187.339C1447.72 189.369 1446.49 191.213 1444.93 192.767C1443.38 194.32 1441.54 195.553 1439.51 196.393C1437.48 197.234 1435.3 197.667 1433.1 197.667C1431.58 197.667 1430.06 197.454 1428.54 197.028V212.875H1422.46Z" fill="#24572A"/>
<path d="M1385.92 215.75V206.875C1384.94 207.229 1383.9 207.417 1382.79 207.417C1377.58 207.417 1373.42 203.25 1373.42 198.042C1373.42 195.396 1374.46 193.021 1376.25 191.313C1375.77 190.188 1375.5 188.937 1375.5 187.625C1375.5 182.417 1379.67 178.25 1384.87 178.25C1388.12 178.25 1391 179.917 1392.69 182.417H1393.21C1394.71 182.417 1396.2 182.713 1397.59 183.289C1398.98 183.865 1400.25 184.709 1401.31 185.773C1402.37 186.837 1403.22 188.1 1403.79 189.49C1404.37 190.88 1404.67 192.37 1404.67 193.875C1404.67 195.38 1404.37 196.87 1403.79 198.26C1403.22 199.65 1402.37 200.913 1401.31 201.977C1400.25 203.041 1398.98 203.885 1397.59 204.461C1396.2 205.037 1394.71 205.333 1393.21 205.333C1392.17 205.333 1391.12 205.187 1390.08 204.896V215.75H1385.92Z" fill="#24572A"/>
<path d="M48.3332 81.3762V113.91C48.3332 115.324 47.7713 116.681 46.7711 117.681C45.7709 118.681 44.4144 119.243 42.9999 119.243C41.5854 119.243 40.2289 118.681 39.2287 117.681C38.2285 116.681 37.6666 115.324 37.6666 113.91V81.3762C31.6624 82.61 25.4164 81.7376 19.9801 78.9059C14.5437 76.0741 10.2488 71.456 7.8184 65.8288C5.38795 60.2016 4.97031 53.9089 6.63577 48.0098C8.30123 42.1108 11.9481 36.9656 16.9626 33.4402C18.2833 27.5197 21.5823 22.2261 26.3157 18.4324C31.049 14.6386 36.9339 12.5713 42.9999 12.5713C49.0659 12.5713 54.9508 14.6386 59.6841 18.4324C64.4174 22.2261 67.7165 27.5197 69.0372 33.4402C74.0517 36.9656 77.6986 42.1108 79.364 48.0098C81.0295 53.9089 80.6118 60.2016 78.1814 65.8288C75.751 71.456 71.4561 76.0741 66.0197 78.9059C60.5834 81.7376 54.3374 82.61 48.3332 81.3762Z" fill="#24572A"/>
<path d="M125.438 115.75L110.142 105.138C115.892 104.077 119.698 102.963 119.698 102.963L106.833 92.2515C111.141 91.2243 113.959 90.1912 113.959 90.1912L103.126 78.8826C106.213 77.821 108.219 76.7796 108.219 76.7796L90.9988 54.375L73.7812 76.7796C73.7812 76.7796 75.7869 77.821 78.8733 78.8826L68.0421 90.1912C68.0421 90.1912 70.8588 91.2243 75.1659 92.2503L62.3017 102.963C62.3017 102.963 66.1076 104.077 71.8563 105.138L56.5625 115.75C56.5625 115.75 68.5004 118.666 82.9642 119.56V125.625H99.0358V119.56C113.498 118.666 125.438 115.75 125.438 115.75Z" fill="#24572A"/>
<path d="M558.333 117.376V149.91C558.333 151.324 557.771 152.681 556.771 153.681C555.771 154.681 554.414 155.243 553 155.243C551.585 155.243 550.229 154.681 549.229 153.681C548.228 152.681 547.667 151.324 547.667 149.91V117.376C541.662 118.61 535.416 117.738 529.98 114.906C524.544 112.074 520.249 107.456 517.818 101.829C515.388 96.2016 514.97 89.9089 516.636 84.0098C518.301 78.1108 521.948 72.9656 526.963 69.4402C528.283 63.5197 531.582 58.2261 536.316 54.4324C541.049 50.6386 546.934 48.5713 553 48.5713C559.066 48.5713 564.951 50.6386 569.684 54.4324C574.417 58.2261 577.716 63.5197 579.037 69.4402C584.052 72.9656 587.699 78.1108 589.364 84.0098C591.029 89.9089 590.612 96.2016 588.181 101.829C585.751 107.456 581.456 112.074 576.02 114.906C570.583 117.738 564.337 118.61 558.333 117.376Z" fill="#24572A"/>
<path d="M372.542 110.41V128.964C372.542 129.771 372.221 130.544 371.651 131.115C371.08 131.685 370.307 132.006 369.5 132.006C368.693 132.006 367.92 131.685 367.349 131.115C366.779 130.544 366.458 129.771 366.458 128.964V110.41C363.034 111.113 359.472 110.616 356.372 109.001C353.271 107.386 350.822 104.752 349.436 101.543C348.049 98.3336 347.811 94.7448 348.761 91.3805C349.711 88.0162 351.791 85.0818 354.651 83.0713C355.404 79.6947 357.285 76.6757 359.985 74.5121C362.684 72.3485 366.04 71.1694 369.5 71.1694C372.96 71.1694 376.316 72.3485 379.015 74.5121C381.715 76.6757 383.596 79.6947 384.349 83.0713C387.209 85.0818 389.289 88.0162 390.239 91.3805C391.189 94.7448 390.951 98.3336 389.564 101.543C388.178 104.752 385.729 107.386 382.629 109.001C379.528 110.616 375.966 111.113 372.542 110.41Z" fill="#24572A"/>
<defs>
<linearGradient id="paint0_linear_203_2489" x1="572.794" y1="-166.71" x2="557.795" y2="610.225" gradientUnits="userSpaceOnUse">
<stop offset="0.243753" stop-color="#2F8A39"/>
<stop offset="0.275727" stop-color="#2F8A39"/>
<stop offset="0.804197"/>
</linearGradient>
<linearGradient id="paint1_linear_203_2489" x1="1052.96" y1="-148.624" x2="1082.62" y2="775.919" gradientUnits="userSpaceOnUse">
<stop offset="0.263446" stop-color="#2F8A39"/>
<stop offset="0.804197"/>
</linearGradient>
<linearGradient id="paint2_linear_203_2489" x1="732" y1="113" x2="732.139" y2="960.553" gradientUnits="userSpaceOnUse">
<stop offset="0.327537" stop-color="#24572A"/>
<stop offset="1"/>
</linearGradient>
<clipPath id="clip0_203_2489">
<rect width="128" height="128" fill="white" transform="translate(82 9)"/>
</clipPath>
</defs>
</svg>
