<svg width="64" height="129" viewBox="0 0 64 129" fill="none" xmlns="http://www.w3.org/2000/svg">
<path d="M64 30.6553H63.2942V11.2378C63.2942 8.25735 62.1161 5.399 60.0192 3.29152C57.9223 1.18403 55.0784 4.32175e-05 52.1129 0H11.1815C8.216 -3.13348e-10 5.37197 1.18397 3.27504 3.29146C1.17811 5.39895 4.30011e-05 8.25732 0 11.2378V117.762C4.30004e-05 120.743 1.17808 123.601 3.27498 125.708C5.37187 127.816 8.21586 129 11.1813 129H52.1129C55.0784 129 57.9225 127.816 60.0194 125.708C62.1163 123.601 63.2944 120.743 63.2944 117.762V44.4768H64V30.6553Z" fill="#090814"/>
<path d="M52.5654 2.92383H47.2226C47.4684 3.52926 47.5622 4.18614 47.4958 4.8366C47.4295 5.48706 47.205 6.11113 46.8421 6.65384C46.4792 7.19655 45.9891 7.64123 45.4149 7.94871C44.8408 8.2562 44.2002 8.41704 43.5496 8.41708H20.0993C19.4487 8.41707 18.8081 8.25624 18.2339 7.94877C17.6598 7.6413 17.1696 7.19662 16.8067 6.65391C16.4438 6.1112 16.2193 5.48711 16.1529 4.83664C16.0866 4.18617 16.1804 3.52927 16.4261 2.92383H11.436C9.22143 2.92383 7.09756 3.80801 5.53162 5.38186C3.96567 6.95571 3.08594 9.09031 3.08594 11.3161V117.685C3.08594 119.911 3.96567 122.045 5.53162 123.619C7.09756 125.193 9.22143 126.077 11.436 126.077H52.5638C54.7784 126.077 56.9022 125.193 58.4682 123.619C60.0341 122.045 60.9139 119.911 60.9139 117.685V11.3164C60.9139 9.09089 60.0343 6.95651 58.4687 5.3827C56.9031 3.8089 54.7796 2.92454 52.5652 2.92416L52.5654 2.92383Z" fill="white"/>
<path d="M30.5428 69.7686C30.5428 79.8546 24.5769 83.3754 17.2177 83.3754C9.85842 83.3754 3.89258 79.8538 3.89258 69.7686C3.89258 59.6834 17.2177 46.8516 17.2177 46.8516C17.2177 46.8516 30.5428 59.6826 30.5428 69.7686Z" fill="#F2F2F2"/>
<path d="M16.7325 81.8334L16.869 73.3922L22.5484 62.9493L16.8898 72.068L16.9511 68.2725L20.8654 60.7172L16.9673 67.268L17.0777 60.4416L21.269 54.4267L17.0957 59.3685L17.1646 46.8516L16.7312 63.4219L16.7669 62.7375L12.5053 56.1823L16.6985 64.0504L16.3014 71.6742L16.2896 71.4718L11.377 64.5732L16.2748 72.1872L16.2252 73.1405L16.2163 73.1548L16.2203 73.2332L15.213 92.5761H16.5587L16.7208 82.5854L21.6067 74.9902L16.7325 81.8334Z" fill="#E6E6E6"/>
<path d="M59.9926 64.3118C59.9926 76.8105 52.5991 81.1738 43.4797 81.1738C34.3603 81.1738 26.9668 76.8097 26.9668 64.3118C26.9668 51.8139 43.4795 35.9121 43.4795 35.9121C43.4795 35.9121 59.9926 51.8127 59.9926 64.3118Z" fill="#F2F2F2"/>
<path d="M42.879 79.2628L43.0481 68.8022L50.0861 55.861L43.0738 67.1614L43.1497 62.4578L48.0004 53.095L43.1698 61.213L43.3067 52.7535L48.5006 45.2995L43.3284 51.4236L43.4138 35.9121L42.8773 56.4467L42.9216 55.5993L37.6405 47.4752L42.8368 57.2256L42.3447 66.6733L42.3301 66.4226L36.2422 57.8734L42.3118 67.3085L42.2504 68.49L42.2393 68.5077L42.2444 68.6055L40.9959 92.5764H42.6636L42.8645 80.1956L48.9192 70.7833L42.879 79.2628Z" fill="#E6E6E6"/>
<path d="M31.9645 39.2597C33.8089 39.2597 35.3041 37.757 35.3041 35.9033C35.3041 34.0496 33.8089 32.5469 31.9645 32.5469C30.1202 32.5469 28.625 34.0496 28.625 35.9033C28.625 37.757 30.1202 39.2597 31.9645 39.2597Z" fill="#2F2E41"/>
<path d="M43.8657 25.2269L44.9814 24.2865C45.1203 24.1694 45.2337 24.0248 45.3145 23.8616C45.3953 23.6985 45.4418 23.5204 45.4511 23.3384C45.4603 23.1564 45.4321 22.9745 45.3682 22.804C45.3043 22.6334 45.2062 22.478 45.0798 22.3473C44.9261 22.1882 44.7351 22.0704 44.5243 22.0048C44.3136 21.9391 44.0898 21.9276 43.8735 21.9714C43.6572 22.0152 43.4553 22.1128 43.2863 22.2553C43.1172 22.3979 42.9865 22.5808 42.906 22.7873L42.3736 24.1549L38.1105 31.5103L35.9434 37.4732L37.6842 39.5799L40.0289 32.2957L43.8657 25.2269Z" fill="#ED9DA0"/>
<path d="M20.1339 25.2269L19.0183 24.2865C18.8793 24.1694 18.7659 24.0248 18.6851 23.8616C18.6043 23.6985 18.5578 23.5204 18.5486 23.3384C18.5394 23.1564 18.5676 22.9745 18.6314 22.804C18.6953 22.6334 18.7935 22.478 18.9198 22.3473C19.0736 22.1882 19.2646 22.0704 19.4753 22.0048C19.6861 21.9391 19.9098 21.9276 20.1261 21.9714C20.3424 22.0152 20.5444 22.1128 20.7134 22.2553C20.8824 22.3979 21.0132 22.5808 21.0936 22.7873L21.6261 24.1549L25.8892 31.5103L28.2693 37.5446L26.3154 39.5797L23.9708 32.2956L20.1339 25.2269Z" fill="#ED9DA0"/>
<path d="M32.1056 34.2597C33.0473 34.2597 33.8108 33.4924 33.8108 32.5458C33.8108 31.5993 33.0473 30.832 32.1056 30.832C31.1638 30.832 30.4004 31.5993 30.4004 32.5458C30.4004 33.4924 31.1638 34.2597 32.1056 34.2597Z" fill="#090814"/>
<path d="M32.2484 86.1771L30.7207 86.0701L30.7917 65.1465L34.5575 66.0753L32.2484 86.1771Z" fill="#ED9DA0"/>
<path d="M30.5349 91.3789C30.2326 91.3722 29.9395 91.2729 29.6949 91.0942C29.4503 90.9156 29.2658 90.6662 29.166 90.3793C28.8337 89.3982 29.0055 88.4648 29.584 87.5696L29.3949 86.2398C29.365 86.0296 29.3805 85.8155 29.4403 85.6119C29.5001 85.4083 29.6028 85.22 29.7414 85.0598L30.7209 83.9277V85.3559C31.4378 84.7257 31.8798 84.7029 32.4972 85.2131L31.928 88.1408L32.0668 89.7449C32.085 89.9562 32.0587 90.1689 31.9894 90.3692C31.9201 90.5695 31.8095 90.7528 31.6647 90.9071C31.52 91.0614 31.3445 91.1832 31.1496 91.2645C30.9547 91.3458 30.745 91.3848 30.5341 91.3789H30.5349Z" fill="#090814"/>
<path d="M34.6989 43.7224L28.7305 43.5797C29.5762 42.7535 30.7874 39.5853 30.5779 38.6523H33.491C33.1414 39.6125 33.8182 42.874 34.6989 43.7224Z" fill="#ED9DA0"/>
<path d="M36.2619 54.7202L28.0198 52.2922L28.304 48.7216L27.5937 45.0806C27.6662 44.6854 25.7902 39.805 25.8885 39.439C26.2809 37.977 27.3087 38.179 28.0556 37.1182C28.1769 36.9459 29.1235 38.1574 29.7357 38.9759C29.8083 39.102 29.8583 39.1877 29.8926 39.2456C30.123 39.6364 30.2231 40.0909 30.1785 40.5429V40.5507C29.843 41.7176 30.6137 41.2392 31.8221 41.2594C32.8473 41.2765 33.776 42.0929 33.776 41.0625C33.7744 41.0042 33.7718 40.9431 33.769 40.8804C33.7487 40.353 33.8732 39.8302 34.129 39.3693C34.2279 39.1735 34.337 38.9832 34.4558 38.7989C35.1493 37.8135 36.1041 36.504 36.1562 36.6896C36.3752 37.471 37.5019 38.1274 37.897 39.5104C37.9578 39.7232 37.5917 41.0153 37.6128 41.2242C37.7711 42.7904 37.4708 43.6522 37.3286 44.8661C36.4454 48.0713 36.0851 51.3992 36.2619 54.7202Z" fill="#25652C"/>
<path d="M35.1252 66.931L30.4357 65.5029L30.3647 61.2183L26.6699 54.0772L28.0909 51.7207L36.1908 53.8631C36.7437 57.4225 36.1345 62.0014 35.1252 66.931Z" fill="#090814"/>
<path d="M32.9239 61.2171H30.3658L25.6055 54.5045L27.3107 53.0762L32.9239 61.2171Z" fill="#2F2E41"/>
<path d="M34.1307 61.1471H29.8804C28.8722 61.1488 27.8867 60.8461 27.0516 60.2783C26.1549 59.6561 25.5138 58.7276 25.2475 57.6657C24.9813 56.6038 25.1081 55.4808 25.6044 54.5059L34.1307 54.9343V61.1471Z" fill="#090814"/>
<path d="M30.4124 56.3341L26.6708 56.22C26.6567 56.1843 26.6434 56.1484 26.6309 56.1125C26.1333 54.6881 26.8815 53.1396 28.266 52.5541C28.4055 52.4952 28.547 52.4401 28.6916 52.3912C29.0254 52.2741 29.382 52.2382 29.7323 52.2865C30.0825 52.3348 30.4164 52.4659 30.7064 52.6691C30.9964 52.8723 31.2343 53.1417 31.4006 53.4553C31.5669 53.7688 31.6568 54.1175 31.663 54.4728C31.6668 54.7589 31.6491 55.0449 31.6099 55.3283C31.5685 55.6146 31.4234 55.8755 31.2026 56.061C30.9817 56.2466 30.7006 56.3438 30.4129 56.3341H30.4124Z" fill="#ED9DA0"/>
<path d="M28.3767 67.7878H26.8851L26.6719 55.6475L30.8641 55.5762L28.3767 67.7878Z" fill="#ED9DA0"/>
<path d="M26.697 73.123C26.3947 73.1163 26.1017 73.017 25.857 72.8384C25.6124 72.6598 25.4279 72.4103 25.3281 72.1235C24.9959 71.1423 25.1676 70.2089 25.7461 69.3138L25.557 67.9839C25.5272 67.7737 25.5427 67.5596 25.6024 67.356C25.6622 67.1524 25.7649 66.9641 25.9035 66.8039L26.883 65.6719V67.1C27.6 66.4699 28.0419 66.4471 28.6594 66.9573L28.0909 69.8851L28.2297 71.4892C28.248 71.7005 28.2216 71.9132 28.1523 72.1135C28.083 72.3138 27.9724 72.4971 27.8277 72.6514C27.6829 72.8057 27.5074 72.9275 27.3125 73.0088C27.1177 73.0901 26.9079 73.1291 26.697 73.1232V73.123Z" fill="#090814"/>
<path d="M32.0713 39.7229C33.6802 39.7229 34.9844 38.412 34.9844 36.795C34.9844 35.178 33.6802 33.8672 32.0713 33.8672C30.4625 33.8672 29.1582 35.178 29.1582 36.795C29.1582 38.412 30.4625 39.7229 32.0713 39.7229Z" fill="#ED9DA0"/>
<path d="M34.6285 35.5094C34.6285 37.0086 33.2776 34.8667 31.7864 34.8667C30.2952 34.8667 29.2285 37.0081 29.2285 35.5094C29.2395 34.7971 29.5288 34.1177 30.0338 33.6179C30.5389 33.118 31.2193 32.8379 31.9281 32.8379C32.6369 32.8379 33.3173 33.118 33.8224 33.6179C34.3275 34.1177 34.6167 34.7971 34.6277 35.5094H34.6285Z" fill="#090814"/>
<path d="M10.6211 23.0098H57.3167" stroke="#090814" stroke-width="5" stroke-linecap="round"/>
<path d="M60.8419 93.1139H3.14062V92.5762H60.8685L60.8419 93.1139Z" fill="#F2F2F2"/>
<path d="M22.6994 11.8477H30.482C30.826 11.8477 31.156 11.985 31.3992 12.2295C31.6425 12.474 31.7791 12.8056 31.7791 13.1513C31.7791 13.4971 31.6425 13.8286 31.3992 14.0731C31.156 14.3176 30.826 14.455 30.482 14.455H22.6994C22.3554 14.455 22.0255 14.3176 21.7823 14.0731C21.539 13.8286 21.4023 13.4971 21.4023 13.1513C21.4023 12.8056 21.539 12.474 21.7823 12.2295C22.0255 11.985 22.3554 11.8477 22.6994 11.8477Z" fill="#25652C"/>
<path d="M33.7248 11.8477H41.5074C41.8514 11.8477 42.1814 11.985 42.4246 12.2295C42.6679 12.474 42.8045 12.8056 42.8045 13.1513C42.8045 13.4971 42.6679 13.8286 42.4246 14.0731C42.1814 14.3176 41.8514 14.455 41.5074 14.455H33.7248C33.3808 14.455 33.0509 14.3176 32.8076 14.0731C32.5644 13.8286 32.4277 13.4971 32.4277 13.1513C32.4277 12.8056 32.5644 12.474 32.8076 12.2295C33.0509 11.985 33.3808 11.8477 33.7248 11.8477Z" fill="#E6E6E6"/>
<path d="M9.24241 102.125H25.1319C25.4759 102.125 25.8058 102.262 26.0491 102.507C26.2923 102.751 26.429 103.083 26.429 103.429C26.429 103.774 26.2923 104.106 26.0491 104.35C25.8058 104.595 25.4759 104.732 25.1319 104.732H9.24241C8.8984 104.732 8.56848 104.595 8.32522 104.35C8.08197 104.106 7.94531 103.774 7.94531 103.429C7.94531 103.083 8.08197 102.751 8.32522 102.507C8.56848 102.262 8.8984 102.125 9.24241 102.125Z" fill="#090814"/>
<path d="M29.6721 102.125C29.9286 102.125 30.1794 102.201 30.3927 102.345C30.606 102.488 30.7723 102.692 30.8705 102.93C30.9686 103.168 30.9943 103.43 30.9443 103.683C30.8942 103.936 30.7707 104.168 30.5893 104.35C30.4079 104.533 30.1768 104.657 29.9252 104.707C29.6735 104.758 29.4127 104.732 29.1757 104.633C28.9387 104.534 28.7361 104.367 28.5936 104.153C28.4511 103.939 28.375 103.686 28.375 103.429C28.375 103.083 28.5117 102.751 28.7549 102.507C28.9982 102.262 29.3281 102.125 29.6721 102.125Z" fill="#25652C"/>
<path d="M9.24241 106.035H42.967C43.311 106.035 43.6409 106.173 43.8842 106.417C44.1274 106.661 44.2641 106.993 44.2641 107.339C44.2641 107.685 44.1274 108.016 43.8842 108.261C43.6409 108.505 43.311 108.642 42.967 108.642H9.24241C8.8984 108.642 8.56848 108.505 8.32522 108.261C8.08197 108.016 7.94531 107.685 7.94531 107.339C7.94531 106.993 8.08197 106.661 8.32522 106.417C8.56848 106.173 8.8984 106.035 9.24241 106.035Z" fill="#E6E6E6"/>
<path d="M9.24241 109.947H42.967C43.311 109.947 43.6409 110.085 43.8842 110.329C44.1274 110.574 44.2641 110.905 44.2641 111.251C44.2641 111.597 44.1274 111.928 43.8842 112.173C43.6409 112.417 43.311 112.555 42.967 112.555H9.24241C8.8984 112.555 8.56848 112.417 8.32522 112.173C8.08197 111.928 7.94531 111.597 7.94531 111.251C7.94531 110.905 8.08197 110.574 8.32522 110.329C8.56848 110.085 8.8984 109.947 9.24241 109.947Z" fill="#E6E6E6"/>
<path d="M10.1318 126.322C8.32463 126.072 6.64811 125.236 5.35669 123.941C4.06527 122.646 3.22953 120.963 2.97656 119.147V117.359H61.0297V118.747C60.858 120.641 60.0527 122.422 58.7452 123.797C57.4377 125.173 55.705 126.063 53.8298 126.322H10.1318Z" fill="#090814"/>
<path d="M10.6206 119.887C11.1497 119.887 11.6669 120.044 12.1069 120.34C12.5468 120.635 12.8897 121.055 13.0922 121.547C13.2947 122.038 13.3477 122.578 13.2444 123.1C13.1412 123.622 12.8864 124.101 12.5123 124.477C12.1381 124.853 11.6614 125.109 11.1425 125.213C10.6235 125.316 10.0856 125.263 9.5968 125.06C9.10796 124.856 8.69014 124.511 8.39618 124.069C8.10221 123.627 7.94531 123.107 7.94531 122.575C7.94531 121.862 8.22717 121.178 8.72888 120.674C9.23059 120.17 9.91105 119.887 10.6206 119.887Z" fill="#25652C"/>
<path d="M21.1596 119.887C21.6888 119.887 22.206 120.044 22.6459 120.34C23.0859 120.635 23.4288 121.055 23.6313 121.547C23.8338 122.038 23.8867 122.578 23.7835 123.1C23.6803 123.622 23.4255 124.101 23.0513 124.477C22.6772 124.853 22.2005 125.109 21.6816 125.213C21.1626 125.316 20.6247 125.263 20.1359 125.06C19.647 124.856 19.2292 124.511 18.9352 124.069C18.6413 123.627 18.4844 123.107 18.4844 122.575C18.4844 121.862 18.7662 121.178 19.2679 120.674C19.7697 120.17 20.4501 119.887 21.1596 119.887Z" fill="#3F3D56"/>
<path d="M31.8608 119.887C32.3899 119.887 32.9072 120.044 33.3471 120.34C33.7871 120.635 34.13 121.055 34.3324 121.547C34.5349 122.038 34.5879 122.578 34.4847 123.1C34.3815 123.622 34.1267 124.101 33.7525 124.477C33.3784 124.853 32.9017 125.109 32.3827 125.213C31.8638 125.316 31.3259 125.263 30.837 125.06C30.3482 124.856 29.9304 124.511 29.6364 124.069C29.3424 123.627 29.1855 123.107 29.1855 122.575C29.1855 121.862 29.4674 121.178 29.9691 120.674C30.4708 120.17 31.1513 119.887 31.8608 119.887Z" fill="#3F3D56"/>
<path d="M52.9389 119.887C53.4681 119.887 53.9853 120.044 54.4252 120.34C54.8652 120.635 55.2081 121.055 55.4106 121.547C55.613 122.038 55.666 122.578 55.5628 123.1C55.4596 123.622 55.2048 124.101 54.8306 124.477C54.4565 124.853 53.9798 125.109 53.4609 125.213C52.9419 125.316 52.404 125.263 51.9152 125.06C51.4263 124.856 51.0085 124.511 50.7145 124.069C50.4206 123.627 50.2637 123.107 50.2637 122.575C50.2637 121.862 50.5455 121.178 51.0472 120.674C51.5489 120.17 52.2294 119.887 52.9389 119.887Z" fill="#3F3D56"/>
<path d="M42.3999 119.887C42.929 119.887 43.4462 120.044 43.8862 120.34C44.3261 120.635 44.669 121.055 44.8715 121.547C45.074 122.038 45.127 122.578 45.0237 123.1C44.9205 123.622 44.6657 124.101 44.2916 124.477C43.9174 124.853 43.4407 125.109 42.9218 125.213C42.4028 125.316 41.8649 125.263 41.3761 125.06C40.8873 124.856 40.4694 124.511 40.1755 124.069C39.8815 123.627 39.7246 123.107 39.7246 122.575C39.7246 121.862 40.0065 121.178 40.5082 120.674C41.0099 120.17 41.6904 119.887 42.3999 119.887Z" fill="#3F3D56"/>
<path d="M53.2612 108.643C53.7903 108.643 54.3076 108.8 54.7475 109.096C55.1874 109.391 55.5303 109.811 55.7328 110.302C55.9353 110.794 55.9883 111.334 55.8851 111.856C55.7818 112.377 55.527 112.857 55.1529 113.233C54.7788 113.609 54.3021 113.865 53.7831 113.968C53.2642 114.072 52.7263 114.019 52.2374 113.815C51.7486 113.612 51.3308 113.267 51.0368 112.825C50.7428 112.383 50.5859 111.863 50.5859 111.331C50.5859 110.618 50.8678 109.934 51.3695 109.43C51.8712 108.926 52.5517 108.643 53.2612 108.643Z" fill="#25652C"/>
<path d="M53.2612 101.961C53.7903 101.961 54.3076 102.119 54.7475 102.414C55.1874 102.71 55.5303 103.129 55.7328 103.621C55.9353 104.112 55.9883 104.653 55.8851 105.174C55.7818 105.696 55.527 106.175 55.1529 106.551C54.7788 106.927 54.3021 107.183 53.7831 107.287C53.2642 107.391 52.7263 107.337 52.2374 107.134C51.7486 106.93 51.3308 106.586 51.0368 106.144C50.7428 105.701 50.5859 105.182 50.5859 104.65C50.5859 103.937 50.8678 103.253 51.3695 102.748C51.8712 102.244 52.5517 101.961 53.2612 101.961Z" fill="#E6E6E6"/>
<path d="M53.2612 95.2812C53.7903 95.2812 54.3076 95.4389 54.7475 95.7344C55.1874 96.0298 55.5303 96.4498 55.7328 96.9411C55.9353 97.4324 55.9883 97.973 55.8851 98.4946C55.7818 99.0162 55.527 99.4952 55.1529 99.8713C54.7788 100.247 54.3021 100.503 53.7831 100.607C53.2642 100.711 52.7263 100.658 52.2374 100.454C51.7486 100.251 51.3308 99.906 51.0368 99.4638C50.7428 99.0217 50.5859 98.5018 50.5859 97.97C50.5859 97.2569 50.8678 96.573 51.3695 96.0688C51.8712 95.5645 52.5517 95.2812 53.2612 95.2812Z" fill="#E6E6E6"/>
<path d="M53.3425 66.7637C54.1121 66.7637 54.8644 66.993 55.5044 67.4228C56.1443 67.8525 56.643 68.4633 56.9376 69.178C57.2321 69.8926 57.3091 70.679 57.159 71.4376C57.0088 72.1963 56.6382 72.8931 56.094 73.4401C55.5498 73.987 54.8565 74.3595 54.1016 74.5104C53.3468 74.6613 52.5644 74.5839 51.8533 74.2879C51.1423 73.9919 50.5346 73.4906 50.107 72.8474C49.6794 72.2043 49.4512 71.4481 49.4512 70.6746C49.4512 69.6374 49.8611 68.6426 50.5909 67.9092C51.3207 67.1757 52.3104 66.7637 53.3425 66.7637Z" fill="#25652C"/>
<path d="M53.3441 72.6289C53.7289 72.6289 54.1051 72.7436 54.425 72.9585C54.745 73.1733 54.9944 73.4787 55.1416 73.8361C55.2889 74.1934 55.3274 74.5865 55.2523 74.9659C55.1773 75.3452 54.992 75.6936 54.7199 75.9671C54.4478 76.2406 54.1011 76.4268 53.7237 76.5023C53.3462 76.5777 52.955 76.539 52.5995 76.391C52.244 76.243 51.9401 75.9924 51.7263 75.6708C51.5125 75.3492 51.3984 74.9711 51.3984 74.5844C51.3984 74.0658 51.6034 73.5684 51.9683 73.2017C52.3332 72.8349 52.8281 72.6289 53.3441 72.6289Z" fill="#FE6583"/>
<path d="M53.1961 75.4307C53.1225 75.2538 53.1961 74.7234 53.1961 74.7234C53.1961 74.7234 52.6761 74.793 52.503 74.7234C52.3298 74.6538 52.3297 74.5147 52.503 74.4451C52.6763 74.3755 53.1961 74.4451 53.1961 74.4451C53.1961 74.4451 53.1225 73.916 53.1961 73.7397C53.2697 73.5633 53.4169 73.5633 53.4904 73.7397C53.5638 73.916 53.4904 74.4451 53.4904 74.4451C53.4904 74.4451 54.0104 74.3755 54.1835 74.4451C54.3567 74.5147 54.3569 74.6538 54.1835 74.7234C54.0102 74.793 53.4904 74.7234 53.4904 74.7234C53.4904 74.7234 53.564 75.2538 53.4904 75.4307C53.4168 75.6075 53.2697 75.6075 53.1961 75.4307Z" fill="#F2F2F2"/>
</svg>
