<svg width="165" height="129" viewBox="0 0 165 129" fill="none" xmlns="http://www.w3.org/2000/svg">
<g clip-path="url(#clip0_551_15021)">
<path d="M46.477 60.6977L56.6245 52.1432C56.9714 51.8501 57.1876 51.4317 57.2258 50.9796C57.2639 50.5276 57.1209 50.0789 56.8281 49.732L54.9615 47.5242C54.6679 47.178 54.2486 46.9621 53.7958 46.924C53.3429 46.8859 52.8934 47.0287 52.5459 47.321L42.3984 55.8755C42.0515 56.1686 41.8352 56.587 41.7971 57.0391C41.7589 57.4911 41.902 57.9398 42.1948 58.2867L44.0626 60.4945C44.3562 60.8403 44.7752 61.056 45.2277 61.0941C45.6803 61.1321 46.1295 60.9896 46.477 60.6977Z" fill="#3F3D56"/>
<path d="M56.0927 49.9094C56.2504 50.0964 56.3275 50.3381 56.3069 50.5817C56.2863 50.8253 56.1698 51.0507 55.9829 51.2087L45.8354 59.7631C45.6482 59.9206 45.4059 59.9975 45.1619 59.977C44.9179 59.9564 44.692 59.8402 44.5338 59.6536L42.666 57.4458C42.5082 57.2589 42.4312 57.0171 42.4518 56.7735C42.4723 56.53 42.5888 56.3045 42.7757 56.1466L52.9232 47.5921C53.1105 47.4346 53.3527 47.3577 53.5967 47.3783C53.8407 47.3988 54.0666 47.5151 54.2249 47.7016L56.0927 49.9094Z" fill="#F99D27"/>
<path d="M45.5146 56.7801C45.4678 56.7415 45.4306 56.6925 45.4061 56.637C45.3816 56.5815 45.3704 56.5211 45.3734 56.4605L45.4492 54.8706C45.4504 54.8187 45.462 54.7676 45.4834 54.7202C45.5047 54.6728 45.5353 54.6302 45.5734 54.5948C45.6114 54.5594 45.6562 54.532 45.7051 54.5141C45.7539 54.4962 45.8058 54.4883 45.8578 54.4907C45.9098 54.4932 45.9607 54.5059 46.0077 54.5283C46.0546 54.5507 46.0966 54.5822 46.1312 54.621C46.1658 54.6598 46.1922 54.7051 46.209 54.7543C46.2258 54.8034 46.2325 54.8554 46.2289 54.9072L46.1802 55.9482L48.9562 55.1141C49.0548 55.086 49.1605 55.0978 49.2506 55.1469C49.3406 55.196 49.4076 55.2785 49.4371 55.3765C49.4667 55.4746 49.4564 55.5803 49.4085 55.6708C49.3606 55.7614 49.2789 55.8294 49.1811 55.8603L45.8758 56.8529C45.816 56.8708 45.7528 56.8742 45.6915 56.8627C45.6301 56.8512 45.5724 56.8252 45.5232 56.7869L45.5146 56.7801Z" fill="white"/>
<path d="M51.5093 49.4736C51.4888 49.4578 51.4728 49.4369 51.4629 49.413C51.453 49.389 51.4496 49.3629 51.4531 49.3373C51.4565 49.3117 51.4667 49.2874 51.4825 49.2669C51.4983 49.2465 51.5193 49.2305 51.5433 49.2207C51.9154 49.0816 52.3182 49.0448 52.7096 49.1141C53.1009 49.1834 53.4666 49.3563 53.7683 49.6147C54.1713 49.9124 54.4685 50.3308 54.6166 50.8088C54.6966 51.0845 54.726 51.3723 54.7033 51.6583C54.7022 51.6775 54.6974 51.6964 54.689 51.7137C54.6806 51.7311 54.6689 51.7466 54.6545 51.7594C54.64 51.7722 54.6232 51.782 54.605 51.7883C54.5867 51.7946 54.5674 51.7972 54.5482 51.796L54.5473 51.7966C54.5079 51.7938 54.4712 51.7757 54.4451 51.746C54.4191 51.7164 54.4058 51.6777 54.4082 51.6383C54.4398 51.2942 54.3808 50.9477 54.2371 50.6332C54.0934 50.3187 53.87 50.047 53.5889 49.8451C52.7284 49.178 51.9499 49.3778 51.6559 49.494C51.6319 49.5041 51.6056 49.5076 51.5798 49.504C51.554 49.5004 51.5296 49.4899 51.5093 49.4736Z" fill="white"/>
<path d="M51.7135 53.2781C51.7036 53.2706 51.6947 53.2618 51.687 53.2521C51.1132 52.5218 51.4061 51.597 51.4178 51.5595L51.4213 51.5515C51.4315 51.5263 51.672 50.9235 52.1153 50.8042C52.2219 50.779 52.333 50.7798 52.4392 50.8066C52.5455 50.8334 52.6437 50.8853 52.7255 50.9581C52.8091 51.0132 52.878 51.0879 52.9261 51.1756C52.9742 51.2634 53 51.3615 53.0014 51.4615C52.9899 51.6177 52.9465 51.7699 52.8737 51.9087C52.7446 52.2032 52.689 52.3674 52.9381 52.5817C52.9824 52.6183 53.0354 52.6431 53.0919 52.6536C53.1485 52.6642 53.2068 52.6602 53.2613 52.6421C53.3928 52.5929 53.5105 52.513 53.6047 52.4091C53.6988 52.3052 53.7667 52.1803 53.8026 52.0448C53.8944 51.7291 53.8911 51.3933 53.7933 51.0792C53.6955 50.7651 53.5075 50.4865 53.2525 50.2781C52.9678 50.0524 52.6125 49.9342 52.2492 49.9445C51.9478 49.9555 51.6556 50.0504 51.4055 50.2183C50.9628 50.5239 50.6364 51.2902 50.6344 51.2966C50.6269 51.3143 50.6161 51.3302 50.6024 51.3437C50.5887 51.3571 50.5726 51.3677 50.5548 51.3749C50.537 51.382 50.518 51.3856 50.4989 51.3855C50.4797 51.3853 50.4607 51.3813 50.4431 51.3739L50.4423 51.3727C50.4061 51.3574 50.3775 51.3285 50.3625 51.2923C50.3476 51.256 50.3475 51.2154 50.3623 51.1792C50.3767 51.1449 50.7237 50.328 51.2352 49.9748C51.488 49.8034 51.779 49.6966 52.0828 49.6636C52.3867 49.6307 52.694 49.6726 52.9779 49.7857C53.2618 49.8988 53.5137 50.0797 53.7114 50.3125C53.9091 50.5453 54.0467 50.8229 54.112 51.121C54.1879 51.4543 54.179 51.8013 54.0862 52.1302C54.0366 52.3125 53.9433 52.4799 53.8142 52.6179C53.6851 52.7559 53.5242 52.8604 53.3455 52.9222C53.2437 52.9543 53.1353 52.9601 53.0306 52.939C52.9259 52.9179 52.8283 52.8705 52.7469 52.8014C52.3205 52.435 52.4836 52.0606 52.6027 51.7874C52.7247 51.5071 52.7746 51.3654 52.5455 51.1877C52.4993 51.1438 52.4432 51.1118 52.382 51.0942C52.3207 51.0766 52.2562 51.074 52.1937 51.0866C52.0433 51.1466 51.9178 51.2558 51.8375 51.3962L51.835 51.3999C51.7353 51.5509 51.6712 51.7224 51.6476 51.9017C51.6129 52.1052 51.619 52.3136 51.6656 52.5147C51.7122 52.7159 51.7983 52.9058 51.9189 53.0735C51.9309 53.0885 51.9398 53.1057 51.9451 53.1241C51.9505 53.1425 51.9521 53.1618 51.95 53.1808C51.9478 53.1998 51.942 53.2183 51.9327 53.235C51.9234 53.2518 51.9109 53.2666 51.8959 53.2785L51.8947 53.2793C51.8686 53.299 51.8367 53.3095 51.8039 53.3093C51.7712 53.309 51.7394 53.2981 51.7135 53.2781Z" fill="white"/>
<path d="M50.8404 52.5174C50.8244 52.5051 50.8111 52.4896 50.8012 52.4719C50.7914 52.4542 50.7852 52.4348 50.7831 52.4147C50.7291 51.9082 50.8407 51.3979 51.1013 50.9602L51.1038 50.9585C51.21 50.7728 51.3531 50.6108 51.5243 50.4825C51.6955 50.3541 51.8912 50.2621 52.0994 50.212C52.2744 50.1843 52.4533 50.1951 52.6237 50.2435C52.7942 50.2919 52.952 50.3768 53.0862 50.4923C53.2664 50.6245 53.4053 50.805 53.4868 51.0128C53.5683 51.2207 53.5891 51.4473 53.5468 51.6663C53.511 51.8843 53.4357 52.0939 53.3246 52.2848C53.3037 52.3182 53.2705 52.3419 53.2321 52.3508C53.1937 52.3597 53.1533 52.353 53.1199 52.3322C53.0864 52.3114 53.0626 52.2781 53.0537 52.2398C53.0448 52.2015 53.0514 52.1612 53.0723 52.1278C53.1647 51.9676 53.2271 51.7918 53.2564 51.6092C53.2887 51.4435 53.273 51.272 53.2109 51.1148C53.1489 50.9577 53.0431 50.8215 52.9061 50.7224C52.8044 50.6333 52.6846 50.5673 52.5549 50.529C52.4251 50.4908 52.2886 50.4811 52.1548 50.5007C51.988 50.5436 51.8314 50.6194 51.6944 50.7236C51.5574 50.8279 51.4426 50.9584 51.3569 51.1076C51.1266 51.493 51.0281 51.9427 51.0761 52.389C51.078 52.408 51.0761 52.4272 51.0706 52.4454C51.0651 52.4637 51.056 52.4807 51.0438 52.4954C51.0317 52.5102 51.0168 52.5224 50.9999 52.5314C50.9831 52.5403 50.9646 52.5459 50.9456 52.5478L50.9433 52.5481C50.9064 52.5509 50.8697 52.54 50.8404 52.5174Z" fill="white"/>
<path d="M52.0648 51.7193C52.1248 51.8048 52.2429 51.8256 52.3285 51.7657C52.4141 51.7058 52.4349 51.588 52.3748 51.5025C52.3148 51.417 52.1967 51.3962 52.1111 51.4561C52.0255 51.516 52.0048 51.6338 52.0648 51.7193Z" fill="white"/>
<path d="M44.9224 119.766H40.9133V125.04H44.9224V119.766Z" fill="#ED9DA0"/>
<path d="M41.5977 128.68H50.1195C50.8522 128.679 51.5755 128.514 52.2363 128.198L53.8071 127.445C53.98 127.362 54.1234 127.228 54.2182 127.061C54.313 126.895 54.3546 126.703 54.3375 126.512C54.3205 126.322 54.2455 126.14 54.1226 125.993C53.9998 125.846 53.8349 125.74 53.6499 125.688L50.4083 124.793L44.8641 121.885L44.8599 121.905C44.7568 122.43 44.5957 123.222 44.5751 123.27C44.0065 123.92 43.4224 124.219 42.8389 124.16C41.8213 124.058 41.1448 122.884 41.1382 122.873L41.133 122.864L41.1227 122.865C41.0193 122.869 40.9183 122.897 40.8274 122.946C40.7366 122.996 40.6584 123.066 40.5988 123.15C40.3666 123.5 40.5083 124.037 40.5316 124.119C40.2535 124.39 40.1288 125.907 40.1191 126.029C39.7171 126.455 39.5261 126.863 39.5513 127.244C39.5728 127.427 39.633 127.604 39.7278 127.762C39.8227 127.921 39.95 128.058 40.1015 128.163C40.5265 128.501 41.0545 128.684 41.5977 128.68V128.68Z" fill="#090814"/>
<path d="M12.9952 122.425L16.8447 123.543L18.3207 118.478L14.4712 117.361L12.9952 122.425Z" fill="#ED9DA0"/>
<path d="M12.6346 126.111L20.8174 128.487C21.5212 128.69 22.2617 128.734 22.9846 128.615L24.7041 128.329C24.8932 128.297 25.068 128.209 25.2053 128.075C25.3426 127.942 25.4359 127.77 25.4728 127.582C25.5097 127.394 25.4884 127.199 25.4118 127.024C25.3351 126.849 25.2068 126.701 25.0438 126.6L22.1825 124.837L17.6721 120.498L17.6623 120.516C17.4169 120.99 17.0395 121.706 17.0071 121.747C16.2792 122.212 15.6345 122.337 15.0908 122.117C14.1421 121.735 13.8214 120.42 13.8181 120.407L13.8156 120.396L13.8055 120.395C13.705 120.37 13.6002 120.369 13.4991 120.391C13.3981 120.413 13.3035 120.458 13.2226 120.522C12.9017 120.793 12.8875 121.349 12.887 121.434C12.5441 121.617 12.0002 123.038 11.9564 123.153C11.4513 123.449 11.1537 123.788 11.0714 124.161C11.0409 124.344 11.0494 124.53 11.0962 124.709C11.143 124.887 11.2271 125.054 11.3431 125.198C11.6566 125.64 12.1124 125.963 12.6348 126.111L12.6346 126.111Z" fill="#090814"/>
<path d="M25.8887 24.9767C25.889 23.7743 26.2231 22.5955 26.854 21.5712C27.4849 20.5468 28.3878 19.7171 29.4625 19.174C30.5373 18.6309 31.7418 18.3958 32.9423 18.4947C34.1429 18.5936 35.2925 19.0227 36.2635 19.7344C37.2345 20.446 37.9889 21.4123 38.4429 22.5261C38.897 23.6398 39.033 24.8573 38.8357 26.0435C38.6385 27.2297 38.1157 28.3381 37.3255 29.2457C36.5353 30.1533 35.5086 30.8245 34.3594 31.1848L33.0994 39.4966L26.6763 34.1546C27.5522 33.0042 28.2695 31.7418 28.809 30.4011C27.9113 29.8084 27.1748 29.0028 26.6654 28.0564C26.1561 27.11 25.8897 26.0523 25.8901 24.978L25.8887 24.9767Z" fill="#ED9DA0"/>
<path d="M23.3164 57.0869L22.3755 43.9392C22.2938 42.799 22.4382 41.6539 22.8004 40.5695L25.5893 32.2207L33.8017 34.8536L37.2667 42.7668L39.1539 46.2205C39.5722 46.986 39.7309 47.8661 39.6064 48.7292C39.4819 49.5922 39.0809 50.3919 38.4632 51.0085L37.267 52.2026L38.9347 58.3084L38.7592 58.3022L38.9945 58.3326C38.9945 58.3326 50.1448 91.8155 49.7447 120.291H35.4328L34.5832 87.2366L32.0973 121.574L13.2378 120.49L23.3158 57.0869H23.3164Z" fill="#25652C"/>
<path d="M23.796 33.5261C23.796 33.5261 24.1005 35.8318 26.9203 35.9064L32.6402 36.0591C32.6402 36.0591 27.8049 24.3132 29.794 25.6364C31.7831 26.9595 37.0841 21.4121 37.0841 21.4121L38.6485 24.3406C38.6485 24.3406 42.3851 22.9897 38.2438 19.6817C38.2438 19.6817 33.3017 15.8675 28.0551 18.1582C22.8085 20.449 23.796 33.5261 23.796 33.5261Z" fill="#090814"/>
<path d="M46.9271 59.6795C47.0026 58.2116 45.625 56.948 43.8484 56.8559C43.3853 56.8235 42.9204 56.8835 42.4807 57.0322C42.0411 57.181 41.6355 57.4156 41.2876 57.7225L41.2463 57.7204L30.7146 56.6317L31.5045 46.1983C31.7968 44.1807 31.2292 42.1461 29.2381 41.6897C28.6612 41.5572 28.0617 41.5566 27.4845 41.6879C26.9074 41.8193 26.3674 42.0793 25.9051 42.4484C25.4428 42.8174 25.0701 43.2861 24.8149 43.8192C24.5596 44.3524 24.4285 44.9363 24.4312 45.5271L24.4914 58.6691C24.4933 59.1131 24.5828 59.5525 24.755 59.962C24.9272 60.3715 25.1787 60.743 25.495 61.0553C25.8112 61.3677 26.1861 61.6146 26.5982 61.7821C27.0102 61.9496 27.4513 62.0343 27.8962 62.0314L41.1135 61.0455C41.4278 61.3865 41.807 61.6618 42.229 61.8551C42.6509 62.0484 43.1072 62.1559 43.5712 62.1714C45.348 62.2632 46.8506 61.1474 46.9259 59.6803L46.9271 59.6795Z" fill="#ED9DA0"/>
<path d="M32.5185 41.5908L31.884 53.4944L23.0693 52.8974L24.6282 40.5176" fill="#E6E6E6"/>
<path d="M65.1111 128.926L0.284009 128.999C0.208686 128.999 0.136446 128.969 0.0831848 128.916C0.0299233 128.862 0 128.79 0 128.715C0 128.64 0.0299233 128.568 0.0831848 128.515C0.136446 128.462 0.208686 128.432 0.284009 128.432L65.1111 128.359C65.1864 128.359 65.2587 128.389 65.312 128.442C65.3652 128.496 65.3952 128.568 65.3952 128.643C65.3952 128.718 65.3652 128.79 65.312 128.843C65.2587 128.897 65.1864 128.927 65.1111 128.927V128.926Z" fill="#E6E6E6"/>
<path d="M151.664 42.9384H58.883C58.0522 42.9334 57.2573 42.5997 56.6727 42.0105C56.0881 41.4212 55.7615 40.6246 55.7647 39.7953V3.14245C55.7617 2.31328 56.0883 1.51679 56.6729 0.927683C57.2575 0.338577 58.0523 0.00495559 58.883 0H151.664C152.494 0.00500991 153.289 0.338683 153.874 0.927828C154.458 1.51697 154.785 2.31349 154.782 3.14266V39.7953C154.785 40.6245 154.458 41.421 153.874 42.0101C153.289 42.5993 152.494 42.933 151.664 42.938V42.9384Z" fill="#090814"/>
<path d="M151.325 42.5763H59.2226C58.4019 42.5753 57.6151 42.2495 57.0348 41.6703C56.4545 41.091 56.1281 40.3057 56.1272 39.4865V3.45087C56.1282 2.63174 56.4546 1.84644 57.0349 1.26724C57.6152 0.68805 58.402 0.362254 59.2226 0.361328H151.325C152.146 0.362254 152.932 0.688078 153.513 1.26732C154.093 1.84656 154.419 2.63191 154.42 3.45107V39.4865C154.419 40.3057 154.093 41.091 153.513 41.6703C152.932 42.2495 152.146 42.5753 151.325 42.5763Z" fill="#F2F2F2"/>
<path d="M129.845 40.6064H73.8421C69.6689 40.602 65.6678 38.9452 62.7168 35.9996C59.7659 33.0541 58.106 29.0603 58.1016 24.8946V18.046C58.106 13.8803 59.7658 9.8865 62.7167 6.94089C65.6677 3.99527 69.6688 2.33845 73.8421 2.33398H136.705C140.878 2.33845 144.879 3.99527 147.83 6.94089C150.781 9.8865 152.441 13.8803 152.445 18.046C152.438 24.0272 150.055 29.7614 145.818 33.9908C141.581 38.2202 135.837 40.5994 129.845 40.6064Z" fill="white"/>
<path d="M115.398 12.6485H78.3801C78.2742 12.6502 78.169 12.6308 78.0706 12.5915C77.9723 12.5522 77.8827 12.4938 77.8072 12.4197C77.7317 12.3455 77.6718 12.2571 77.6309 12.1596C77.5899 12.062 77.5688 11.9574 77.5688 11.8516C77.5688 11.7459 77.5899 11.6412 77.6309 11.5437C77.6718 11.4462 77.7317 11.3578 77.8072 11.2836C77.8827 11.2094 77.9723 11.151 78.0706 11.1117C78.169 11.0724 78.2742 11.0531 78.3801 11.0548H115.398C115.504 11.0531 115.61 11.0724 115.708 11.1117C115.806 11.151 115.896 11.2094 115.971 11.2836C116.047 11.3578 116.107 11.4462 116.148 11.5437C116.189 11.6412 116.21 11.7459 116.21 11.8516C116.21 11.9574 116.189 12.062 116.148 12.1596C116.107 12.2571 116.047 12.3455 115.971 12.4197C115.896 12.4938 115.806 12.5522 115.708 12.5915C115.61 12.6308 115.504 12.6502 115.398 12.6485Z" fill="#E6E6E6"/>
<path d="M134.138 21.1504H78.3801C78.2742 21.1521 78.169 21.1328 78.0706 21.0935C77.9723 21.0542 77.8827 20.9958 77.8072 20.9216C77.7317 20.8474 77.6718 20.759 77.6309 20.6615C77.5899 20.564 77.5688 20.4593 77.5688 20.3536C77.5688 20.2478 77.5899 20.1432 77.6309 20.0456C77.6718 19.9481 77.7317 19.8597 77.8072 19.7855C77.8827 19.7114 77.9723 19.653 78.0706 19.6137C78.169 19.5744 78.2742 19.555 78.3801 19.5567H134.138C134.244 19.555 134.349 19.5744 134.447 19.6137C134.545 19.653 134.635 19.7114 134.711 19.7855C134.786 19.8597 134.846 19.9481 134.887 20.0456C134.928 20.1432 134.949 20.2478 134.949 20.3536C134.949 20.4593 134.928 20.564 134.887 20.6615C134.846 20.759 134.786 20.8474 134.711 20.9216C134.635 20.9958 134.545 21.0542 134.447 21.0935C134.349 21.1328 134.244 21.1521 134.138 21.1504Z" fill="#E6E6E6"/>
<path d="M134.138 29.6523H78.38C78.1705 29.6489 77.9708 29.5635 77.8238 29.4144C77.6768 29.2653 77.5945 29.0646 77.5945 28.8554C77.5945 28.6463 77.6768 28.4455 77.8238 28.2965C77.9708 28.1474 78.1705 28.062 78.38 28.0586H134.138C134.347 28.062 134.547 28.1474 134.694 28.2965C134.841 28.4455 134.923 28.6463 134.923 28.8554C134.923 29.0646 134.841 29.2653 134.694 29.4144C134.547 29.5635 134.347 29.6489 134.138 29.6523Z" fill="#E6E6E6"/>
<path d="M134.138 29.6523H78.38C78.1705 29.6489 77.9708 29.5635 77.8238 29.4144C77.6768 29.2653 77.5945 29.0646 77.5945 28.8554C77.5945 28.6463 77.6768 28.4455 77.8238 28.2965C77.9708 28.1474 78.1705 28.062 78.38 28.0586H134.138C134.347 28.062 134.547 28.1474 134.694 28.2965C134.841 28.4455 134.923 28.6463 134.923 28.8554C134.923 29.0646 134.841 29.2653 134.694 29.4144C134.547 29.5635 134.347 29.6489 134.138 29.6523Z" fill="#E6E6E6"/>
<path d="M106.259 34.1397C113.269 34.1397 118.951 28.4674 118.951 21.4702C118.951 14.4731 113.269 8.80078 106.259 8.80078C99.2488 8.80078 93.5662 14.4731 93.5662 21.4702C93.5662 28.4674 99.2488 34.1397 106.259 34.1397Z" fill="#F99D27"/>
<mask id="mask0_551_15021" style="mask-type:luminance" maskUnits="userSpaceOnUse" x="93" y="8" width="26" height="27">
<path d="M106.259 34.1397C113.269 34.1397 118.951 28.4674 118.951 21.4702C118.951 14.4731 113.269 8.80078 106.259 8.80078C99.2488 8.80078 93.5662 14.4731 93.5662 21.4702C93.5662 28.4674 99.2488 34.1397 106.259 34.1397Z" fill="white"/>
</mask>
<g mask="url(#mask0_551_15021)">
<path d="M113.751 24.1227L102.397 24.2644C102.184 24.2644 101.979 24.1798 101.828 24.0292C101.677 23.8786 101.593 23.6744 101.593 23.4615V19.7175C101.588 18.9301 101.739 18.1496 102.038 17.4208C102.337 16.692 102.777 16.0294 103.333 15.471C103.889 14.9126 104.55 14.4694 105.279 14.167C106.007 13.8647 106.788 13.709 107.577 13.709C108.366 13.709 109.147 13.8647 109.875 14.167C110.603 14.4694 111.265 14.9126 111.821 15.471C112.377 16.0294 112.817 16.692 113.116 17.4208C113.414 18.1496 113.566 18.9301 113.561 19.7175L114.554 23.3203C114.554 23.5332 114.469 23.7374 114.319 23.888C114.168 24.0386 113.963 24.1232 113.75 24.1232L113.751 24.1227Z" fill="#090814"/>
<path d="M107.528 24.2244C109.817 24.2244 111.672 22.3724 111.672 20.0878C111.672 17.8032 109.817 15.9512 107.528 15.9512C105.239 15.9512 103.384 17.8032 103.384 20.0878C103.384 22.3724 105.239 24.2244 107.528 24.2244Z" fill="#FFB9B9"/>
<path d="M109.605 23.2852C109.605 23.2852 109.532 26.2738 109.824 26.3467C110.117 26.4196 105.808 27.5858 105.808 27.5858L105.37 23.5038L109.605 23.2852Z" fill="#FFB9B9"/>
<path d="M101.01 41.9943C101.757 42.1934 109.136 45.229 112.639 42.1533L115.386 28.6117L112.094 27.5754L110.946 26.181C110.821 26.0298 110.664 25.9085 110.487 25.8261C110.309 25.7437 110.115 25.7024 109.919 25.7052L105.835 25.7598C105.654 25.7624 105.476 25.8023 105.312 25.8769C105.147 25.9515 105 26.0592 104.879 26.1933L103.571 27.6495L100.616 28.3359L101.01 41.9943Z" fill="#F2F2F2"/>
<path d="M114.134 29.668L115.029 28.4785C115.029 28.4785 116.668 28.9084 117.5 31.2531C118.333 33.5978 121.745 52.3296 121.745 52.3296L118.071 54.0325L113.095 37.4776L114.134 29.668Z" fill="#F2F2F2"/>
<path d="M101.93 29.4059L100.692 28.3203C100.692 28.3203 99.3957 28.6468 98.5629 30.9913C97.7301 33.3358 87.1003 49.0542 87.1003 49.0542L90.7749 50.7572L102.969 37.2151L101.93 29.4059Z" fill="#F2F2F2"/>
<path d="M111.846 19.8151H106.054C105.945 19.815 105.84 19.7752 105.758 19.7032C105.677 19.6311 105.624 19.5319 105.611 19.424L105.536 18.8251C105.528 18.7676 105.502 18.7142 105.462 18.6727C105.421 18.6312 105.368 18.6039 105.311 18.5949C105.254 18.586 105.195 18.5958 105.144 18.623C105.093 18.6502 105.052 18.6932 105.027 18.7456L104.647 19.5572C104.611 19.6339 104.554 19.6988 104.482 19.7443C104.41 19.7898 104.327 19.8141 104.242 19.8143H103.363C103.244 19.8145 103.131 19.7677 103.047 19.6844C102.963 19.601 102.916 19.4879 102.916 19.3698C102.916 19.3552 102.916 19.3405 102.918 19.326L103.265 15.7088C103.272 15.6314 103.3 15.5573 103.344 15.4937C103.389 15.4301 103.449 15.3791 103.52 15.3458C104.764 14.7359 106.132 14.4191 107.518 14.4199C108.904 14.4207 110.272 14.7391 111.515 15.3505C111.583 15.3821 111.641 15.43 111.685 15.4897C111.729 15.5494 111.758 15.6192 111.768 15.6927L112.288 19.3052C112.297 19.3684 112.292 19.4328 112.274 19.4941C112.256 19.5554 112.225 19.6121 112.183 19.6604C112.141 19.7087 112.09 19.7474 112.031 19.7738C111.973 19.8003 111.91 19.814 111.846 19.8139L111.846 19.8151Z" fill="#090814"/>
</g>
<path d="M154.752 53.1768C160.412 53.1768 165 48.5971 165 42.9478C165 37.2984 160.412 32.7188 154.752 32.7188C149.092 32.7188 144.504 37.2984 144.504 42.9478C144.504 48.5971 149.092 53.1768 154.752 53.1768Z" fill="#F99D27"/>
<path d="M153.721 47.1412C153.584 47.1412 153.448 47.1092 153.325 47.0478C153.202 46.9864 153.095 46.8972 153.013 46.7873L150.839 43.8956C150.711 43.7073 150.66 43.477 150.698 43.2524C150.735 43.0278 150.858 42.8262 151.04 42.6896C151.223 42.553 151.451 42.4918 151.678 42.5188C151.904 42.5458 152.111 42.6589 152.257 42.8346L153.678 44.7263L157.329 39.2598C157.464 39.0761 157.665 38.9515 157.889 38.9119C158.114 38.8723 158.346 38.9208 158.536 39.0472C158.726 39.1736 158.859 39.3682 158.909 39.5905C158.959 39.8129 158.921 40.0459 158.803 40.241L154.457 46.7466C154.379 46.8642 154.273 46.9614 154.149 47.0299C154.025 47.0983 153.886 47.1362 153.745 47.1402L153.721 47.1412Z" fill="white"/>
<path d="M65.6954 59.2533L65.5611 59.6963C67.003 60.3525 68.4711 60.9882 69.9231 61.5885L70.0085 61.1242C68.5724 60.5312 67.1213 59.9022 65.6954 59.2533ZM74.3542 62.8229L74.3176 63.3062C75.78 63.8481 77.2628 64.3643 78.7256 64.8436L78.7121 64.3426C77.2652 63.8686 75.7982 63.3578 74.3533 62.8224L74.3542 62.8229ZM83.0723 65.6791L83.1348 66.1949C84.5941 66.6111 86.0692 67.0005 87.5188 67.3526L87.4076 66.8238C85.9734 66.4762 84.5145 66.0918 83.0716 65.6795L83.0723 65.6791ZM91.7009 67.7718L91.8604 68.3111C93.2912 68.5958 94.7317 68.8507 96.1419 69.0683L95.935 68.5203C94.5404 68.3049 93.1163 68.0524 91.7011 67.7714L91.7009 67.7718ZM100.092 69.0681L100.345 69.6223C101.726 69.771 103.108 69.8889 104.454 69.9697L104.155 69.412C102.824 69.3316 101.456 69.2145 100.091 69.0679L100.092 69.0681ZM108.108 69.5514L108.452 70.1096C109.758 70.1221 111.06 70.1 112.322 70.0436L111.938 69.4861C110.687 69.5411 109.399 69.563 108.108 69.5509L108.108 69.5514ZM115.62 69.2164L116.048 69.7722C117.26 69.6477 118.46 69.4867 119.616 69.294L119.149 68.7435C118.006 68.934 116.818 69.0937 115.621 69.2161L115.62 69.2164ZM122.505 68.0689L123.01 68.6118C124.106 68.3515 125.185 68.0545 126.216 67.7281L125.676 67.1953C124.656 67.5178 123.589 67.8116 122.505 68.0689ZM128.646 66.125L129.22 66.6458C130.182 66.2543 131.12 65.8246 132.01 65.3684L131.405 64.8615C130.526 65.3123 129.598 65.737 128.647 66.1239L128.646 66.125ZM133.938 63.4144L134.572 63.9047C135.375 63.3937 136.152 62.8427 136.9 62.254L136.243 61.7834C135.517 62.3535 134.742 62.9022 133.939 63.4138L133.938 63.4144ZM138.298 59.9755L138.981 60.4267C139.626 59.7956 140.236 59.1293 140.807 58.4309L140.104 58.0017C139.539 58.6924 138.936 59.3512 138.298 59.9752L138.298 59.9755Z" fill="#090814"/>
<path d="M64.1621 56.7839L64.2916 57.2221L62.1287 57.858L62.9189 59.9654L62.4891 60.1253L61.5259 57.5576L64.1621 56.7839Z" fill="#090814"/>
<path d="M140.334 55.2884L140.472 55.724L142.621 55.0396L143.146 57.2283L143.592 57.1202L142.952 54.453L140.334 55.2884Z" fill="#090814"/>
</g>
<defs>
<clipPath id="clip0_551_15021">
<rect width="165" height="129" fill="white"/>
</clipPath>
</defs>
</svg>
