<svg width="56" height="66" viewBox="0 0 56 66" fill="none" xmlns="http://www.w3.org/2000/svg">
<path d="M0 0H56V66H0V0Z" fill="#F99D27"/>
<path d="M24.3995 31.5978C24.4924 31.4991 24.6037 31.4198 24.7273 31.3642C24.8508 31.3086 24.984 31.2779 25.1194 31.2738C25.2548 31.2698 25.3897 31.2924 25.5163 31.3405C25.6429 31.3885 25.7589 31.4611 25.8575 31.5539C30.6031 36.0244 35.3649 38.7443 40.9685 40.1307C41.7245 38.0682 41.7916 35.7982 41.1387 33.5836C40.2724 30.6451 38.255 28.0851 35.3063 26.1805C32.674 24.4802 30.043 24.0374 27.4978 23.6094C24.2867 23.0693 21.2536 22.5588 18.359 19.4941C18.0367 19.1551 17.5978 19.0191 17.1782 19.1293C16.6987 19.2582 16.377 19.6372 16.223 20.2637C15.8621 21.73 16.0941 25.8395 17.1092 30.1779C18.7393 37.1478 21.3406 40.6747 23.2362 42.4065C25.6854 44.6424 28.8835 45.8806 32.0617 45.8806C32.6608 45.8815 33.2591 45.8376 33.8516 45.7491C36.5399 45.3417 38.7777 43.9914 40.0391 42.0269C34.2712 40.5264 29.3437 37.6731 24.4414 33.0576C24.3426 32.9646 24.2632 32.853 24.2076 32.7293C24.152 32.6055 24.1214 32.472 24.1175 32.3364C24.1136 32.2008 24.1365 32.0657 24.1849 31.939C24.2333 31.8122 24.3062 31.6963 24.3995 31.5978ZM44.1273 40.7623C43.0426 40.5954 41.992 40.3859 40.9691 40.1326C40.7588 40.7068 40.4972 41.2607 40.1873 41.7878C40.1403 41.8684 40.0906 41.9483 40.0397 42.0269C41.2838 42.349 42.5436 42.6071 43.8141 42.8004C43.9493 42.8241 44.0879 42.8206 44.2217 42.7902C44.3555 42.7597 44.4819 42.7028 44.5935 42.6228C44.705 42.5428 44.7995 42.4414 44.8713 42.3244C44.9432 42.2074 44.991 42.0773 45.0118 41.9417C45.0327 41.806 45.0263 41.6675 44.993 41.5344C44.9597 41.4012 44.9001 41.276 44.8178 41.1662C44.7355 41.0564 44.6321 40.9641 44.5136 40.8947C44.3952 40.8254 44.2641 40.7804 44.128 40.7623H44.1273Z" fill="white"/>
</svg>
