<svg width="32" height="32" viewBox="0 0 32 32" fill="none" xmlns="http://www.w3.org/2000/svg">
<path d="M15.7443 19.6933L10.791 13.7493C10.6613 13.5935 10.5786 13.404 10.5527 13.2029C10.5268 13.0018 10.5587 12.7975 10.6448 12.6139C10.7308 12.4304 10.8674 12.2751 11.0386 12.1664C11.2097 12.0576 11.4083 11.9999 11.611 12H20.3897C20.5923 12.0002 20.7907 12.0581 20.9616 12.1669C21.1326 12.2757 21.269 12.431 21.3549 12.6145C21.4407 12.7981 21.4726 13.0023 21.4466 13.2032C21.4207 13.4042 21.338 13.5936 21.2083 13.7493L16.2563 19.6933C16.2251 19.7308 16.1859 19.761 16.1417 19.7817C16.0974 19.8024 16.0492 19.8132 16.0003 19.8132C15.9515 19.8132 15.9033 19.8024 15.859 19.7817C15.8148 19.761 15.7756 19.7308 15.7443 19.6933Z" fill="#A8A8A8"/>
</svg>
