<svg width="860" height="537" viewBox="0 0 860 537" fill="none" xmlns="http://www.w3.org/2000/svg">
<g clip-path="url(#clip0_1_10430)">
<path d="M224.76 327.27C315.12 327.27 388.371 254.008 388.371 163.635C388.371 73.262 315.12 0 224.76 0C134.4 0 61.1494 73.262 61.1494 163.635C61.1494 254.008 134.4 327.27 224.76 327.27Z" fill="#F2F2F2"/>
<path d="M0 39.29C0 98.827 37.3448 147.004 83.4958 147.004L0 39.29Z" fill="#2F2E41"/>
<path d="M83.4961 147.003C83.4961 86.797 125.171 38.0791 176.673 38.0791L83.4961 147.003Z" fill="#F99D27"/>
<path d="M30.252 44.6865C30.252 101.24 54.066 147.003 83.4956 147.003L30.252 44.6865Z" fill="#F99D27"/>
<path d="M83.4961 147.003C83.4961 70.0729 131.665 7.82227 191.194 7.82227L83.4961 147.003Z" fill="#2F2E41"/>
<path d="M65.9307 147.763C65.9307 147.763 77.7717 147.398 81.3403 144.856C84.9089 142.315 99.5549 139.28 100.44 143.356C101.325 147.432 118.235 163.629 104.867 163.736C91.4981 163.844 73.8041 161.654 70.2424 159.484C66.6806 157.314 65.9307 147.763 65.9307 147.763Z" fill="#A8A8A8"/>
<path opacity="0.2" d="M105.105 162.317C91.7367 162.425 74.0427 160.235 70.481 158.065C67.7685 156.412 66.6876 150.483 66.326 147.747C66.0755 147.758 65.9307 147.762 65.9307 147.762C65.9307 147.762 66.6806 157.314 70.2424 159.484C73.8041 161.654 91.4981 163.844 104.867 163.736C108.726 163.705 110.059 162.332 109.985 160.298C109.449 161.527 107.977 162.294 105.105 162.317Z" fill="black"/>
<path d="M152.556 345.662C231.886 345.662 296.196 336.912 296.196 326.118C296.196 315.324 231.886 306.574 152.556 306.574C73.2265 306.574 8.91699 315.324 8.91699 326.118C8.91699 336.912 73.2265 345.662 152.556 345.662Z" fill="#25652C"/>
<path opacity="0.1" d="M152.557 342.526C219.16 342.526 273.152 335.18 273.152 326.118C273.152 317.055 219.16 309.709 152.557 309.709C85.9535 309.709 31.9609 317.055 31.9609 326.118C31.9609 335.18 85.9535 342.526 152.557 342.526Z" fill="black"/>
<path d="M642.621 537C762.676 537 860 523.758 860 507.423C860 491.088 762.676 477.846 642.621 477.846C522.565 477.846 425.241 491.088 425.241 507.423C425.241 523.758 522.565 537 642.621 537Z" fill="#25652C"/>
<path d="M238.587 513.666C310.705 513.666 369.168 505.712 369.168 495.899C369.168 486.086 310.705 478.132 238.587 478.132C166.469 478.132 108.006 486.086 108.006 495.899C108.006 505.712 166.469 513.666 238.587 513.666Z" fill="#25652C"/>
<path d="M355.342 480.918C424.473 498.588 557.359 457.871 571.953 411.776" stroke="#2F2E41" stroke-width="2" stroke-miterlimit="10"/>
<path d="M237.818 198.974C237.818 198.974 337.675 171.318 343.82 260.434C349.965 349.55 261.63 374.901 330.762 392.571" stroke="#2F2E41" stroke-width="2" stroke-miterlimit="10"/>
<path d="M141.344 412.763C141.344 412.763 171.356 404.451 173.203 431.235C175.05 458.019 148.501 465.639 169.278 470.95" stroke="#2F2E41" stroke-width="2" stroke-miterlimit="10"/>
<path d="M598.143 432.704L592.092 471.342C592.092 471.342 562.302 487.17 583.248 487.636C604.194 488.101 702.871 487.636 702.871 487.636C702.871 487.636 721.954 487.636 691.7 470.877L685.649 430.376L598.143 432.704Z" fill="#2F2E41"/>
<path opacity="0.1" d="M579.035 487.217C583.792 482.983 592.092 478.572 592.092 478.572L598.143 439.934L685.649 440.016L691.7 478.107C698.755 482.015 703.126 485.011 705.683 487.309C709.569 486.422 713.815 483.127 691.7 470.877L685.649 430.376L598.143 432.704L592.092 471.342C592.092 471.342 567.06 484.644 579.035 487.217Z" fill="black"/>
<path d="M824.69 163.396H458.17C450.515 163.396 444.309 169.602 444.309 177.259V424.193C444.309 431.85 450.515 438.057 458.17 438.057H824.69C832.345 438.057 838.551 431.85 838.551 424.193V177.259C838.551 169.602 832.345 163.396 824.69 163.396Z" fill="#2F2E41"/>
<path d="M825.286 178.061H457.574V383.824H825.286V178.061Z" fill="#25652C"/>
<path d="M641.43 173.87C642.715 173.87 643.757 172.828 643.757 171.542C643.757 170.257 642.715 169.215 641.43 169.215C640.145 169.215 639.103 170.257 639.103 171.542C639.103 172.828 640.145 173.87 641.43 173.87Z" fill="#F2F2F2"/>
<path d="M838.551 400.116V424.193C838.551 426.014 838.193 427.817 837.497 429.499C836.8 431.181 835.779 432.709 834.492 433.997C833.205 435.284 831.677 436.305 829.995 437.002C828.313 437.698 826.51 438.057 824.69 438.057H458.17C456.35 438.057 454.547 437.698 452.865 437.002C451.183 436.305 449.655 435.284 448.368 433.997C447.081 432.709 446.06 431.181 445.363 429.499C444.667 427.817 444.308 426.014 444.309 424.193V400.116H838.551Z" fill="#2F2E41"/>
<path d="M744.296 512.775V517.43H493.88V513.706L494.225 512.775L500.397 496.016H739.176L744.296 512.775Z" fill="#2F2E41"/>
<path d="M840.665 508.217C840.209 510.167 838.487 512.225 834.595 514.171C820.632 521.154 792.239 512.309 792.239 512.309C792.239 512.309 770.362 508.585 770.362 498.809C770.977 498.388 771.617 498.007 772.28 497.668C778.151 494.562 797.616 486.896 832.13 497.993C834.673 498.791 836.944 500.279 838.691 502.293C840.09 503.93 841.186 506.007 840.665 508.217Z" fill="#2F2E41"/>
<path opacity="0.1" d="M840.664 508.217C823.573 514.767 808.338 515.256 792.704 504.395C784.819 498.92 777.655 497.566 772.279 497.668C778.15 494.562 797.615 486.896 832.13 497.993C834.672 498.791 836.944 500.279 838.69 502.292C840.089 503.93 841.186 506.007 840.664 508.217Z" fill="black"/>
<path d="M819.236 504.395C822.577 504.395 825.286 503.561 825.286 502.533C825.286 501.505 822.577 500.671 819.236 500.671C815.894 500.671 813.185 501.505 813.185 502.533C813.185 503.561 815.894 504.395 819.236 504.395Z" fill="#F2F2F2"/>
<path d="M641.431 428.048C646.315 428.048 650.274 424.088 650.274 419.203C650.274 414.318 646.315 410.358 641.431 410.358C636.546 410.358 632.587 414.318 632.587 419.203C632.587 424.088 636.546 428.048 641.431 428.048Z" fill="#F2F2F2"/>
<path opacity="0.1" d="M744.296 512.774V517.43H493.88V513.706L494.225 512.774H744.296Z" fill="black"/>
<path d="M243.196 122.15H83.4258V308.065H243.196V122.15Z" fill="#2F2E41"/>
<path d="M259.326 103.713H67.2949V169.782H259.326V103.713Z" fill="#25652C"/>
<path d="M259.326 182.073H67.2949V248.142H259.326V182.073Z" fill="#25652C"/>
<path d="M259.326 260.434H67.2949V326.502H259.326V260.434Z" fill="#25652C"/>
<path opacity="0.4" d="M220.92 115.236H208.63V127.528H220.92V115.236Z" fill="#F99D27"/>
<path opacity="0.8" d="M238.587 115.236H226.297V127.528H238.587V115.236Z" fill="#F99D27"/>
<path d="M256.254 115.236H243.964V127.528H256.254V115.236Z" fill="#F99D27"/>
<path opacity="0.4" d="M220.92 192.828H208.63V205.12H220.92V192.828Z" fill="#F99D27"/>
<path opacity="0.8" d="M238.587 192.828H226.297V205.12H238.587V192.828Z" fill="#F99D27"/>
<path d="M256.254 192.828H243.964V205.12H256.254V192.828Z" fill="#F99D27"/>
<path opacity="0.4" d="M220.92 270.421H208.63V282.713H220.92V270.421Z" fill="#F99D27"/>
<path opacity="0.8" d="M238.587 270.421H226.297V282.713H238.587V270.421Z" fill="#F99D27"/>
<path d="M256.254 270.421H243.964V282.713H256.254V270.421Z" fill="#F99D27"/>
<path d="M243.196 474.004C276.709 474.004 303.877 446.832 303.877 413.313C303.877 379.794 276.709 352.622 243.196 352.622C209.682 352.622 182.514 379.794 182.514 413.313C182.514 446.832 209.682 474.004 243.196 474.004Z" fill="#2F2E41"/>
<path d="M233.978 460.944H215.543V493.979H233.978V460.944Z" fill="#2F2E41"/>
<path d="M270.848 460.944H252.413V493.979H270.848V460.944Z" fill="#2F2E41"/>
<path d="M230.905 500.124C239.39 500.124 246.268 497.545 246.268 494.362C246.268 491.18 239.39 488.601 230.905 488.601C222.421 488.601 215.543 491.18 215.543 494.362C215.543 497.545 222.421 500.124 230.905 500.124Z" fill="#2F2E41"/>
<path d="M267.776 499.357C276.26 499.357 283.138 496.777 283.138 493.595C283.138 490.413 276.26 487.833 267.776 487.833C259.291 487.833 252.413 490.413 252.413 493.595C252.413 496.777 259.291 499.357 267.776 499.357Z" fill="#2F2E41"/>
<path d="M244.732 418.691C256.186 418.691 265.471 409.404 265.471 397.949C265.471 386.493 256.186 377.206 244.732 377.206C233.278 377.206 223.992 386.493 223.992 397.949C223.992 409.404 233.278 418.691 244.732 418.691Z" fill="white"/>
<path d="M244.731 404.863C248.55 404.863 251.645 401.767 251.645 397.948C251.645 394.13 248.55 391.034 244.731 391.034C240.913 391.034 237.818 394.13 237.818 397.948C237.818 401.767 240.913 404.863 244.731 404.863Z" fill="#25652C"/>
<path d="M184.332 356.872C179.432 334.926 195.095 312.749 219.315 307.34C243.536 301.931 267.143 315.338 272.042 337.284C276.942 359.231 260.89 367.326 236.67 372.735C212.449 378.144 189.231 378.819 184.332 356.872Z" fill="#F99D27"/>
<path d="M300.109 401.208C315.514 394.614 326.324 385.347 324.254 380.51C322.185 375.673 308.018 377.098 292.613 383.692C277.208 390.287 266.398 399.554 268.468 404.391C270.537 409.228 284.704 407.803 300.109 401.208Z" fill="#2F2E41"/>
<path d="M186.426 441.925C201.831 435.331 212.642 426.064 210.572 421.227C208.502 416.39 194.336 417.815 178.931 424.409C163.525 431.004 152.715 440.271 154.785 445.108C156.855 449.944 171.021 448.52 186.426 441.925Z" fill="#2F2E41"/>
<path d="M278.529 430.983C278.529 436.923 263.237 448.653 246.268 448.653C229.299 448.653 213.238 437.692 213.238 431.752C213.238 425.811 229.299 427.142 246.268 427.142C263.237 427.142 278.529 425.043 278.529 430.983Z" fill="white"/>
</g>
<defs>
<clipPath id="clip0_1_10430">
<rect width="860" height="537" fill="white"/>
</clipPath>
</defs>
</svg>
