<svg width="54" height="54" viewBox="0 0 54 54" fill="none" xmlns="http://www.w3.org/2000/svg">
<circle cx="27" cy="27" r="27" fill="#F99D27"/>
<path d="M21.9101 25.2275C22.0083 25.1232 22.1261 25.0392 22.2568 24.9804C22.3875 24.9216 22.5284 24.8891 22.6716 24.8848C22.8149 24.8805 22.9575 24.9045 23.0915 24.9553C23.2255 25.0062 23.3481 25.0829 23.4524 25.1811C28.4726 29.9102 33.5099 32.7875 39.4376 34.2541C40.2374 32.0723 40.3083 29.6709 39.6176 27.3282C38.7013 24.2198 36.5672 21.5116 33.4478 19.4968C30.6633 17.6982 27.8801 17.2298 25.1876 16.777C21.7908 16.2057 18.5822 15.6657 15.5201 12.4236C15.1792 12.065 14.7149 11.9211 14.271 12.0377C13.7638 12.1741 13.4235 12.575 13.2606 13.2377C12.8788 14.7889 13.1242 19.1361 14.1981 23.7254C15.9224 31.0986 18.6742 34.8295 20.6794 36.6616C23.2703 39.0268 26.6535 40.3366 30.0156 40.3366C30.6493 40.3376 31.2822 40.2911 31.909 40.1975C34.7528 39.7666 37.1201 38.3382 38.4544 36.26C32.3528 34.6727 27.1403 31.6543 21.9544 26.7718C21.8499 26.6734 21.7659 26.5554 21.7071 26.4245C21.6483 26.2935 21.6159 26.1523 21.6118 26.0088C21.6077 25.8654 21.6319 25.7225 21.6831 25.5884C21.7343 25.4544 21.8114 25.3317 21.9101 25.2275ZM42.7792 34.9223C41.6317 34.7457 40.5203 34.5241 39.4383 34.2561C39.2158 34.8635 38.939 35.4495 38.6113 36.007C38.5615 36.0923 38.509 36.1768 38.4551 36.26C39.7712 36.6007 41.1038 36.8738 42.4478 37.0782C42.5909 37.1033 42.7374 37.0996 42.879 37.0674C43.0206 37.0351 43.1543 36.9749 43.2723 36.8903C43.3903 36.8057 43.4903 36.6984 43.5663 36.5747C43.6422 36.451 43.6928 36.3133 43.7149 36.1698C43.737 36.0263 43.7302 35.8798 43.695 35.7389C43.6597 35.5981 43.5967 35.4657 43.5096 35.3495C43.4226 35.2333 43.3131 35.1357 43.1878 35.0623C43.0625 34.9889 42.9238 34.9413 42.7799 34.9223H42.7792Z" fill="white"/>
</svg>
