<svg width="187" height="124" viewBox="0 0 187 124" fill="none" xmlns="http://www.w3.org/2000/svg">
<g clip-path="url(#clip0_1_8636)">
<path d="M67.0773 71.3631C73.4858 60.1147 85.7102 51.4778 98.6507 52.3098C89.1054 62.667 83.5393 76.0592 82.9373 90.117C82.7248 95.5393 83.0543 101.592 79.4461 105.653C77.201 108.179 73.7693 109.402 70.3952 109.659C67.021 109.916 63.6475 109.307 60.3184 108.702L59.5108 108.949C59.2033 96.0139 60.6687 82.6115 67.0773 71.3631Z" fill="#F0F0F0"/>
<path d="M98.6701 52.5807C89.1008 57.1772 80.9412 64.8539 75.9322 74.2162C74.8493 76.2403 73.9273 78.3877 73.5251 80.6581C73.1227 82.9295 73.4038 85.0917 74.1813 87.2491C74.8922 89.2214 75.8482 91.1567 76.0661 93.267C76.2959 95.4915 75.4756 97.5713 73.9991 99.222C72.1925 101.242 69.7664 102.493 67.3512 103.635C64.6696 104.902 61.8641 106.177 59.9648 108.542C59.7346 108.829 59.3023 108.456 59.5321 108.17C62.8367 104.054 68.4932 103.28 72.4156 99.9645C74.246 98.4174 75.6201 96.3105 75.5334 93.8419C75.4575 91.6831 74.4734 89.6866 73.7364 87.6958C72.9625 85.6055 72.5765 83.5037 72.8541 81.2751C73.138 78.9953 73.9778 76.8075 75.0041 74.7646C77.3186 70.1575 80.4862 65.9278 84.1149 62.2715C88.2852 58.0687 93.1454 54.6086 98.4851 52.0411C98.8156 51.8823 98.9985 52.423 98.6701 52.5807Z" fill="white"/>
<path d="M77.399 71.0873C75.9319 70.017 74.894 68.4612 74.4705 66.6978C74.047 64.9344 74.2655 63.0782 75.0869 61.4607C75.2543 61.1339 75.771 61.3781 75.6034 61.7052C74.8356 63.21 74.6323 64.9391 75.03 66.5804C75.4278 68.2217 76.4004 69.667 77.7724 70.6556C78.0703 70.8708 77.6951 71.3012 77.399 71.0873Z" fill="white"/>
<path d="M73.6883 86.2965C77.3643 85.7606 80.7028 83.8619 83.0381 80.979C83.2692 80.6932 83.7016 81.0661 83.4707 81.3516C81.0349 84.3471 77.5567 86.3159 73.7302 86.8652C73.3654 86.9174 73.3255 86.3483 73.6883 86.2965Z" fill="white"/>
<path d="M88.5674 58.7704C89.0485 59.3025 89.6546 59.7071 90.3311 59.9478C91.0077 60.1884 91.7336 60.2577 92.4436 60.1492C92.8075 60.0926 92.847 60.6617 92.4855 60.718C91.7005 60.8341 90.8989 60.7567 90.1508 60.4924C89.4027 60.2282 88.7309 59.7851 88.1939 59.202C88.1387 59.1513 88.1049 59.0815 88.0994 59.0068C88.0939 58.9321 88.1171 58.8581 88.1643 58.7999C88.2141 58.743 88.2843 58.708 88.3598 58.7024C88.4353 58.6969 88.5099 58.7213 88.5674 58.7704Z" fill="white"/>
<path d="M124.398 87.7947C124.172 87.8365 123.946 87.8784 123.718 87.9246C120.679 88.5029 117.693 89.3266 114.788 90.3876C114.562 90.466 114.334 90.549 114.111 90.6337C107.14 93.2642 100.719 97.1632 95.1739 102.133C92.9694 104.112 90.919 106.256 89.0404 108.546C86.4463 111.708 83.8857 115.343 80.4958 117.405C80.1445 117.624 79.78 117.821 79.4043 117.996L59.8758 109.913C59.8407 109.873 59.8035 109.836 59.7681 109.796L58.9736 109.509C59.0623 109.384 59.1569 109.256 59.2455 109.131C59.2966 109.059 59.352 108.988 59.4031 108.915C59.4386 108.867 59.4743 108.82 59.5035 108.774C59.5152 108.758 59.5272 108.743 59.5371 108.731C59.5663 108.686 59.5983 108.647 59.6257 108.606C60.1525 107.892 60.6853 107.179 61.224 106.47C61.2259 106.465 61.2259 106.465 61.2321 106.462C65.3507 101.065 69.9571 95.9634 75.1931 91.7215C75.3506 91.5939 75.5098 91.4618 75.6763 91.3379C78.0471 89.4389 80.5695 87.7365 83.2182 86.2475C84.6712 85.4369 86.1644 84.7001 87.6921 84.0401C91.6426 82.3424 95.8362 81.2752 100.119 80.8777C108.657 80.0866 117.354 82.0289 123.902 87.3809C124.07 87.5179 124.233 87.6532 124.398 87.7947Z" fill="#F0F0F0"/>
<path d="M124.251 88.0233C113.837 85.9447 102.69 87.1723 93.0415 91.6385C90.9555 92.6041 88.9236 93.7647 87.2325 95.3359C85.5407 96.9078 84.4604 98.8031 83.7794 100.993C83.1569 102.994 82.7525 105.114 81.6531 106.93C80.4943 108.844 78.5844 110.012 76.4095 110.443C73.7483 110.97 71.056 110.512 68.4388 109.973C65.5328 109.374 62.524 108.706 59.58 109.454C59.2233 109.544 59.1032 108.987 59.4594 108.896C64.5814 107.595 69.5647 110.375 74.6972 110.084C77.0921 109.949 79.4605 109.092 80.8809 107.069C82.1229 105.3 82.5419 103.114 83.1546 101.082C83.798 98.9481 84.7581 97.0381 86.3244 95.4254C87.9267 93.7757 89.9174 92.5334 91.9695 91.5188C96.5975 89.2307 101.679 87.7564 106.782 87.0169C112.648 86.1665 118.617 86.3236 124.429 87.4813C124.789 87.5531 124.609 88.0946 124.251 88.0233Z" fill="white"/>
<path d="M96.1007 90.0218C95.5752 88.2859 95.6853 86.4202 96.4111 84.7578C97.137 83.0954 98.4315 81.7446 100.063 80.9466C100.394 80.7862 100.659 81.2915 100.328 81.4521C98.8072 82.1924 97.6015 83.4508 96.9288 85.0002C96.256 86.5496 96.1604 88.2879 96.6594 89.9015C96.7674 90.2522 96.2081 90.3705 96.1007 90.0218Z" fill="white"/>
<path d="M83.9614 99.9364C87.2199 101.717 91.0312 102.206 94.6353 101.307C94.9923 101.218 95.1125 101.776 94.7559 101.865C91.0036 102.793 87.0384 102.276 83.6517 100.416C83.329 100.238 83.6405 99.7599 83.9614 99.9364Z" fill="white"/>
<path d="M112.45 86.8966C112.513 87.6105 112.753 88.2976 113.148 88.8962C113.543 89.4948 114.081 89.9862 114.713 90.3261C115.038 90.4995 114.726 90.9776 114.403 90.8054C113.706 90.4265 113.113 89.8832 112.675 89.2228C112.237 88.5624 111.968 87.805 111.892 87.0169C111.878 86.9432 111.893 86.8672 111.934 86.8042C111.975 86.7413 112.038 86.6962 112.111 86.678C112.185 86.6625 112.262 86.6767 112.325 86.7176C112.389 86.7585 112.434 86.8228 112.45 86.8966Z" fill="white"/>
<path d="M87.1977 101.129C84.4628 87.9341 81.0442 83.535 81.0442 83.535L79.7381 82.5244L78.1676 81.3072L78.1751 81.1507L77.8026 81.0243L77.7151 80.9565L77.5717 80.8466L77.5487 80.8714L77.5 80.9217L70.3929 78.5112L61.3764 75.4553L57.2012 70.0403C56.5212 69.1584 55.6458 68.4456 54.6435 67.9578C53.6412 67.47 52.5393 67.2205 51.4242 67.2287L38.0899 67.3272C36.2869 67.3405 34.5542 68.0263 33.2323 69.2497L24.4678 77.3614L10.8112 83.8693L10.7881 83.8463L10.6447 83.9485L8.53465 84.9552L8.62173 85.4075L7.31572 86.3478C7.31572 86.3478 3.89708 90.4411 1.16216 102.718C0.466424 105.842 0.123959 112.544 0.000347375 120.801C-0.00586163 121.219 0.0712202 121.634 0.227109 122.022C0.382998 122.409 0.614585 122.762 0.908403 123.06C1.20222 123.358 1.55241 123.594 1.93861 123.755C2.3248 123.917 2.7393 124 3.15801 124H76.1009L85.2051 124C85.6236 124 86.0378 123.917 86.4237 123.756C86.8097 123.594 87.1597 123.358 87.4534 123.061C87.7472 122.764 87.9789 122.411 88.135 122.024C88.2911 121.637 88.3685 121.222 88.3628 120.805C88.2421 111.819 87.8998 104.516 87.1977 101.129Z" fill="#3F3D56"/>
<path d="M96.5565 11.5068C93.7186 11.5068 90.997 12.6317 88.9903 14.634C86.9836 16.6362 85.8562 19.3519 85.8562 22.1835C85.8562 25.0152 86.9836 27.7308 88.9903 29.7331C90.997 31.7354 93.7186 32.8602 96.5565 32.8602H176.3C179.137 32.8602 181.859 31.7354 183.866 29.7331C185.873 27.7308 187 25.0152 187 22.1835C187 19.3519 185.873 16.6362 183.866 14.634C181.859 12.6317 179.137 11.5068 176.3 11.5068H96.5565Z" fill="#E5E5E5"/>
<path d="M96.5563 13.6675C94.2927 13.6675 92.1219 14.5647 90.5213 16.1617C88.9207 17.7588 88.0215 19.9249 88.0215 22.1834C88.0215 24.442 88.9207 26.6081 90.5213 28.2051C92.1219 29.8022 94.2927 30.6994 96.5563 30.6994H176.299C178.563 30.6994 180.734 29.8022 182.334 28.2051C183.935 26.6081 184.834 24.442 184.834 22.1834C184.834 19.9249 183.935 17.7588 182.334 16.1617C180.734 14.5647 178.563 13.6675 176.299 13.6675H96.5563Z" fill="white"/>
<path d="M46.8511 62.2304C56.499 62.2304 64.3203 54.4264 64.3203 44.7998C64.3203 35.1731 56.499 27.3691 46.8511 27.3691C37.2031 27.3691 29.3818 35.1731 29.3818 44.7998C29.3818 54.4264 37.2031 62.2304 46.8511 62.2304Z" fill="#9E616A"/>
<path d="M42.3825 61.3769C42.3078 61.2129 42.2334 61.0484 42.1592 60.8833C42.1878 60.8842 42.2161 60.8883 42.2447 60.8891L42.3825 61.3769Z" fill="#2F2E41"/>
<path d="M28.8964 28.1617C29.78 27.4584 30.8126 26.8113 31.9423 26.8477C33.0719 26.884 34.2174 27.9021 33.9834 29.0053C36.0583 25.3396 39.3609 22.5203 43.3116 21.0422C47.2622 19.5641 51.6084 19.5216 55.5873 20.9223C58.3949 21.9107 61.1482 23.888 61.7932 26.7881C61.9587 27.5326 61.9943 28.3489 62.4601 28.9534C63.0475 29.7156 64.1713 29.888 65.0967 29.6199C65.106 29.6172 65.1152 29.6145 65.1244 29.6117C65.2808 29.5585 65.4495 29.5532 65.6088 29.5967C65.7682 29.6402 65.9108 29.7304 66.0182 29.8556C66.1256 29.9808 66.1929 30.1353 66.2114 30.2991C66.2298 30.4629 66.1986 30.6284 66.1218 30.7743L65.3274 32.2526C66.3288 32.4753 67.3693 32.4533 68.3603 32.1883C68.5249 32.1452 68.6989 32.154 68.8583 32.2134C69.0177 32.2729 69.1548 32.3801 69.2507 32.5204C69.3466 32.6607 69.3967 32.8271 69.3941 32.9969C69.3915 33.1667 69.3362 33.3315 69.236 33.4688C66.6166 37.0572 62.2403 39.3744 57.7744 39.3472C54.6003 39.3279 51.3936 38.2364 48.3045 38.9647C47.1094 39.2464 45.9927 39.7916 45.0364 40.5601C44.08 41.3286 43.3082 42.3011 42.7777 43.406C42.2471 44.511 41.9711 45.7205 41.9701 46.9457C41.9691 48.1709 42.243 49.3809 42.7718 50.4867C41.8228 49.451 39.9883 49.6962 39.0176 50.7117C38.0469 51.7272 37.7956 53.2428 37.8934 54.6428C38.0429 56.7839 38.8837 58.8015 39.7701 60.7651C32.3388 60.5317 25.3101 55.3303 22.9443 48.2953C20.5685 41.2309 23.0584 32.8086 28.8964 28.1617Z" fill="#2F2E41"/>
<path opacity="0.2" d="M17.1943 97.145L22.0941 123.745L25.034 124L17.1943 97.145Z" fill="black"/>
<path opacity="0.2" d="M71.1656 95.1387L66.2659 123.725L63.3259 124L71.1656 95.1387Z" fill="black"/>
<path d="M33.0748 19.2096C32.1353 19.601 31.1551 19.172 30.7439 18.1897C30.3265 17.1923 30.7164 16.1798 31.6709 15.7821C32.6255 15.3844 33.5883 15.8144 34.0124 16.8279C34.4302 17.8262 34.0446 18.8055 33.0748 19.2096ZM31.2752 13.8189L30.5282 14.1302C30.3416 14.207 30.1329 14.2111 29.9434 14.1418C29.7539 14.0724 29.5973 13.9346 29.5048 13.7556L29.4678 13.6835C28.6641 12.2372 28.5721 10.4794 29.1958 8.46175C29.7735 6.6518 30.0135 5.37886 29.5309 4.22565C28.9729 2.89232 27.7814 2.47466 26.262 3.0797C25.6727 3.32523 25.4851 3.32131 25.0214 3.78035C24.9205 3.88141 24.8003 3.96118 24.6678 4.01488C24.5354 4.06857 24.3935 4.09511 24.2505 4.09291C24.1124 4.09128 23.9759 4.06191 23.8494 4.00654C23.7228 3.95117 23.6087 3.87094 23.5139 3.77063C23.3312 3.57731 23.2289 3.32204 23.2276 3.05636C23.2262 2.79068 23.326 2.53438 23.5067 2.33924C24.2862 1.52506 25.2263 0.880939 26.2679 0.447525C29.5325 -0.912651 31.1759 1.09545 31.9279 2.89252C32.6635 4.65025 32.2497 6.28114 31.5849 8.3933C31.0277 10.1484 31.0602 11.4489 31.6931 12.7419C31.7388 12.8397 31.7642 12.9457 31.7678 13.0535C31.7714 13.1613 31.7532 13.2687 31.7142 13.3693C31.6751 13.4699 31.6161 13.5616 31.5407 13.6388C31.4653 13.7161 31.3749 13.7774 31.2752 13.8189Z" fill="#F99D27"/>
<path d="M114.171 27.2753H98.3047C98.2543 27.2757 98.2043 27.2661 98.1576 27.247C98.111 27.228 98.0685 27.2 98.0328 27.1646C97.997 27.1291 97.9686 27.087 97.9493 27.0405C97.9299 26.9941 97.9199 26.9443 97.9199 26.894C97.9199 26.8437 97.9299 26.7939 97.9493 26.7475C97.9686 26.7011 97.997 26.6589 98.0328 26.6235C98.0685 26.588 98.111 26.56 98.1576 26.541C98.2043 26.522 98.2543 26.5124 98.3047 26.5127H114.171C114.271 26.5134 114.368 26.5539 114.439 26.6253C114.51 26.6967 114.55 26.7933 114.55 26.894C114.55 26.9947 114.51 27.0913 114.439 27.1627C114.368 27.2342 114.271 27.2746 114.171 27.2753Z" fill="#F99D27"/>
<path d="M134.298 27.4028H118.432C118.381 27.4031 118.331 27.3935 118.285 27.3745C118.238 27.3555 118.195 27.3274 118.16 27.292C118.124 27.2566 118.096 27.2144 118.076 27.168C118.057 27.1215 118.047 27.0718 118.047 27.0215C118.047 26.9712 118.057 26.9214 118.076 26.8749C118.096 26.8285 118.124 26.7863 118.16 26.7509C118.195 26.7155 118.238 26.6874 118.285 26.6684C118.331 26.6494 118.381 26.6398 118.432 26.6401H134.298C134.348 26.6398 134.398 26.6494 134.445 26.6684C134.491 26.6874 134.534 26.7155 134.569 26.7509C134.605 26.7863 134.634 26.8285 134.653 26.8749C134.672 26.9214 134.682 26.9712 134.682 27.0215C134.682 27.0718 134.672 27.1215 134.653 27.168C134.634 27.2144 134.605 27.2566 134.569 27.292C134.534 27.3274 134.491 27.3555 134.445 27.3745C134.398 27.3935 134.348 27.4031 134.298 27.4028Z" fill="#F99D27"/>
<path d="M154.424 27.5297H138.558C138.457 27.529 138.361 27.4886 138.29 27.4171C138.219 27.3457 138.179 27.2491 138.179 27.1484C138.179 27.0477 138.219 26.9511 138.29 26.8797C138.361 26.8083 138.457 26.7678 138.558 26.7671H154.424C154.475 26.7668 154.525 26.7764 154.571 26.7954C154.618 26.8144 154.66 26.8424 154.696 26.8779C154.732 26.9133 154.76 26.9555 154.78 27.0019C154.799 27.0483 154.809 27.0981 154.809 27.1484C154.809 27.1987 154.799 27.2485 154.78 27.2949C154.76 27.3414 154.732 27.3835 154.696 27.419C154.66 27.4544 154.618 27.4824 154.571 27.5014C154.525 27.5205 154.475 27.5301 154.424 27.5297Z" fill="#F99D27"/>
<path d="M174.551 27.6567H158.685C158.585 27.656 158.488 27.6155 158.417 27.5441C158.346 27.4726 158.306 27.376 158.306 27.2754C158.306 27.1747 158.346 27.0781 158.417 27.0066C158.488 26.9352 158.585 26.8947 158.685 26.894H174.551C174.652 26.8947 174.749 26.9352 174.82 27.0066C174.891 27.0781 174.931 27.1747 174.931 27.2754C174.931 27.376 174.891 27.4726 174.82 27.5441C174.749 27.6155 174.652 27.656 174.551 27.6567Z" fill="#F99D27"/>
<path d="M106.203 23.7664C107.831 23.7664 109.151 22.4491 109.151 20.8241C109.151 19.1991 107.831 17.8818 106.203 17.8818C104.574 17.8818 103.254 19.1991 103.254 20.8241C103.254 22.4491 104.574 23.7664 106.203 23.7664Z" fill="#F99D27"/>
<path d="M126.452 23.7664C128.08 23.7664 129.401 22.4491 129.401 20.8241C129.401 19.1991 128.08 17.8818 126.452 17.8818C124.823 17.8818 123.503 19.1991 123.503 20.8241C123.503 22.4491 124.823 23.7664 126.452 23.7664Z" fill="#F99D27"/>
<path d="M146.7 23.7664C148.328 23.7664 149.649 22.4491 149.649 20.8241C149.649 19.1991 148.328 17.8818 146.7 17.8818C145.071 17.8818 143.751 19.1991 143.751 20.8241C143.751 22.4491 145.071 23.7664 146.7 23.7664Z" fill="#F99D27"/>
<path d="M166.948 23.7664C168.576 23.7664 169.897 22.4491 169.897 20.8241C169.897 19.1991 168.576 17.8818 166.948 17.8818C165.319 17.8818 163.999 19.1991 163.999 20.8241C163.999 22.4491 165.319 23.7664 166.948 23.7664Z" fill="#F99D27"/>
</g>
<defs>
<clipPath id="clip0_1_8636">
<rect width="187" height="124" fill="white"/>
</clipPath>
</defs>
</svg>
