<svg width="64" height="64" viewBox="0 0 64 64" fill="none" xmlns="http://www.w3.org/2000/svg">
<path d="M20.1683 30.2501C20.3484 30.0588 20.5644 29.9049 20.8039 29.7971C21.0435 29.6893 21.3019 29.6298 21.5645 29.6219C21.8271 29.614 22.0886 29.6579 22.3342 29.7511C22.5798 29.8443 22.8046 29.985 22.9958 30.1651C32.1996 38.8351 41.4346 44.1101 52.3021 46.7988C53.7683 42.7988 53.8983 38.3963 52.6321 34.1013C50.9521 28.4026 47.0396 23.4376 41.3208 19.7438C36.2158 16.4463 31.1133 15.5876 26.1771 14.7576C19.9496 13.7101 14.0671 12.7201 8.45334 6.77632C7.82834 6.11882 6.97709 5.85507 6.16334 6.06882C5.23334 6.31882 4.60959 7.05382 4.31084 8.26882C3.61084 11.1126 4.06084 19.0826 6.02959 27.4963C9.19084 41.0138 14.2358 47.8538 17.9121 51.2126C22.6621 55.5488 28.8646 57.9501 35.0283 57.9501C36.1902 57.9519 37.3505 57.8667 38.4996 57.6951C43.7133 56.9051 48.0533 54.2863 50.4996 50.4763C39.3133 47.5663 29.7571 42.0326 20.2496 33.0813C20.058 32.901 19.9039 32.6846 19.7961 32.4445C19.6883 32.2045 19.629 31.9456 19.6214 31.6826C19.6139 31.4195 19.6583 31.1576 19.7521 30.9118C19.846 30.666 19.9874 30.4411 20.1683 30.2501ZM58.4283 48.0238C56.3246 47.7001 54.2871 47.2938 52.3033 46.8026C51.8955 47.916 51.388 48.9904 50.7871 50.0126C50.6958 50.1688 50.5996 50.3238 50.5008 50.4763C52.9136 51.101 55.3568 51.6016 57.8208 51.9763C58.083 52.0224 58.3518 52.0157 58.6113 51.9566C58.8709 51.8974 59.116 51.7871 59.3324 51.632C59.5487 51.4768 59.7319 51.2801 59.8713 51.0533C60.0106 50.8264 60.1032 50.5741 60.1437 50.311C60.1843 50.0479 60.1719 49.7793 60.1072 49.5211C60.0426 49.2628 59.9271 49.0201 59.7675 48.8071C59.6078 48.594 59.4072 48.415 59.1775 48.2805C58.9478 48.146 58.6935 48.0588 58.4296 48.0238H58.4283Z" fill="white"/>
</svg>
