<svg width="270" height="103" viewBox="0 0 270 103" fill="none" xmlns="http://www.w3.org/2000/svg">
<path d="M12.2 38.2003C10.4667 38.2003 8.85336 37.9469 7.36002 37.4403C5.89336 36.9603 4.61336 36.2803 3.52002 35.4003C2.42669 34.5469 1.56002 33.5203 0.920024 32.3203C0.306691 31.1469 2.45273e-05 29.8669 2.45273e-05 28.4803C2.45273e-05 27.9736 0.0400245 27.3203 0.120024 26.5203C0.200025 25.7203 0.306691 24.8003 0.440025 23.7603C0.600025 22.7203 0.773358 21.6136 0.960025 20.4403L6.24002 21.1603C5.97336 22.8403 5.76002 24.3336 5.60002 25.6403C5.44002 26.9469 5.36002 27.8669 5.36002 28.4003C5.36002 29.4136 5.64002 30.3069 6.20002 31.0803C6.76002 31.8536 7.54669 32.4536 8.56002 32.8803C9.60002 33.3336 10.8134 33.5603 12.2 33.5603H23.52C25.2534 33.5603 26.5467 33.1203 27.4 32.2403C28.2534 31.3603 28.68 30.0803 28.68 28.4003V26.8803H34V28.4003C34 30.3203 33.5734 32.0136 32.72 33.4803C31.8667 34.9469 30.6534 36.0936 29.08 36.9203C27.5334 37.7736 25.68 38.2003 23.52 38.2003H12.2ZM26.92 28.2803C25.6934 28.2803 24.5067 28.1469 23.36 27.8803C22.24 27.6136 21.1734 27.1336 20.16 26.4403L23.2 22.6003C23.6267 22.8936 24 23.1203 24.32 23.2803C24.6667 23.4136 25.04 23.5069 25.44 23.5603C25.8667 23.6136 26.36 23.6403 26.92 23.6403H35.76V28.2803H26.92ZM35.76 28.2803V23.6403C35.8934 23.6403 36.0134 23.6936 36.12 23.8003C36.2267 23.9069 36.3067 24.0669 36.36 24.2803C36.4134 24.4936 36.4534 24.7469 36.48 25.0403C36.5334 25.3069 36.56 25.6136 36.56 25.9603C36.56 26.3069 36.5334 26.6269 36.48 26.9203C36.4534 27.2136 36.4134 27.4669 36.36 27.6803C36.3067 27.8669 36.2267 28.0136 36.12 28.1203C36.0134 28.2269 35.8934 28.2803 35.76 28.2803ZM35.7438 28.2803V23.6403H45.7438V28.2803H35.7438ZM45.7438 28.2803V23.6403C45.9038 23.6403 46.0238 23.6936 46.1038 23.8003C46.2104 23.9069 46.2904 24.0669 46.3438 24.2803C46.4238 24.4936 46.4771 24.7469 46.5038 25.0403C46.5304 25.3069 46.5438 25.6136 46.5438 25.9603C46.5438 26.3069 46.5304 26.6269 46.5038 26.9203C46.4771 27.2136 46.4238 27.4669 46.3438 27.6803C46.2904 27.8669 46.2104 28.0136 46.1038 28.1203C46.0238 28.2269 45.9038 28.2803 45.7438 28.2803ZM35.7438 28.2803C35.5838 28.2803 35.4638 28.2269 35.3838 28.1203C35.2771 28.0136 35.1971 27.8669 35.1438 27.6803C35.0638 27.4669 35.0104 27.2136 34.9838 26.9203C34.9571 26.6269 34.9438 26.3069 34.9438 25.9603C34.9438 25.4803 34.9704 25.0803 35.0238 24.7603C35.0771 24.4136 35.1704 24.1469 35.3038 23.9603C35.4104 23.7469 35.5571 23.6403 35.7438 23.6403V28.2803ZM45.7438 28.2803V23.6403H55.7438V28.2803H45.7438ZM55.7438 28.2803V23.6403C55.9038 23.6403 56.0238 23.6936 56.1038 23.8003C56.2104 23.9069 56.2904 24.0669 56.3438 24.2803C56.4238 24.4936 56.4771 24.7469 56.5038 25.0403C56.5304 25.3069 56.5438 25.6136 56.5438 25.9603C56.5438 26.3069 56.5304 26.6269 56.5038 26.9203C56.4771 27.2136 56.4238 27.4669 56.3438 27.6803C56.2904 27.8669 56.2104 28.0136 56.1038 28.1203C56.0238 28.2269 55.9038 28.2803 55.7438 28.2803ZM45.7438 28.2803C45.5838 28.2803 45.4638 28.2269 45.3838 28.1203C45.2771 28.0136 45.1971 27.8669 45.1438 27.6803C45.0638 27.4669 45.0104 27.2136 44.9838 26.9203C44.9571 26.6269 44.9438 26.3069 44.9438 25.9603C44.9438 25.4803 44.9704 25.0803 45.0238 24.7603C45.0771 24.4136 45.1704 24.1469 45.3038 23.9603C45.4104 23.7469 45.5571 23.6403 45.7438 23.6403V28.2803ZM55.7438 28.2803V23.6403H65.7438V28.2803H55.7438ZM65.7438 28.2803V23.6403C65.9038 23.6403 66.0238 23.6936 66.1038 23.8003C66.2104 23.9069 66.2904 24.0669 66.3438 24.2803C66.4238 24.4936 66.4771 24.7469 66.5038 25.0403C66.5304 25.3069 66.5438 25.6136 66.5438 25.9603C66.5438 26.3069 66.5304 26.6269 66.5038 26.9203C66.4771 27.2136 66.4238 27.4669 66.3438 27.6803C66.2904 27.8669 66.2104 28.0136 66.1038 28.1203C66.0238 28.2269 65.9038 28.2803 65.7438 28.2803ZM55.7438 28.2803C55.5838 28.2803 55.4638 28.2269 55.3838 28.1203C55.2771 28.0136 55.1971 27.8669 55.1438 27.6803C55.0638 27.4669 55.0104 27.2136 54.9838 26.9203C54.9571 26.6269 54.9438 26.3069 54.9438 25.9603C54.9438 25.4803 54.9704 25.0803 55.0238 24.7603C55.0771 24.4136 55.1704 24.1469 55.3038 23.9603C55.4104 23.7469 55.5571 23.6403 55.7438 23.6403V28.2803ZM65.7438 28.2803V23.6403H75.7438V28.2803H65.7438ZM75.7438 28.2803V23.6403C75.9038 23.6403 76.0238 23.6936 76.1038 23.8003C76.2104 23.9069 76.2904 24.0669 76.3438 24.2803C76.4238 24.4936 76.4771 24.7469 76.5038 25.0403C76.5304 25.3069 76.5438 25.6136 76.5438 25.9603C76.5438 26.3069 76.5304 26.6269 76.5038 26.9203C76.4771 27.2136 76.4238 27.4669 76.3438 27.6803C76.2904 27.8669 76.2104 28.0136 76.1038 28.1203C76.0238 28.2269 75.9038 28.2803 75.7438 28.2803ZM65.7438 28.2803C65.5838 28.2803 65.4638 28.2269 65.3838 28.1203C65.2771 28.0136 65.1971 27.8669 65.1438 27.6803C65.0638 27.4669 65.0104 27.2136 64.9838 26.9203C64.9571 26.6269 64.9438 26.3069 64.9438 25.9603C64.9438 25.4803 64.9704 25.0803 65.0238 24.7603C65.0771 24.4136 65.1704 24.1469 65.3038 23.9603C65.4104 23.7469 65.5571 23.6403 65.7438 23.6403V28.2803ZM80.2638 28.2803V0.000272751H85.6238V28.2803H80.2638ZM75.7438 28.2803V23.6403H80.2638V28.2803H75.7438ZM75.7438 28.2803C75.5838 28.2803 75.4638 28.2269 75.3838 28.1203C75.2771 28.0136 75.1971 27.8669 75.1438 27.6803C75.0638 27.4669 75.0104 27.2136 74.9838 26.9203C74.9571 26.6269 74.9438 26.3069 74.9438 25.9603C74.9438 25.4803 74.9704 25.0803 75.0238 24.7603C75.0771 24.4136 75.1704 24.1469 75.3038 23.9603C75.4104 23.7469 75.5571 23.6403 75.7438 23.6403V28.2803ZM92.0391 28.2803V0.000272751H97.3591V28.2803H92.0391ZM92.2791 40.2403C91.7724 39.6269 91.3858 39.0403 91.1191 38.4803C90.8524 37.9203 90.7191 37.3203 90.7191 36.6803C90.7191 35.7736 90.9591 34.9469 91.4391 34.2003C91.9191 33.4803 92.5458 32.9069 93.3191 32.4803C94.0924 32.0803 94.9458 31.8803 95.8791 31.8803C96.3858 31.8803 96.9058 31.9469 97.4391 32.0803C97.9724 32.2136 98.4258 32.4136 98.7991 32.6803L97.4391 35.1203C97.1991 34.9869 96.9591 34.8936 96.7191 34.8403C96.5058 34.8136 96.2791 34.8003 96.0391 34.8003C95.3991 34.8003 94.9058 34.9603 94.5591 35.2803C94.2124 35.6269 94.0391 36.0803 94.0391 36.6403C94.0391 36.9603 94.1058 37.2669 94.2391 37.5603C94.3724 37.8536 94.5724 38.1736 94.8391 38.5203L92.2791 40.2403ZM89.8391 40.5603V37.6403H99.5191V40.5603H89.8391ZM110.738 38.2003C109.751 38.2003 108.711 38.1203 107.618 37.9603C106.551 37.8269 105.405 37.6403 104.178 37.4003L104.978 33.1203C106.311 33.2803 107.445 33.4003 108.378 33.4803C109.311 33.5603 110.098 33.6003 110.738 33.6003C112.658 33.6003 114.045 33.2536 114.898 32.5603C115.751 31.8669 116.178 30.8269 116.178 29.4403V11.8803L117.498 12.8403H112.498C111.405 12.8403 110.525 12.9736 109.858 13.2403C109.191 13.4803 108.698 14.0003 108.378 14.8003C108.085 15.5736 107.938 16.7603 107.938 18.3603C107.938 19.8803 108.071 21.0269 108.338 21.8003C108.631 22.5469 109.111 23.0403 109.778 23.2803C110.445 23.5203 111.351 23.6403 112.498 23.6403H116.178V28.2803H112.498C110.231 28.2803 108.365 27.9203 106.898 27.2003C105.431 26.4803 104.338 25.3869 103.618 23.9203C102.925 22.4536 102.578 20.6003 102.578 18.3603C102.578 16.1203 102.925 14.2536 103.618 12.7603C104.338 11.2403 105.431 10.1069 106.898 9.36027C108.365 8.58694 110.231 8.20027 112.498 8.20027H121.538V29.4403C121.538 31.2536 121.085 32.8136 120.178 34.1203C119.298 35.4536 118.045 36.4669 116.418 37.1603C114.818 37.8536 112.925 38.2003 110.738 38.2003ZM171.932 28.2803V23.6403H176.132V28.2803H171.932ZM160.412 38.2003C158.092 38.2003 156.012 37.7736 154.172 36.9203C152.359 36.0936 150.932 34.9336 149.892 33.4403C148.852 31.9469 148.332 30.2536 148.332 28.3603C148.332 27.8269 148.372 27.1203 148.452 26.2403C148.532 25.3603 148.639 24.3736 148.772 23.2803C148.932 22.1869 149.092 21.0803 149.252 19.9603C149.439 18.8136 149.612 17.7069 149.772 16.6403L155.052 17.3603C154.759 19.1469 154.506 20.7869 154.292 22.2803C154.106 23.7469 153.959 25.0003 153.852 26.0403C153.746 27.0803 153.692 27.8403 153.692 28.3203C153.692 29.3869 153.959 30.3069 154.492 31.0803C155.026 31.8536 155.786 32.4536 156.772 32.8803C157.786 33.3336 158.999 33.5603 160.412 33.5603C161.879 33.5603 163.066 33.3469 163.972 32.9203C164.879 32.4936 165.532 31.9069 165.932 31.1603C166.359 30.4136 166.572 29.5736 166.572 28.6403V8.20027H171.932V28.6403C171.932 30.5603 171.426 32.2403 170.412 33.6803C169.426 35.1203 168.066 36.2269 166.332 37.0003C164.599 37.8003 162.626 38.2003 160.412 38.2003ZM176.132 28.2803V23.6403C176.292 23.6403 176.412 23.6936 176.492 23.8003C176.599 23.9069 176.679 24.0669 176.732 24.2803C176.812 24.4936 176.866 24.7469 176.892 25.0403C176.919 25.3069 176.932 25.6136 176.932 25.9603C176.932 26.3069 176.919 26.6269 176.892 26.9203C176.866 27.2136 176.812 27.4669 176.732 27.6803C176.679 27.8669 176.599 28.0136 176.492 28.1203C176.412 28.2269 176.292 28.2803 176.132 28.2803ZM157.492 6.76027V2.20027H162.852V6.76027H157.492ZM176.146 28.2803V23.6403H186.146V28.2803H176.146ZM186.146 28.2803V23.6403C186.306 23.6403 186.426 23.6936 186.506 23.8003C186.613 23.9069 186.693 24.0669 186.746 24.2803C186.826 24.4936 186.88 24.7469 186.906 25.0403C186.933 25.3069 186.946 25.6136 186.946 25.9603C186.946 26.3069 186.933 26.6269 186.906 26.9203C186.88 27.2136 186.826 27.4669 186.746 27.6803C186.693 27.8669 186.613 28.0136 186.506 28.1203C186.426 28.2269 186.306 28.2803 186.146 28.2803ZM176.146 28.2803C175.986 28.2803 175.866 28.2269 175.786 28.1203C175.68 28.0136 175.6 27.8669 175.546 27.6803C175.466 27.4669 175.413 27.2136 175.386 26.9203C175.36 26.6269 175.346 26.3069 175.346 25.9603C175.346 25.4803 175.373 25.0803 175.426 24.7603C175.48 24.4136 175.573 24.1469 175.706 23.9603C175.813 23.7469 175.96 23.6403 176.146 23.6403V28.2803ZM186.146 28.2803V23.6403H196.146V28.2803H186.146ZM196.146 28.2803V23.6403C196.306 23.6403 196.426 23.6936 196.506 23.8003C196.613 23.9069 196.693 24.0669 196.746 24.2803C196.826 24.4936 196.88 24.7469 196.906 25.0403C196.933 25.3069 196.946 25.6136 196.946 25.9603C196.946 26.3069 196.933 26.6269 196.906 26.9203C196.88 27.2136 196.826 27.4669 196.746 27.6803C196.693 27.8669 196.613 28.0136 196.506 28.1203C196.426 28.2269 196.306 28.2803 196.146 28.2803ZM186.146 28.2803C185.986 28.2803 185.866 28.2269 185.786 28.1203C185.68 28.0136 185.6 27.8669 185.546 27.6803C185.466 27.4669 185.413 27.2136 185.386 26.9203C185.36 26.6269 185.346 26.3069 185.346 25.9603C185.346 25.4803 185.373 25.0803 185.426 24.7603C185.48 24.4136 185.573 24.1469 185.706 23.9603C185.813 23.7469 185.96 23.6403 186.146 23.6403V28.2803ZM196.146 28.2803V23.6403H206.146V28.2803H196.146ZM206.146 28.2803V23.6403C206.306 23.6403 206.426 23.6936 206.506 23.8003C206.613 23.9069 206.693 24.0669 206.746 24.2803C206.826 24.4936 206.88 24.7469 206.906 25.0403C206.933 25.3069 206.946 25.6136 206.946 25.9603C206.946 26.3069 206.933 26.6269 206.906 26.9203C206.88 27.2136 206.826 27.4669 206.746 27.6803C206.693 27.8669 206.613 28.0136 206.506 28.1203C206.426 28.2269 206.306 28.2803 206.146 28.2803ZM196.146 28.2803C195.986 28.2803 195.866 28.2269 195.786 28.1203C195.68 28.0136 195.6 27.8669 195.546 27.6803C195.466 27.4669 195.413 27.2136 195.386 26.9203C195.36 26.6269 195.346 26.3069 195.346 25.9603C195.346 25.4803 195.373 25.0803 195.426 24.7603C195.48 24.4136 195.573 24.1469 195.706 23.9603C195.813 23.7469 195.96 23.6403 196.146 23.6403V28.2803ZM206.146 28.2803V23.6403H216.146V28.2803H206.146ZM216.146 28.2803V23.6403C216.306 23.6403 216.426 23.6936 216.506 23.8003C216.613 23.9069 216.693 24.0669 216.746 24.2803C216.826 24.4936 216.88 24.7469 216.906 25.0403C216.933 25.3069 216.946 25.6136 216.946 25.9603C216.946 26.3069 216.933 26.6269 216.906 26.9203C216.88 27.2136 216.826 27.4669 216.746 27.6803C216.693 27.8669 216.613 28.0136 216.506 28.1203C216.426 28.2269 216.306 28.2803 216.146 28.2803ZM206.146 28.2803C205.986 28.2803 205.866 28.2269 205.786 28.1203C205.68 28.0136 205.6 27.8669 205.546 27.6803C205.466 27.4669 205.413 27.2136 205.386 26.9203C205.36 26.6269 205.346 26.3069 205.346 25.9603C205.346 25.4803 205.373 25.0803 205.426 24.7603C205.48 24.4136 205.573 24.1469 205.706 23.9603C205.813 23.7469 205.96 23.6403 206.146 23.6403V28.2803ZM216.146 28.2803V23.6403H226.146V28.2803H216.146ZM226.146 28.2803V23.6403C226.306 23.6403 226.426 23.6936 226.506 23.8003C226.613 23.9069 226.693 24.0669 226.746 24.2803C226.826 24.4936 226.88 24.7469 226.906 25.0403C226.933 25.3069 226.946 25.6136 226.946 25.9603C226.946 26.3069 226.933 26.6269 226.906 26.9203C226.88 27.2136 226.826 27.4669 226.746 27.6803C226.693 27.8669 226.613 28.0136 226.506 28.1203C226.426 28.2269 226.306 28.2803 226.146 28.2803ZM216.146 28.2803C215.986 28.2803 215.866 28.2269 215.786 28.1203C215.68 28.0136 215.6 27.8669 215.546 27.6803C215.466 27.4669 215.413 27.2136 215.386 26.9203C215.36 26.6269 215.346 26.3069 215.346 25.9603C215.346 25.4803 215.373 25.0803 215.426 24.7603C215.48 24.4136 215.573 24.1469 215.706 23.9603C215.813 23.7469 215.96 23.6403 216.146 23.6403V28.2803ZM226.146 28.2803V23.6403H236.146V28.2803H226.146ZM236.146 28.2803V23.6403C236.306 23.6403 236.426 23.6936 236.506 23.8003C236.613 23.9069 236.693 24.0669 236.746 24.2803C236.826 24.4936 236.88 24.7469 236.906 25.0403C236.933 25.3069 236.946 25.6136 236.946 25.9603C236.946 26.3069 236.933 26.6269 236.906 26.9203C236.88 27.2136 236.826 27.4669 236.746 27.6803C236.693 27.8669 236.613 28.0136 236.506 28.1203C236.426 28.2269 236.306 28.2803 236.146 28.2803ZM226.146 28.2803C225.986 28.2803 225.866 28.2269 225.786 28.1203C225.68 28.0136 225.6 27.8669 225.546 27.6803C225.466 27.4669 225.413 27.2136 225.386 26.9203C225.36 26.6269 225.346 26.3069 225.346 25.9603C225.346 25.4803 225.373 25.0803 225.426 24.7603C225.48 24.4136 225.573 24.1469 225.706 23.9603C225.813 23.7469 225.96 23.6403 226.146 23.6403V28.2803ZM236.146 28.2803V23.6403H246.146V28.2803H236.146ZM246.146 28.2803V23.6403C246.306 23.6403 246.426 23.6936 246.506 23.8003C246.613 23.9069 246.693 24.0669 246.746 24.2803C246.826 24.4936 246.88 24.7469 246.906 25.0403C246.933 25.3069 246.946 25.6136 246.946 25.9603C246.946 26.3069 246.933 26.6269 246.906 26.9203C246.88 27.2136 246.826 27.4669 246.746 27.6803C246.693 27.8669 246.613 28.0136 246.506 28.1203C246.426 28.2269 246.306 28.2803 246.146 28.2803ZM236.146 28.2803C235.986 28.2803 235.866 28.2269 235.786 28.1203C235.68 28.0136 235.6 27.8669 235.546 27.6803C235.466 27.4669 235.413 27.2136 235.386 26.9203C235.36 26.6269 235.346 26.3069 235.346 25.9603C235.346 25.4803 235.373 25.0803 235.426 24.7603C235.48 24.4136 235.573 24.1469 235.706 23.9603C235.813 23.7469 235.96 23.6403 236.146 23.6403V28.2803ZM246.146 28.2803V23.6403H266.906L264.466 25.7203V18.3603C264.466 16.9203 264.306 15.8003 263.986 15.0003C263.666 14.1736 263.106 13.6003 262.306 13.2803C261.533 12.9336 260.453 12.7603 259.066 12.7603C257.973 12.7603 256.893 12.8403 255.826 13.0003C254.786 13.1336 253.973 13.3203 253.386 13.5603L256.706 10.4403C256.546 11.0536 256.386 11.8269 256.226 12.7603C256.093 13.6936 255.973 14.6936 255.866 15.7603C255.76 16.8003 255.706 17.8269 255.706 18.8403C255.706 19.7736 255.746 20.7469 255.826 21.7603C255.933 22.7736 256.04 23.6669 256.146 24.4403C256.28 25.2136 256.386 25.7469 256.466 26.0403L251.386 27.4403C251.28 27.0669 251.146 26.4536 250.986 25.6003C250.826 24.7469 250.68 23.7336 250.546 22.5603C250.44 21.3869 250.386 20.1469 250.386 18.8403C250.386 17.5069 250.453 16.2269 250.586 15.0003C250.72 13.7469 250.866 12.6269 251.026 11.6403C251.213 10.6269 251.386 9.81361 251.546 9.20027C252.186 8.96027 253.186 8.72027 254.546 8.48027C255.906 8.24027 257.413 8.12027 259.066 8.12027C261.466 8.12027 263.453 8.45361 265.026 9.12027C266.626 9.78694 267.813 10.8669 268.586 12.3603C269.386 13.8536 269.786 15.8669 269.786 18.4003V28.2803H246.146ZM246.146 28.2803C245.986 28.2803 245.866 28.2269 245.786 28.1203C245.68 28.0136 245.6 27.8669 245.546 27.6803C245.466 27.4669 245.413 27.2136 245.386 26.9203C245.36 26.6269 245.346 26.3069 245.346 25.9603C245.346 25.4803 245.373 25.0803 245.426 24.7603C245.48 24.4136 245.573 24.1469 245.706 23.9603C245.813 23.7469 245.96 23.6403 246.146 23.6403V28.2803ZM13.1887 94.2003C11.4553 94.2003 9.84201 93.9469 8.34867 93.4403C6.88201 92.9603 5.60201 92.2803 4.50867 91.4003C3.41534 90.5469 2.54867 89.5203 1.90867 88.3203C1.29534 87.1469 0.988672 85.8669 0.988672 84.4803C0.988672 83.9736 1.02867 83.3203 1.10867 82.5203C1.18867 81.7203 1.29534 80.8003 1.42867 79.7603C1.58867 78.7203 1.76201 77.6136 1.94867 76.4403L7.22867 77.1603C6.96201 78.8403 6.74867 80.3336 6.58867 81.6403C6.42867 82.9469 6.34867 83.8669 6.34867 84.4003C6.34867 85.4136 6.62867 86.3069 7.18867 87.0803C7.74867 87.8536 8.53534 88.4536 9.54867 88.8803C10.5887 89.3336 11.802 89.5603 13.1887 89.5603H24.5087C26.242 89.5603 27.5353 89.1203 28.3887 88.2403C29.242 87.3603 29.6687 86.0803 29.6687 84.4003V82.8803H34.9887V84.4003C34.9887 86.3203 34.562 88.0136 33.7087 89.4803C32.8553 90.9469 31.642 92.0936 30.0687 92.9203C28.522 93.7736 26.6687 94.2003 24.5087 94.2003H13.1887ZM27.9087 84.2803C26.682 84.2803 25.4953 84.1469 24.3487 83.8803C23.2287 83.6136 22.162 83.1336 21.1487 82.4403L24.1887 78.6003C24.6153 78.8936 24.9887 79.1203 25.3087 79.2803C25.6553 79.4136 26.0287 79.5069 26.4287 79.5603C26.8553 79.6136 27.3487 79.6403 27.9087 79.6403H36.7487V84.2803H27.9087ZM36.7487 84.2803V79.6403C36.882 79.6403 37.002 79.6936 37.1087 79.8003C37.2153 79.9069 37.2953 80.0669 37.3487 80.2803C37.402 80.4936 37.442 80.7469 37.4687 81.0403C37.522 81.3069 37.5487 81.6136 37.5487 81.9603C37.5487 82.3069 37.522 82.6269 37.4687 82.9203C37.442 83.2136 37.402 83.4669 37.3487 83.6803C37.2953 83.8669 37.2153 84.0136 37.1087 84.1203C37.002 84.2269 36.882 84.2803 36.7487 84.2803ZM11.8287 102.44V97.8803H16.9887V102.44H11.8287ZM19.1087 102.44V97.8803H24.2687V102.44H19.1087ZM36.7324 84.2803V79.6403H46.7324V84.2803H36.7324ZM46.7324 84.2803V79.6403C46.8924 79.6403 47.0124 79.6936 47.0924 79.8003C47.1991 79.9069 47.2791 80.0669 47.3324 80.2803C47.4124 80.4936 47.4658 80.7469 47.4924 81.0403C47.5191 81.3069 47.5324 81.6136 47.5324 81.9603C47.5324 82.3069 47.5191 82.6269 47.4924 82.9203C47.4658 83.2136 47.4124 83.4669 47.3324 83.6803C47.2791 83.8669 47.1991 84.0136 47.0924 84.1203C47.0124 84.2269 46.8924 84.2803 46.7324 84.2803ZM36.7324 84.2803C36.5724 84.2803 36.4524 84.2269 36.3724 84.1203C36.2658 84.0136 36.1858 83.8669 36.1324 83.6803C36.0524 83.4669 35.9991 83.2136 35.9724 82.9203C35.9458 82.6269 35.9324 82.3069 35.9324 81.9603C35.9324 81.4803 35.9591 81.0803 36.0124 80.7603C36.0658 80.4136 36.1591 80.1469 36.2924 79.9603C36.3991 79.7469 36.5458 79.6403 36.7324 79.6403V84.2803ZM46.7324 84.2803V79.6403H54.0524L50.9324 82.2403V64.2003H56.2924V84.2803H46.7324ZM46.7324 84.2803C46.5724 84.2803 46.4524 84.2269 46.3724 84.1203C46.2658 84.0136 46.1858 83.8669 46.1324 83.6803C46.0524 83.4669 45.9991 83.2136 45.9724 82.9203C45.9458 82.6269 45.9324 82.3069 45.9324 81.9603C45.9324 81.4803 45.9591 81.0803 46.0124 80.7603C46.0658 80.4136 46.1591 80.1469 46.2924 79.9603C46.3991 79.7469 46.5458 79.6403 46.7324 79.6403V84.2803ZM50.9324 92.8003V88.2403H56.2924V92.8003H50.9324ZM68.4734 84.2803V79.6403H73.6334V84.2803H68.4734ZM60.7134 94.2003C60.3667 94.2003 59.9934 94.1869 59.5934 94.1603C59.1934 94.1336 58.78 94.0936 58.3534 94.0403L58.5534 89.4803C58.98 89.5069 59.38 89.5336 59.7534 89.5603C60.1534 89.5869 60.4467 89.6003 60.6334 89.6003C61.6734 89.6003 62.5 89.1869 63.1134 88.3603C63.7534 87.5336 64.0734 86.3736 64.0734 84.8803V64.2003H69.4334V84.8803C69.4334 86.6936 69.06 88.3069 68.3134 89.7203C67.5934 91.1336 66.58 92.2269 65.2734 93.0003C63.9667 93.8003 62.4467 94.2003 60.7134 94.2003ZM73.6334 84.2803V79.6403C73.7934 79.6403 73.9134 79.6936 73.9934 79.8003C74.1 79.9069 74.18 80.0669 74.2334 80.2803C74.3134 80.4936 74.3667 80.7469 74.3934 81.0403C74.42 81.3069 74.4334 81.6136 74.4334 81.9603C74.4334 82.3069 74.42 82.6269 74.3934 82.9203C74.3667 83.2136 74.3134 83.4669 74.2334 83.6803C74.18 83.8669 74.1 84.0136 73.9934 84.1203C73.9134 84.2269 73.7934 84.2803 73.6334 84.2803ZM73.6465 84.2803V79.6403H83.6465V84.2803H73.6465ZM83.6465 84.2803V79.6403C83.8065 79.6403 83.9265 79.6936 84.0065 79.8003C84.1132 79.9069 84.1932 80.0669 84.2465 80.2803C84.3265 80.4936 84.3798 80.7469 84.4065 81.0403C84.4332 81.3069 84.4465 81.6136 84.4465 81.9603C84.4465 82.3069 84.4332 82.6269 84.4065 82.9203C84.3798 83.2136 84.3265 83.4669 84.2465 83.6803C84.1932 83.8669 84.1132 84.0136 84.0065 84.1203C83.9265 84.2269 83.8065 84.2803 83.6465 84.2803ZM73.6465 84.2803C73.4865 84.2803 73.3665 84.2269 73.2865 84.1203C73.1798 84.0136 73.0998 83.8669 73.0465 83.6803C72.9665 83.4669 72.9132 83.2136 72.8865 82.9203C72.8598 82.6269 72.8465 82.3069 72.8465 81.9603C72.8465 81.4803 72.8732 81.0803 72.9265 80.7603C72.9798 80.4136 73.0732 80.1469 73.2065 79.9603C73.3132 79.7469 73.4598 79.6403 73.6465 79.6403V84.2803ZM83.6465 84.2803V79.6403H93.6465V84.2803H83.6465ZM93.6465 84.2803V79.6403C93.8065 79.6403 93.9265 79.6936 94.0065 79.8003C94.1132 79.9069 94.1932 80.0669 94.2465 80.2803C94.3265 80.4936 94.3798 80.7469 94.4065 81.0403C94.4332 81.3069 94.4465 81.6136 94.4465 81.9603C94.4465 82.3069 94.4332 82.6269 94.4065 82.9203C94.3798 83.2136 94.3265 83.4669 94.2465 83.6803C94.1932 83.8669 94.1132 84.0136 94.0065 84.1203C93.9265 84.2269 93.8065 84.2803 93.6465 84.2803ZM83.6465 84.2803C83.4865 84.2803 83.3665 84.2269 83.2865 84.1203C83.1798 84.0136 83.0998 83.8669 83.0465 83.6803C82.9665 83.4669 82.9132 83.2136 82.8865 82.9203C82.8598 82.6269 82.8465 82.3069 82.8465 81.9603C82.8465 81.4803 82.8732 81.0803 82.9265 80.7603C82.9798 80.4136 83.0732 80.1469 83.2065 79.9603C83.3132 79.7469 83.4598 79.6403 83.6465 79.6403V84.2803ZM93.6465 84.2803V79.6403H103.646V84.2803H93.6465ZM103.646 84.2803V79.6403C103.806 79.6403 103.926 79.6936 104.006 79.8003C104.113 79.9069 104.193 80.0669 104.246 80.2803C104.326 80.4936 104.38 80.7469 104.406 81.0403C104.433 81.3069 104.446 81.6136 104.446 81.9603C104.446 82.3069 104.433 82.6269 104.406 82.9203C104.38 83.2136 104.326 83.4669 104.246 83.6803C104.193 83.8669 104.113 84.0136 104.006 84.1203C103.926 84.2269 103.806 84.2803 103.646 84.2803ZM93.6465 84.2803C93.4865 84.2803 93.3665 84.2269 93.2865 84.1203C93.1798 84.0136 93.0998 83.8669 93.0465 83.6803C92.9665 83.4669 92.9132 83.2136 92.8865 82.9203C92.8598 82.6269 92.8465 82.3069 92.8465 81.9603C92.8465 81.4803 92.8732 81.0803 92.9265 80.7603C92.9798 80.4136 93.0732 80.1469 93.2065 79.9603C93.3132 79.7469 93.4598 79.6403 93.6465 79.6403V84.2803ZM111.166 83.6403C109.806 82.3603 108.78 81.0003 108.086 79.5603C107.42 78.1203 107.086 76.5869 107.086 74.9603C107.086 73.3869 107.38 71.9469 107.966 70.6403C108.553 69.3069 109.353 68.1603 110.366 67.2003C111.38 66.2403 112.553 65.5069 113.886 65.0003C115.246 64.4669 116.673 64.2003 118.166 64.2003C118.966 64.2003 119.806 64.2803 120.686 64.4403C121.566 64.6003 122.406 64.8136 123.206 65.0803L121.606 69.4403C121.046 69.2536 120.486 69.1069 119.926 69.0003C119.393 68.8936 118.873 68.8403 118.366 68.8403C117.193 68.8403 116.153 69.1069 115.246 69.6403C114.34 70.1469 113.633 70.8536 113.126 71.7603C112.646 72.6669 112.406 73.7069 112.406 74.8803C112.406 75.9469 112.62 76.9469 113.046 77.8803C113.5 78.8136 114.14 79.6536 114.966 80.4003L111.166 83.6403ZM103.646 84.2803V79.6403H123.566V84.2803H103.646ZM103.646 84.2803C103.486 84.2803 103.366 84.2269 103.286 84.1203C103.18 84.0136 103.1 83.8669 103.046 83.6803C102.966 83.4669 102.913 83.2136 102.886 82.9203C102.86 82.6269 102.846 82.3069 102.846 81.9603C102.846 81.4803 102.873 81.0803 102.926 80.7603C102.98 80.4136 103.073 80.1469 103.206 79.9603C103.313 79.7469 103.46 79.6403 103.646 79.6403V84.2803ZM150.242 84.2803C147.389 84.2803 144.976 83.9069 143.002 83.1603C141.056 82.4136 139.576 81.3069 138.562 79.8403C137.576 78.3736 137.082 76.5469 137.082 74.3603C137.082 73.7203 137.122 73.0536 137.202 72.3603C137.282 71.6403 137.376 70.9603 137.482 70.3203C137.616 69.6536 137.736 69.0669 137.842 68.5603C137.949 68.0536 138.029 67.6803 138.082 67.4403L143.282 68.4403C143.202 68.8669 143.096 69.4136 142.962 70.0803C142.829 70.7469 142.709 71.4536 142.602 72.2003C142.496 72.9203 142.442 73.6136 142.442 74.2803C142.442 75.3203 142.602 76.1869 142.922 76.8803C143.269 77.5736 143.776 78.1336 144.442 78.5603C145.109 78.9603 145.949 79.2403 146.962 79.4003C147.976 79.5603 149.162 79.6403 150.522 79.6403H161.202V64.2003H166.562V84.2803H150.242ZM149.442 92.8003V88.2403H154.802V92.8003H149.442ZM177.918 84.2803V79.6403H182.478V84.2803H177.918ZM172.598 84.2803V56.0003H177.918V84.2803H172.598ZM182.478 84.2803V79.6403C182.638 79.6403 182.758 79.6936 182.838 79.8003C182.945 79.9069 183.025 80.0669 183.078 80.2803C183.158 80.4936 183.211 80.7469 183.238 81.0403C183.265 81.3069 183.278 81.6136 183.278 81.9603C183.278 82.3069 183.265 82.6269 183.238 82.9203C183.211 83.2136 183.158 83.4669 183.078 83.6803C183.025 83.8669 182.945 84.0136 182.838 84.1203C182.758 84.2269 182.638 84.2803 182.478 84.2803ZM182.475 84.2803V79.6403H192.475V84.2803H182.475ZM192.475 84.2803V79.6403C192.635 79.6403 192.755 79.6936 192.835 79.8003C192.941 79.9069 193.021 80.0669 193.075 80.2803C193.155 80.4936 193.208 80.7469 193.235 81.0403C193.261 81.3069 193.275 81.6136 193.275 81.9603C193.275 82.3069 193.261 82.6269 193.235 82.9203C193.208 83.2136 193.155 83.4669 193.075 83.6803C193.021 83.8669 192.941 84.0136 192.835 84.1203C192.755 84.2269 192.635 84.2803 192.475 84.2803ZM182.475 84.2803C182.315 84.2803 182.195 84.2269 182.115 84.1203C182.008 84.0136 181.928 83.8669 181.875 83.6803C181.795 83.4669 181.741 83.2136 181.715 82.9203C181.688 82.6269 181.675 82.3069 181.675 81.9603C181.675 81.4803 181.701 81.0803 181.755 80.7603C181.808 80.4136 181.901 80.1469 182.035 79.9603C182.141 79.7469 182.288 79.6403 182.475 79.6403V84.2803ZM192.475 84.2803V79.6403H202.475V84.2803H192.475ZM202.475 84.2803V79.6403C202.635 79.6403 202.755 79.6936 202.835 79.8003C202.941 79.9069 203.021 80.0669 203.075 80.2803C203.155 80.4936 203.208 80.7469 203.235 81.0403C203.261 81.3069 203.275 81.6136 203.275 81.9603C203.275 82.3069 203.261 82.6269 203.235 82.9203C203.208 83.2136 203.155 83.4669 203.075 83.6803C203.021 83.8669 202.941 84.0136 202.835 84.1203C202.755 84.2269 202.635 84.2803 202.475 84.2803ZM192.475 84.2803C192.315 84.2803 192.195 84.2269 192.115 84.1203C192.008 84.0136 191.928 83.8669 191.875 83.6803C191.795 83.4669 191.741 83.2136 191.715 82.9203C191.688 82.6269 191.675 82.3069 191.675 81.9603C191.675 81.4803 191.701 81.0803 191.755 80.7603C191.808 80.4136 191.901 80.1469 192.035 79.9603C192.141 79.7469 192.288 79.6403 192.475 79.6403V84.2803ZM202.475 84.2803V79.6403H212.475V84.2803H202.475ZM212.475 84.2803V79.6403C212.635 79.6403 212.755 79.6936 212.835 79.8003C212.941 79.9069 213.021 80.0669 213.075 80.2803C213.155 80.4936 213.208 80.7469 213.235 81.0403C213.261 81.3069 213.275 81.6136 213.275 81.9603C213.275 82.3069 213.261 82.6269 213.235 82.9203C213.208 83.2136 213.155 83.4669 213.075 83.6803C213.021 83.8669 212.941 84.0136 212.835 84.1203C212.755 84.2269 212.635 84.2803 212.475 84.2803ZM202.475 84.2803C202.315 84.2803 202.195 84.2269 202.115 84.1203C202.008 84.0136 201.928 83.8669 201.875 83.6803C201.795 83.4669 201.741 83.2136 201.715 82.9203C201.688 82.6269 201.675 82.3069 201.675 81.9603C201.675 81.4803 201.701 81.0803 201.755 80.7603C201.808 80.4136 201.901 80.1469 202.035 79.9603C202.141 79.7469 202.288 79.6403 202.475 79.6403V84.2803ZM222.035 84.2803V79.6403H226.235V84.2803H222.035ZM212.475 84.2803C212.315 84.2803 212.195 84.2269 212.115 84.1203C212.008 84.0136 211.928 83.8669 211.875 83.6803C211.795 83.4669 211.741 83.2136 211.715 82.9203C211.688 82.6269 211.675 82.3069 211.675 81.9603C211.675 81.4803 211.701 81.0803 211.755 80.7603C211.808 80.4136 211.901 80.1469 212.035 79.9603C212.141 79.7469 212.288 79.6403 212.475 79.6403V84.2803ZM212.475 84.2803V79.6403H219.795L216.675 82.2403V64.2003H222.035V84.2803H212.475ZM226.235 84.2803V79.6403C226.395 79.6403 226.528 79.6936 226.635 79.8003C226.741 79.9069 226.821 80.0669 226.875 80.2803C226.928 80.4936 226.968 80.7469 226.995 81.0403C227.021 81.3069 227.035 81.6136 227.035 81.9603C227.035 82.3069 227.021 82.6269 226.995 82.9203C226.968 83.2136 226.928 83.4669 226.875 83.6803C226.821 83.8669 226.741 84.0136 226.635 84.1203C226.528 84.2269 226.395 84.2803 226.235 84.2803ZM216.675 92.8003V88.2403H222.035V92.8003H216.675ZM226.225 84.2803V79.6403H236.225V84.2803H226.225ZM236.225 84.2803V79.6403C236.385 79.6403 236.505 79.6936 236.585 79.8003C236.691 79.9069 236.771 80.0669 236.825 80.2803C236.905 80.4936 236.958 80.7469 236.985 81.0403C237.011 81.3069 237.025 81.6136 237.025 81.9603C237.025 82.3069 237.011 82.6269 236.985 82.9203C236.958 83.2136 236.905 83.4669 236.825 83.6803C236.771 83.8669 236.691 84.0136 236.585 84.1203C236.505 84.2269 236.385 84.2803 236.225 84.2803ZM226.225 84.2803C226.065 84.2803 225.945 84.2269 225.865 84.1203C225.758 84.0136 225.678 83.8669 225.625 83.6803C225.545 83.4669 225.491 83.2136 225.465 82.9203C225.438 82.6269 225.425 82.3069 225.425 81.9603C225.425 81.4803 225.451 81.0803 225.505 80.7603C225.558 80.4136 225.651 80.1469 225.785 79.9603C225.891 79.7469 226.038 79.6403 226.225 79.6403V84.2803ZM259.745 84.2803C258.651 84.2803 257.558 84.0803 256.465 83.6803C255.398 83.2536 254.411 82.6269 253.505 81.8003L256.785 78.4003C257.318 78.8269 257.811 79.1469 258.265 79.3603C258.745 79.5469 259.238 79.6403 259.745 79.6403H267.225L264.465 82.1603V73.2803C264.465 72.8536 264.411 72.2136 264.305 71.3603C264.225 70.4803 264.091 69.4936 263.905 68.4003C263.745 67.2803 263.545 66.1469 263.305 65.0003L268.585 64.2003C268.771 65.1603 268.945 66.2403 269.105 67.4403C269.291 68.6136 269.451 69.7336 269.585 70.8003C269.718 71.8403 269.785 72.6669 269.785 73.2803V84.2803H259.745ZM236.225 84.2803V79.6403H242.065L240.865 80.8803V68.2803H246.225V84.2803H236.225ZM246.225 84.2803V79.6403H249.465C250.318 79.6403 250.971 79.5203 251.425 79.2803C251.878 79.0136 252.185 78.4936 252.345 77.7203C252.531 76.9203 252.625 75.7336 252.625 74.1603V66.2803H257.985V74.1603C257.985 76.5336 257.678 78.4669 257.065 79.9603C256.478 81.4536 255.558 82.5469 254.305 83.2403C253.051 83.9336 251.438 84.2803 249.465 84.2803H246.225ZM236.225 84.2803C236.065 84.2803 235.945 84.2269 235.865 84.1203C235.758 84.0136 235.678 83.8669 235.625 83.6803C235.545 83.4669 235.491 83.2136 235.465 82.9203C235.438 82.6269 235.425 82.3069 235.425 81.9603C235.425 81.4803 235.451 81.0803 235.505 80.7603C235.558 80.4136 235.651 80.1469 235.785 79.9603C235.891 79.7469 236.038 79.6403 236.225 79.6403V84.2803ZM253.025 54.4003V50.4003H257.665V54.4003H253.025ZM249.145 60.5203V55.9603H254.305V60.5203H249.145ZM256.425 60.5203V55.9603H261.585V60.5203H256.425Z" fill="#25652C"/>
</svg>
