<svg width="376" height="1212" viewBox="0 0 376 1212" fill="none" xmlns="http://www.w3.org/2000/svg">
<g clip-path="url(#clip0_199_8097)">
<rect width="376" height="1212" rx="24" fill="white"/>
<g clip-path="url(#clip1_199_8097)">
<path d="M276.132 1080.54C275.704 1082.79 275.191 1085.01 274.593 1087.21C274.528 1087.47 274.456 1087.72 274.383 1087.97H266.067C265.358 1087.97 264.679 1088.25 264.178 1088.76C263.677 1089.26 263.395 1089.93 263.395 1090.64V1114.33C263.143 1114.8 262.887 1115.26 262.631 1115.73C261.311 1118.13 259.937 1120.51 258.532 1122.85C235.628 1160.97 203.684 1192.86 165.519 1215.72L167.779 1210.63C166.95 1210.57 166.118 1210.51 165.29 1210.45C147.256 1209.22 129.16 1207.86 111.549 1203.81C93.1247 1199.57 75.1016 1192.22 60.6624 1180.04C46.2193 1167.85 35.6315 1150.45 34.162 1131.62C33.6719 1125.15 34.327 1118.64 36.0972 1112.4C39.4826 1100.38 46.8798 1089.57 57.5518 1083.17C74.3154 1073.12 96.1822 1075.17 113.854 1083.53C131.522 1091.88 145.904 1105.71 159.947 1119.3C145.769 1095.01 126.029 1074.43 102.346 1059.24C94.4988 1054.22 86.1705 1049.75 79.4987 1043.25C72.8305 1036.75 67.9106 1027.64 69.0901 1018.41C70.4297 1007.94 79.0139 999.992 87.6132 993.865C91.0484 991.417 94.5943 989.094 98.2509 986.959C108.568 980.919 119.728 976.362 131.515 974.673C147.481 972.382 164.725 975.859 176.966 986.353C190.756 998.177 196.413 1017.25 195.875 1035.49C204.371 1023.15 217.474 1013.7 232.272 1013.3C247.635 1012.89 262.238 1022.59 269.933 1035.88C277.624 1049.17 279.006 1065.46 276.132 1080.54Z" fill="#2F8A39"/>
<path d="M178.932 1131.79C187.93 1131 196.242 1130.07 204.962 1127.61C213.414 1125.22 221.546 1121.22 227.563 1114.69C234.035 1107.66 237.528 1098.54 239.993 1089.46C241.367 1084.39 242.496 1079.26 243.561 1074.13C244.717 1068.55 245.744 1062.96 246.643 1057.33C248.431 1046.15 249.707 1034.89 250.472 1023.57C250.564 1022.19 250.649 1020.82 250.726 1019.44C250.774 1018.6 249.453 1018.6 249.406 1019.44C248.777 1030.6 247.647 1041.72 246.014 1052.79C244.403 1063.67 242.342 1074.5 239.727 1085.19C237.512 1094.24 234.643 1103.43 228.961 1110.96C223.633 1118.03 215.937 1122.65 207.628 1125.41C199.173 1128.22 190.257 1129.34 181.422 1130.17C180.338 1130.27 180.017 1130.37 178.932 1130.47C178.092 1130.54 178.084 1131.86 178.932 1131.79Z" fill="white"/>
<path d="M36.8596 1113.37C48.2123 1114 59.4496 1115.98 70.3337 1119.27C81.2225 1122.54 91.6863 1127.1 101.508 1132.82C110.999 1138.36 119.809 1144.99 127.761 1152.57C135.478 1159.93 142.355 1168.12 148.268 1177C154.207 1185.89 159.129 1195.43 162.942 1205.42C163.407 1206.64 163.855 1207.87 164.286 1209.1C164.564 1209.9 165.84 1209.56 165.559 1208.75C161.992 1198.55 157.29 1188.78 151.54 1179.63C145.792 1170.47 139.046 1161.98 131.425 1154.31C123.683 1146.52 115.066 1139.65 105.745 1133.84C86.1759 1121.66 63.994 1114.29 41.0213 1112.34C39.6355 1112.22 38.2483 1112.13 36.8596 1112.05C36.0103 1112.01 36.0129 1113.33 36.8596 1113.37Z" fill="white"/>
<path d="M98.6075 988.505C105.866 990.811 112.747 994.17 119.028 998.474C125.447 1002.9 131.301 1008.1 136.461 1013.94C141.898 1020.09 146.732 1026.74 150.896 1033.81C155.313 1041.28 159.15 1049.07 162.373 1057.13C165.692 1065.39 168.484 1073.86 170.731 1082.48C173.016 1091.2 174.8 1100.05 176.076 1108.97C177.345 1117.8 178.113 1126.7 178.377 1135.62C178.642 1144.14 178.39 1152.68 177.621 1161.17C176.918 1169.1 175.634 1176.96 173.78 1184.7C172.133 1191.69 169.813 1198.51 166.851 1205.05C166.165 1206.53 165.437 1208 164.667 1209.44C164.267 1210.19 165.407 1210.86 165.807 1210.11C169.08 1203.86 171.694 1197.29 173.606 1190.5C175.752 1182.94 177.307 1175.22 178.257 1167.43C179.311 1158.97 179.825 1150.45 179.794 1141.92C179.775 1132.96 179.241 1124.02 178.196 1115.12C177.149 1106.11 175.596 1097.17 173.543 1088.34C171.495 1079.49 168.897 1070.78 165.764 1062.26C162.744 1054.01 159.129 1045.98 154.946 1038.26C150.962 1030.88 146.32 1023.88 141.075 1017.34C136.094 1011.11 130.408 1005.48 124.13 1000.56C118.076 995.835 111.386 991.98 104.257 989.112C102.515 988.42 100.749 987.793 98.9586 987.233C98.146 986.977 97.7983 988.251 98.6075 988.505Z" fill="white"/>
<path d="M176.943 1218C229.116 1218 271.41 1216.29 271.41 1214.19C271.41 1212.08 229.116 1210.38 176.943 1210.38C124.77 1210.38 82.4756 1212.08 82.4756 1214.19C82.4756 1216.29 124.77 1218 176.943 1218Z" fill="#2F8A39"/>
<path d="M260.406 1094.76C260.359 1094.96 260.328 1095.17 260.314 1095.38L243.918 1104.83L239.933 1102.54L235.684 1108.1L244.21 1114.17L262.915 1099.42C263.678 1099.71 264.509 1099.75 265.297 1099.55C266.086 1099.35 266.794 1098.91 267.328 1098.3C267.862 1097.68 268.196 1096.92 268.287 1096.12C268.378 1095.31 268.22 1094.49 267.835 1093.78C267.45 1093.06 266.856 1092.48 266.132 1092.11C265.408 1091.74 264.588 1091.6 263.782 1091.7C262.975 1091.81 262.22 1092.16 261.617 1092.7C261.014 1093.25 260.591 1093.96 260.406 1094.76Z" fill="#FFB8B8"/>
<path d="M223.064 1100.55L235.974 1109.75L241.748 1102.51L229.199 1092.45C228.659 1092.02 228.036 1091.7 227.369 1091.52C226.701 1091.34 226.003 1091.29 225.318 1091.38C224.632 1091.48 223.973 1091.71 223.381 1092.07C222.789 1092.43 222.276 1092.9 221.874 1093.47C221.092 1094.57 220.777 1095.93 221 1097.26C221.223 1098.59 221.966 1099.77 223.064 1100.55Z" fill="#F99D27"/>
<path d="M196.415 1205.44L200.941 1206.62L207.67 1189.75L200.99 1188L196.415 1205.44Z" fill="#FFB8B8"/>
<path d="M208.57 1213.11L194.343 1209.39L195.783 1203.89L204.513 1206.18C205.971 1206.56 207.217 1207.51 207.978 1208.81C208.739 1210.1 208.952 1211.65 208.57 1213.11Z" fill="#2F2E41"/>
<path d="M236.653 1208.66L241.26 1207.84L240.278 1189.7L233.479 1190.91L236.653 1208.66Z" fill="#FFB8B8"/>
<path d="M250.908 1210.53L236.43 1213.11L235.431 1207.52L244.315 1205.94C245.05 1205.8 245.803 1205.82 246.532 1205.98C247.26 1206.14 247.951 1206.44 248.563 1206.87C249.175 1207.29 249.697 1207.84 250.1 1208.46C250.502 1209.09 250.777 1209.79 250.908 1210.53Z" fill="#2F2E41"/>
<path d="M227.582 1075.24C228.718 1075.52 229.641 1076.67 230.196 1078.01C230.707 1079.42 231.053 1080.88 231.228 1082.36C231.663 1085.13 232.082 1088.13 231.181 1090.69C230.124 1093.69 227.31 1095.27 224.868 1094.53C222.426 1093.79 220.485 1091.01 219.821 1087.82C219.217 1084.59 219.606 1081.26 220.937 1078.25C221.631 1076.68 222.587 1075.22 223.857 1074.51C224.481 1074.13 225.223 1074.01 225.936 1074.15C226.649 1074.3 227.28 1074.72 227.7 1075.31" fill="#2F2E41"/>
<path d="M234.005 1125.34L242.775 1203.81L235.532 1206.56L222.173 1153.94L203.574 1202.05L195.646 1202.49C195.646 1202.49 206.524 1127.63 214.585 1125.93L234.005 1125.34Z" fill="#2F2E41"/>
<path d="M226.639 1085.26C231.816 1085.26 236.013 1081.06 236.013 1075.89C236.013 1070.72 231.816 1066.53 226.639 1066.53C221.461 1066.53 217.264 1070.72 217.264 1075.89C217.264 1081.06 221.461 1085.26 226.639 1085.26Z" fill="#FFB8B8"/>
<path d="M230.662 1089.19L220.532 1087.87C220.532 1087.87 213.925 1095.79 214.365 1109.43C214.806 1123.07 213.264 1127.25 213.264 1127.25L234.387 1127.63C231.333 1123.43 244.105 1099.34 230.662 1089.19Z" fill="#F99D27"/>
<path d="M236.104 1129.54C235.893 1129.54 235.682 1129.56 235.474 1129.59L222.514 1115.81L223.835 1111.41L217.448 1108.55L213.484 1118.23L232.13 1133.05C232.03 1133.85 232.178 1134.67 232.554 1135.39C232.93 1136.11 233.517 1136.7 234.237 1137.08C234.957 1137.46 235.775 1137.61 236.582 1137.51C237.39 1137.42 238.149 1137.08 238.759 1136.54C239.368 1136 239.799 1135.29 239.995 1134.5C240.19 1133.71 240.14 1132.88 239.852 1132.12C239.564 1131.36 239.051 1130.71 238.381 1130.24C237.712 1129.78 236.917 1129.54 236.104 1129.54Z" fill="#FFB8B8"/>
<path d="M221.909 1094.55L215.907 1109.21L224.275 1113.17L231.206 1098.66C231.504 1098.04 231.672 1097.36 231.698 1096.67C231.725 1095.98 231.61 1095.29 231.361 1094.64C231.111 1094 230.732 1093.41 230.248 1092.91C229.763 1092.42 229.183 1092.03 228.542 1091.77C227.924 1091.52 227.262 1091.39 226.594 1091.39C225.926 1091.39 225.266 1091.53 224.65 1091.79C224.034 1092.04 223.475 1092.42 223.005 1092.89C222.534 1093.37 222.162 1093.93 221.909 1094.55Z" fill="#F99D27"/>
<path d="M224.186 1084.41C225.655 1083.56 225.812 1081.52 225.612 1079.83C225.413 1078.15 225.079 1076.28 226.069 1074.9C227.251 1073.26 229.624 1073.23 231.647 1073.17C233.671 1073.12 236.134 1072.53 236.659 1070.57C237.005 1069.28 236.264 1067.9 235.2 1067.09C234.137 1066.28 232.806 1065.92 231.513 1065.58C228.62 1064.82 225.633 1064.05 222.671 1064.47C219.737 1064.88 217.084 1066.44 215.287 1068.79C213.489 1071.14 212.692 1074.11 213.067 1077.05C213.546 1080.8 214.242 1082.44 213.785 1084.1C212.935 1087.18 209.269 1089.17 209.196 1092.36C209.139 1094.87 211.352 1096.8 213.51 1098.07C215.222 1099.07 217.07 1099.93 219.043 1100.17C221.016 1100.4 223.14 1099.95 224.61 1098.61C226.506 1096.89 226.975 1094.01 226.431 1091.51C225.888 1089.01 224.493 1086.79 223.114 1084.63" fill="#2F2E41"/>
<path d="M401.565 1087.21H266.067C265.156 1087.21 264.283 1087.57 263.639 1088.22C262.995 1088.86 262.633 1089.73 262.631 1090.64V1177.58C262.633 1178.49 262.995 1179.36 263.639 1180.01C264.283 1180.65 265.156 1181.01 266.067 1181.01H401.565C402.476 1181.01 403.348 1180.65 403.992 1180.01C404.636 1179.36 404.999 1178.49 405 1177.58V1090.64C404.999 1089.73 404.636 1088.86 403.992 1088.22C403.348 1087.57 402.476 1087.21 401.565 1087.21ZM404.237 1177.58C404.236 1178.29 403.954 1178.97 403.453 1179.47C402.952 1179.97 402.273 1180.25 401.565 1180.25H266.067C265.358 1180.25 264.679 1179.97 264.178 1179.47C263.677 1178.97 263.396 1178.29 263.395 1177.58V1090.64C263.396 1089.93 263.677 1089.25 264.178 1088.75C264.679 1088.25 265.358 1087.97 266.067 1087.97H401.565C402.273 1087.97 402.952 1088.25 403.453 1088.75C403.954 1089.25 404.236 1089.93 404.237 1090.64V1177.58Z" fill="#F99D27"/>
<path d="M294.989 1130.49H273.614C272.754 1130.49 271.93 1130.14 271.321 1129.54C270.713 1128.93 270.371 1128.1 270.37 1127.25V1105.89C270.371 1105.03 270.713 1104.21 271.321 1103.6C271.93 1102.99 272.754 1102.65 273.614 1102.65H294.989C295.849 1102.65 296.674 1102.99 297.282 1103.6C297.89 1104.21 298.232 1105.03 298.233 1105.89V1127.25C298.232 1128.1 297.89 1128.93 297.282 1129.54C296.674 1130.14 295.849 1130.49 294.989 1130.49Z" fill="#F99D27"/>
<path d="M394.508 1153.18H273.132C272.474 1153.18 271.843 1152.92 271.378 1152.45C270.912 1151.99 270.651 1151.36 270.651 1150.7C270.651 1150.04 270.912 1149.41 271.378 1148.95C271.843 1148.48 272.474 1148.22 273.132 1148.22H394.508C395.166 1148.22 395.797 1148.48 396.262 1148.95C396.727 1149.41 396.989 1150.04 396.989 1150.7C396.989 1151.36 396.727 1151.99 396.262 1152.45C395.797 1152.92 395.166 1153.18 394.508 1153.18Z" fill="#64C46E"/>
<path d="M394.589 1141.17H273.213C272.555 1141.17 271.924 1140.91 271.459 1140.44C270.994 1139.98 270.732 1139.35 270.732 1138.69C270.732 1138.03 270.994 1137.4 271.459 1136.94C271.924 1136.47 272.555 1136.21 273.213 1136.21H394.589C395.247 1136.21 395.878 1136.47 396.344 1136.94C396.809 1137.4 397.07 1138.03 397.07 1138.69C397.07 1139.35 396.809 1139.98 396.344 1140.44C395.878 1140.91 395.247 1141.17 394.589 1141.17Z" fill="#64C46E"/>
<path d="M334.665 1124.77H316.726C316.068 1124.77 315.437 1124.51 314.971 1124.04C314.506 1123.58 314.245 1122.95 314.245 1122.29C314.245 1121.63 314.506 1121 314.971 1120.54C315.437 1120.07 316.068 1119.81 316.726 1119.81H334.665C335.323 1119.81 335.954 1120.07 336.419 1120.54C336.884 1121 337.146 1121.63 337.146 1122.29C337.146 1122.95 336.884 1123.58 336.419 1124.04C335.954 1124.51 335.323 1124.77 334.665 1124.77Z" fill="#64C46E"/>
<path d="M394.589 1112.57H316.726C316.068 1112.57 315.437 1112.31 314.971 1111.84C314.506 1111.38 314.245 1110.75 314.245 1110.09C314.245 1109.43 314.506 1108.8 314.971 1108.34C315.437 1107.87 316.068 1107.61 316.726 1107.61H394.589C395.247 1107.61 395.878 1107.87 396.344 1108.34C396.809 1108.8 397.07 1109.43 397.07 1110.09C397.07 1110.75 396.809 1111.38 396.344 1111.84C395.878 1112.31 395.247 1112.57 394.589 1112.57Z" fill="#64C46E"/>
<path d="M331.611 1165.38H273.132C272.474 1165.38 271.843 1165.12 271.378 1164.65C270.912 1164.19 270.651 1163.56 270.651 1162.9C270.651 1162.25 270.912 1161.61 271.378 1161.15C271.843 1160.68 272.474 1160.42 273.132 1160.42H331.611C332.269 1160.42 332.9 1160.68 333.366 1161.15C333.831 1161.61 334.092 1162.25 334.092 1162.9C334.092 1163.56 333.831 1164.19 333.366 1164.65C332.9 1165.12 332.269 1165.38 331.611 1165.38Z" fill="#64C46E"/>
</g>
<ellipse cx="33.5" cy="245.5" rx="413.5" ry="403.5" fill="#BBCFBE"/>
</g>
<defs>
<clipPath id="clip0_199_8097">
<rect width="376" height="1212" rx="24" fill="white"/>
</clipPath>
<clipPath id="clip1_199_8097">
<rect width="334" height="244" fill="white" transform="translate(34 974)"/>
</clipPath>
</defs>
</svg>
